<?xml version="1.0" encoding="UTF-8"?>
<svg id="Layer_1" data-name="Layer 1" xmlns="http://www.w3.org/2000/svg" viewBox="0 0 711.05 242.03">
  <defs>
    <style>
      .cls-1 {
        fill: #1e539e;
      }

      .cls-1, .cls-2 {
        stroke-width: 0px;
      }

      .cls-2 {
        fill: #fff;
      }
    </style>
  </defs>
  <path class="cls-1" d="M617.74,112.57v56.03h-32.77V9.58h62.04c11.94,0,22.45,2.18,31.51,6.55,9.07,4.37,16.04,10.58,20.92,18.62,4.88,8.05,7.32,17.2,7.32,27.47,0,15.58-5.33,27.87-16,36.86-10.67,8.99-25.43,13.49-44.29,13.49h-28.73ZM617.74,86.03h29.27c8.66,0,15.27-2.04,19.82-6.12,4.55-4.08,6.83-9.9,6.83-17.48s-2.29-14.09-6.88-18.9c-4.59-4.81-10.92-7.28-19-7.43h-30.04v49.91Z"/>
  <rect class="cls-1" x="6.91" y="190.32" width="699.94" height="44.37"/>
  <g>
    <path class="cls-2" d="M33.81,197.05v26.46h-6.72v-26.46h6.72Z"/>
    <path class="cls-2" d="M56.99,210.7v12.8h-5.97v-10.92c0-2.85-1.01-3.81-2.99-3.81-2.28,0-3.58,1.15-3.58,3.77v10.95h-5.97v-18.95h5.97v2.74h.07c1.01-1.74,2.87-3.33,6.27-3.33,3.7,0,6.2,2.41,6.2,6.73Z"/>
    <path class="cls-2" d="M77.97,217.92c0,4-3.06,6.18-8.36,6.18-6.83,0-9.44-3.03-9.63-6.88h5.6c.19,1.89,1.46,2.81,3.81,2.81,1.68,0,2.61-.56,2.61-1.63,0-1.63-1.79-1.85-4.81-2.52-3.25-.7-6.83-1.89-6.83-5.85,0-3.44,2.99-6.07,8.36-6.07,6.12,0,8.51,3.07,8.7,6.4h-5.6c-.19-1.52-1.01-2.33-2.95-2.33-1.68,0-2.54.59-2.54,1.52,0,1.33,1.19,1.37,4.14,2,3.77.81,7.5,2.07,7.5,6.36Z"/>
    <path class="cls-2" d="M88.35,209v7.84c0,2.15.78,2.15,3.32,2.15v4.44c-1.08.22-2.02.41-3.7.41-4.37,0-5.6-2.29-5.6-6.55v-8.29h-2.65v-4.44h2.65v-5.29h5.97v5.29h3.32v4.44h-3.32Z"/>
    <path class="cls-2" d="M95.25,199.67c0-1.7,1.31-2.63,2.99-2.63s2.99.93,2.99,2.63-1.31,2.63-2.99,2.63-2.99-.89-2.99-2.63ZM101.22,204.56v18.95h-5.97v-18.95h5.97Z"/>
    <path class="cls-2" d="M113.09,209v7.84c0,2.15.78,2.15,3.32,2.15v4.44c-1.08.22-2.02.41-3.69.41-4.37,0-5.6-2.29-5.6-6.55v-8.29h-2.65v-4.44h2.65v-5.29h5.97v5.29h3.32v4.44h-3.32Z"/>
    <path class="cls-2" d="M138.36,204.56v18.95h-5.97v-2.74h-.07c-1.01,1.74-2.87,3.33-6.27,3.33-3.69,0-6.2-2.41-6.2-6.73v-12.8h5.97v10.92c0,2.85,1.01,3.81,2.99,3.81,2.28,0,3.58-1.15,3.58-3.77v-10.95h5.97Z"/>
    <path class="cls-2" d="M150.24,209v7.84c0,2.15.78,2.15,3.32,2.15v4.44c-1.08.22-2.02.41-3.7.41-4.37,0-5.6-2.29-5.6-6.55v-8.29h-2.65v-4.44h2.65v-5.29h5.97v5.29h3.32v4.44h-3.32Z"/>
    <path class="cls-2" d="M183.9,197.05v26.46h-5.97v-1.89h-.07c-.75,1-2.76,2.48-5.52,2.48-5.08,0-8.32-3.85-8.32-10.06s3.25-10.06,8.32-10.06c2.76,0,4.78,1.48,5.52,2.48h.07v-9.4h5.97ZM177.82,214.03c0-3.7-1.49-5.62-3.92-5.62s-3.92,1.92-3.92,5.62,1.49,5.62,3.92,5.62,3.92-1.92,3.92-5.62Z"/>
    <path class="cls-2" d="M200.81,217.77h5.93c-1.05,3.81-4.03,6.33-9.22,6.33-6.34,0-10.19-4.14-10.19-10.06s3.77-10.06,9.85-10.06c6.53,0,9.85,4.74,9.85,11.62h-13.73c0,2.66,1.98,4.07,4.11,4.07s3.02-.96,3.4-1.89ZM193.31,212h7.76c0-2.63-1.6-3.96-3.88-3.96s-3.88,1.33-3.88,3.96Z"/>
    <path class="cls-2" d="M227.32,217.92c0,4-3.06,6.18-8.36,6.18-6.83,0-9.44-3.03-9.63-6.88h5.6c.19,1.89,1.46,2.81,3.81,2.81,1.68,0,2.61-.56,2.61-1.63,0-1.63-1.79-1.85-4.81-2.52-3.25-.7-6.83-1.89-6.83-5.85,0-3.44,2.99-6.07,8.36-6.07,6.12,0,8.51,3.07,8.7,6.4h-5.6c-.19-1.52-1.01-2.33-2.95-2.33-1.68,0-2.54.59-2.54,1.52,0,1.33,1.19,1.37,4.14,2,3.77.81,7.5,2.07,7.5,6.36Z"/>
    <path class="cls-2" d="M238.78,197.05h8.21l5.49,16.87h.07l5.49-16.87h8.21v26.46h-6.34v-16.47h-.08l-4.96,16.47h-4.7l-4.96-16.47h-.08v16.47h-6.34v-26.46Z"/>
    <path class="cls-2" d="M283.9,217.77h5.93c-1.04,3.81-4.03,6.33-9.22,6.33-6.34,0-10.19-4.14-10.19-10.06s3.77-10.06,9.85-10.06c6.53,0,9.85,4.74,9.85,11.62h-13.73c0,2.66,1.98,4.07,4.11,4.07s3.02-.96,3.4-1.89ZM276.4,212h7.76c0-2.63-1.6-3.96-3.88-3.96s-3.88,1.33-3.88,3.96ZM282.45,202.04h-4.48l1.6-5.18h6.72l-3.84,5.18Z"/>
    <path class="cls-2" d="M300.78,209v7.84c0,2.15.78,2.15,3.32,2.15v4.44c-1.08.22-2.01.41-3.69.41-4.37,0-5.6-2.29-5.6-6.55v-8.29h-2.65v-4.44h2.65v-5.29h5.97v5.29h3.32v4.44h-3.32Z"/>
    <path class="cls-2" d="M307.69,199.67c0-1.7,1.31-2.63,2.99-2.63s2.99.93,2.99,2.63-1.31,2.63-2.99,2.63-2.99-.89-2.99-2.63ZM313.66,204.56v18.95h-5.97v-18.95h5.97Z"/>
    <path class="cls-2" d="M330.57,217.77h5.93c-1.04,3.81-4.03,6.33-9.22,6.33-6.34,0-10.19-4.14-10.19-10.06s3.77-10.06,9.85-10.06c6.53,0,9.85,4.74,9.85,11.62h-13.73c0,2.66,1.98,4.07,4.11,4.07s3.02-.96,3.4-1.89ZM323.06,212h7.76c0-2.63-1.6-3.96-3.88-3.96s-3.88,1.33-3.88,3.96Z"/>
    <path class="cls-2" d="M352.59,204.37v5.18h-.08c-3.06-.55-6.31,1.11-6.31,5.14v8.81h-5.97v-18.95h5.97v3.11h.07c.93-2.11,2.58-3.44,4.67-3.44.52,0,.97,0,1.64.15Z"/>
    <path class="cls-2" d="M372.74,217.92c0,4-3.06,6.18-8.36,6.18-6.83,0-9.44-3.03-9.63-6.88h5.6c.19,1.89,1.46,2.81,3.81,2.81,1.68,0,2.61-.56,2.61-1.63,0-1.63-1.79-1.85-4.81-2.52-3.25-.7-6.83-1.89-6.83-5.85,0-3.44,2.99-6.07,8.36-6.07,6.12,0,8.51,3.07,8.7,6.4h-5.6c-.19-1.52-1.01-2.33-2.95-2.33-1.68,0-2.54.59-2.54,1.52,0,1.33,1.19,1.37,4.14,2,3.77.81,7.5,2.07,7.5,6.36Z"/>
    <path class="cls-2" d="M390.78,217.99l-1.72,5.51h-6.72l9.67-26.46h6.72l9.63,26.46h-6.72l-1.72-5.51h-9.14ZM398.43,212.92l-3.02-9.77h-.07l-3.02,9.77h6.12Z"/>
    <path class="cls-2" d="M431.13,214.03c0,6.22-3.25,10.06-8.32,10.06-2.76,0-4.78-1.48-5.52-2.48h-.07v8.44h-5.97v-25.49h5.97v1.89h.07c.75-1,2.76-2.48,5.52-2.48,5.08,0,8.32,3.85,8.32,10.06ZM425.15,214.03c0-3.7-1.49-5.62-3.92-5.62s-3.92,1.92-3.92,5.62,1.49,5.62,3.92,5.62,3.92-1.92,3.92-5.62Z"/>
    <path class="cls-2" d="M454.61,214.03c0,6.22-3.25,10.06-8.32,10.06-2.76,0-4.78-1.48-5.52-2.48h-.07v8.44h-5.97v-25.49h5.97v1.89h.07c.75-1,2.76-2.48,5.52-2.48,5.08,0,8.32,3.85,8.32,10.06ZM448.63,214.03c0-3.7-1.49-5.62-3.92-5.62s-3.92,1.92-3.92,5.62,1.49,5.62,3.92,5.62,3.92-1.92,3.92-5.62Z"/>
    <path class="cls-2" d="M464.2,197.05v26.46h-5.97v-26.46h5.97Z"/>
    <path class="cls-2" d="M468.34,199.67c0-1.7,1.31-2.63,2.99-2.63s2.99.93,2.99,2.63-1.31,2.63-2.99,2.63-2.99-.89-2.99-2.63ZM474.32,204.56v18.95h-5.97v-18.95h5.97Z"/>
    <path class="cls-2" d="M497.79,204.56v25.49h-5.97v-8.44h-.07c-.75,1-2.76,2.48-5.52,2.48-5.08,0-8.32-3.85-8.32-10.06s3.25-10.06,8.32-10.06c2.76,0,4.78,1.48,5.52,2.48h.07v-1.89h5.97ZM491.71,214.03c0-3.7-1.49-5.62-3.92-5.62s-3.92,1.92-3.92,5.62,1.49,5.62,3.92,5.62,3.92-1.92,3.92-5.62Z"/>
    <path class="cls-2" d="M520.45,204.56v18.95h-5.97v-2.74h-.07c-1.01,1.74-2.87,3.33-6.27,3.33-3.7,0-6.2-2.41-6.2-6.73v-12.8h5.97v10.92c0,2.85,1.01,3.81,2.99,3.81,2.28,0,3.58-1.15,3.58-3.77v-10.95h5.97Z"/>
    <path class="cls-2" d="M537.36,217.77h5.93c-1.04,3.81-4.03,6.33-9.22,6.33-6.34,0-10.19-4.14-10.19-10.06s3.77-10.06,9.85-10.06c6.53,0,9.85,4.74,9.85,11.62h-13.74c0,2.66,1.98,4.07,4.11,4.07s3.02-.96,3.4-1.89ZM529.86,212h7.76c0-2.63-1.6-3.96-3.88-3.96s-3.88,1.33-3.88,3.96ZM535.91,202.04h-4.48l1.6-5.18h6.72l-3.84,5.18Z"/>
    <path class="cls-2" d="M563.86,217.92c0,4-3.06,6.18-8.36,6.18-6.83,0-9.44-3.03-9.63-6.88h5.6c.19,1.89,1.46,2.81,3.81,2.81,1.68,0,2.61-.56,2.61-1.63,0-1.63-1.79-1.85-4.81-2.52-3.25-.7-6.83-1.89-6.83-5.85,0-3.44,2.99-6.07,8.36-6.07,6.12,0,8.51,3.07,8.7,6.4h-5.6c-.19-1.52-1.01-2.33-2.95-2.33-1.68,0-2.54.59-2.54,1.52,0,1.33,1.19,1.37,4.14,2,3.77.81,7.5,2.07,7.5,6.36Z"/>
    <path class="cls-2" d="M575.33,197.05h12.95c5.56,0,9.03,2.89,9.03,8.44s-3.47,8.44-9.03,8.44h-6.23v9.58h-6.72v-26.46ZM582.04,208.48h4.81c2.31,0,3.73-.78,3.73-3s-1.42-3-3.73-3h-4.81v5.99Z"/>
    <path class="cls-2" d="M613.03,204.37v5.18h-.07c-3.06-.55-6.31,1.11-6.31,5.14v8.81h-5.97v-18.95h5.97v3.11h.07c.93-2.11,2.58-3.44,4.67-3.44.52,0,.97,0,1.64.15Z"/>
    <path class="cls-2" d="M616.35,199.67c0-1.7,1.31-2.63,2.99-2.63s2.99.93,2.99,2.63-1.31,2.63-2.99,2.63-2.99-.89-2.99-2.63ZM622.32,204.56v18.95h-5.97v-18.95h5.97Z"/>
    <path class="cls-2" d="M631.02,204.56l3.88,12.36h.08l3.88-12.36h5.97l-6.61,18.95h-6.57l-6.61-18.95h5.97Z"/>
    <path class="cls-2" d="M659.42,217.77h5.93c-1.04,3.81-4.03,6.33-9.22,6.33-6.34,0-10.19-4.14-10.19-10.06s3.77-10.06,9.85-10.06c6.53,0,9.85,4.74,9.85,11.62h-13.74c0,2.66,1.98,4.07,4.11,4.07s3.02-.96,3.4-1.89ZM651.92,212h7.76c0-2.63-1.6-3.96-3.88-3.96s-3.88,1.33-3.88,3.96ZM657.97,202.04h-4.48l1.6-5.18h6.72l-3.84,5.18Z"/>
    <path class="cls-2" d="M681.71,217.77h5.93c-1.04,3.81-4.03,6.33-9.22,6.33-6.34,0-10.19-4.14-10.19-10.06s3.77-10.06,9.85-10.06c6.53,0,9.85,4.74,9.85,11.62h-13.73c0,2.66,1.98,4.07,4.11,4.07s3.02-.96,3.4-1.89ZM674.21,212h7.76c0-2.63-1.6-3.96-3.88-3.96s-3.88,1.33-3.88,3.96Z"/>
  </g>
  <path class="cls-1" d="M543.45,102.99l-.25-.63-36.8-93.1h-32.15l-64.35,159.94h34.92l.82-.28,3.81-10.08,3.82-9.81,3.81-10.08,2.18-4.63,4.64-.27h56.67l.81,1.63,2.73,6.81,3.81,10.09,3.55,8.99,2.72,7.35.82.28h34.6l-26.16-66.21ZM508.31,101.63l-.55.27h-15.8l-20.44-.27.28-1.37,3.54-9.81,2.72-6.81,4.09-10.62,3-7.63,2.99-7.36,1.64-4.36.82,1.09,1.63,4.63,3,7.36,2.72,7.08,3.27,8.45,2.18,5.45,2.73,7.08,2.18,6v.82Z"/>
  <polygon class="cls-1" points="292.17 88.66 289.54 84.46 288.66 83.03 292.17 88.66"/>
  <polygon class="cls-1" points="297.95 97.95 296.63 95.9 293.95 91.53 297.95 97.95"/>
  <polygon class="cls-1" points="311.62 119.89 310.52 118.24 306.98 112.52 302.89 105.98 301.16 103.1 311.62 119.89"/>
  <polygon class="cls-1" points="320.11 133.51 320.06 133.5 318.42 131.05 315.39 125.94 320.11 133.51"/>
  <polygon class="cls-1" points="350.58 87.37 350.03 88.27 346.49 93.99 342.67 99.99 338.59 106.53 335.04 112.25 330.96 118.79 327.96 123.42 324.96 128.32 321.97 132.96 321.7 133.23 350.58 87.37"/>
  <rect class="cls-1" x="198.81" y="9.53" width="34.06" height="159.39"/>
  <g>
    <path class="cls-1" d="M55.01,76.75c4.93-4.47,9.89-8.91,14.77-13.42,8.39-7.75,17-15.23,26-22.27,2.2-1.72,2.71-3.87.71-6.25-1.85-2.21-3.42-2.03-5.6-.17-5.3,4.51-11.01,8.53-16.23,13.12-8.75,7.69-17.27,15.65-25.85,23.54-8.49,7.81-10.93,17.43-8.05,28.43.61,2.33,1.36,4.61,4.23,5.88,3.39,1.5,5.37,5.29,4.25,8.56-2.17,6.33,1.59,10.86,3.48,15.95,2.29,6.15,4.87,12.33,5.43,18.79.59,6.82-1.03,13.54-6.71,18.42-3.11,2.67-6.74,1.19-10.14,1.15-1.13-.02-2.3-.91-3.67-.89-4.63.07-5.3-2.9-3.64-6.08,4.95-9.5,5.84-19.58,5.39-30-.15-3.49-.9-6.04-4.27-8.17-5.94-3.75-7.34-8.08-4.48-14.13,1.58-3.35,1.24-6.44.58-9.42-1.31-5.91-1.31-11.76-.04-17.54.64-2.9-.33-3.21-2.62-3.19-5.41.04-10.83-.11-16.24.06-2.63.08-4.54-1-5.26-3.21-.65-2-.13-3.71,2.04-5.49,18-14.74,36.26-29.15,54.68-43.36,5.8-4.47,11.63-8.95,17.09-13.83,3.33-2.97,7.13-3.6,11.11-3.61,29.11-.09,58.23-.05,87.34-.05,2.37,0,4.86-.52,5.84,2.77.79,2.67-.75,4.14-2.38,5.49-8.5,7-17,13.98-25.63,20.82-13.19,10.46-26.71,20.52-39.63,31.3-6.34,5.3-12.45,8.72-21.21,8.2-13.39-.8-26.86-.21-40.3-.21-.35-.4-.69-.79-1.04-1.19Z"/>
    <path class="cls-1" d="M79.99,88.02c8.04-.83,17.84.98,27.65-.93,7.24-1.41,11.4-7.04,16.71-10.95,11.49-8.46,22.42-17.67,33.54-26.62,2.19-1.76,3.66-1.64,4.58,1.2,2.62,8.11,5.71,16.09,7.75,24.34,1.46,5.89-1.66,11.11-5.33,15.55-8.12,9.83-18.77,16.47-30.05,21.82-12.3,5.83-25.23,10.29-38.8,12.17-9.96,1.38-20.01,1.86-29.9-.81-3.23-.87-4.96-2.84-4.35-6.52,1.16-7.06-1.5-13.23-7.77-16.17-4.86-2.28-4.71-6.73-5.45-10.56-.52-2.67,2.49-2.54,4.53-2.54,8.39,0,16.78,0,26.9,0Z"/>
  </g>
  <polygon class="cls-1" points="364.47 168.92 362.33 168.92 362.33 85.12 362.56 168.65 364.47 168.92"/>
  <polygon class="cls-1" points="396.35 168.65 396.35 168.92 396.07 168.92 396.35 168.65"/>
  <polygon class="cls-1" points="246.49 9.53 246.22 9.8 246.22 9.53 246.49 9.53"/>
  <polygon class="cls-1" points="279.73 168.65 279.73 169.2 246.22 169.2 246.22 168.65 246.49 168.92 279.19 168.92 279.73 168.65"/>
  <polygon class="cls-1" points="288.66 83.03 286.57 79.67 287.36 80.92 288.66 83.03"/>
  <polygon class="cls-1" points="301.16 103.1 297.95 97.95 299.62 100.53 301.16 103.1"/>
  <polygon class="cls-1" points="315.39 125.94 311.62 119.89 313.25 122.33 315.39 125.94"/>
  <polygon class="cls-1" points="396.35 9.53 396.35 168.65 396.07 168.92 364.47 168.92 362.56 168.65 362.33 85.12 362.29 68.93 362.02 69.2 350.58 87.37 321.7 133.23 320.81 134.64 320.11 133.51 315.39 125.94 313.25 122.33 311.62 119.89 301.16 103.1 299.62 100.53 297.95 97.95 293.95 91.53 292.17 88.66 288.66 83.03 287.36 80.92 286.57 79.67 279.73 68.7 279.73 168.65 279.19 168.92 246.49 168.92 246.22 168.65 246.22 9.8 246.49 9.53 281.76 9.53 296.81 34.44 296.9 34.6 321.42 75.19 330.41 59.94 333.34 54.96 334.23 53.4 335.81 50.77 357.81 13.42 360.1 9.53 396.35 9.53"/>
</svg>