<?xml version="1.0" encoding="UTF-8"?>
<svg id="Calque_1" data-name="Calque 1" xmlns="http://www.w3.org/2000/svg" viewBox="0 0 907.93 402.71">
  <defs>
    <style>
      .cls-1 {
        opacity: .5;
      }

      .cls-2 {
        fill: none;
      }

      .cls-2, .cls-3, .cls-4 {
        stroke-width: 0px;
      }

      .cls-3 {
        fill: #fff;
      }

      .cls-4 {
        fill: #ea5e5a;
      }
    </style>
  </defs>
  <g class="cls-1">
    <line class="cls-2" x1="935.1" y1="365.19" x2="-19.33" y2="368.01"/>
    <rect class="cls-3" x="-19.35" y="366.5" width="954.44" height=".25" transform="translate(-1.4 1.76) rotate(-.22)"/>
  </g>
  <g class="cls-1">
    <line class="cls-2" x1="938.05" y1="325.94" x2="-16.38" y2="328.76"/>
    <rect class="cls-3" x="-16.4" y="327.26" width="954.44" height=".25" transform="translate(-1.25 1.77) rotate(-.22)"/>
  </g>
  <g class="cls-1">
    <line class="cls-2" x1="923.11" y1="224.78" x2="-31.32" y2="227.6"/>
    <rect class="cls-3" x="-31.34" y="226.1" width="954.44" height=".25" transform="translate(-.87 1.71) rotate(-.22)"/>
  </g>
  <g class="cls-1">
    <line class="cls-2" x1="179.86" y1="-278.94" x2="182.68" y2="675.49"/>
    <rect class="cls-3" x="181.18" y="-278.93" width=".25" height="954.44" transform="translate(-.76 .7) rotate(-.22)"/>
  </g>
  <g class="cls-1">
    <line class="cls-2" x1="134.04" y1="-275.49" x2="136.86" y2="678.94"/>
    <rect class="cls-3" x="135.35" y="-275.48" width=".25" height="954.44" transform="translate(-.77 .52) rotate(-.22)"/>
  </g>
  <g class="cls-1">
    <line class="cls-2" x1="700.11" y1="-241.66" x2="702.93" y2="712.77"/>
    <rect class="cls-3" x="701.43" y="-241.65" width=".25" height="954.44" transform="translate(-.9 2.7) rotate(-.22)"/>
  </g>
  <g class="cls-1">
    <line class="cls-2" x1="747.45" y1="-237.54" x2="750.27" y2="716.89"/>
    <rect class="cls-3" x="748.77" y="-237.53" width=".25" height="954.44" transform="translate(-.91 2.88) rotate(-.22)"/>
  </g>
  <g class="cls-1">
    <line class="cls-2" x1="924.18" y1="35.05" x2="-30.25" y2="37.87"/>
    <rect class="cls-3" x="-30.27" y="36.37" width="954.44" height=".25" transform="translate(-.14 1.72) rotate(-.22)"/>
  </g>
  <g>
    <path class="cls-4" d="M491.77,90.64c-1.33,6.87-3.85,12.59-8.42,17.32-.29.43-.55.9-1.43.82.39-.49.72-.88,1.05-1.29,2.75-4.82,4.51-10,5.37-15.48,1.8-11.6-1.31-22.12-7.11-32.04-.27-.45-.45-1.11-1.27-.98,6.13,13.08,4.92,26.59,1.43,32.02,5.64-27.59-16.07-49.19-34.42-51.65,11.4,4.98,18.75,13.28,21.85,25.19,2.36,9.1,2.44,18.12-1.05,26.97-1.25,1.99-2.03,4.26-3.71,5.96-.35.72-.7,1.43-1.89,1.74.57-.88,1.02-1.54,1.46-2.21,1.31-2.83,2.66-5.64,3.3-8.73,2.64-10.31-.23-19.14-7.32-26.81l-.7-.7.37,1.05s1.19,3.24,1.68,4.9c1.5,5.27.72,10.41-.82,15.54-2.19,5.17-5.06,9.88-8.85,14.04-3.22,2.97-6.78,5.41-10.97,8.01,2.23-5.64,3.81-10.82,2.48-16.4.06-.59-.1-1.11-.37-1.62.06-.45-.02-.86-.37-1.21-2.23-7.58-7.77-10.88-15.33-11.58,3.83-3.03,5.06-8.06,3.3-13.9-.12,4.28-1.31,7.73-4.94,10.39v-3.53c-1.6,2.95-4.14,4.61-6.87,6.11-1.17.64-2.3,1.41-3.28,2.3-2.5,2.19-3.92,5-3.3,8.36.27,1.46.35,2.83.18,4.26-.66,2.64.27,4.84,2.79,6.44-.59-2.62.86-4.45,2.11-6.35,0,0,.02-.02.02-.04.41-.23.82-.47,1.23-.68,1.78-.86,3.65-1.17,5.33.08,1.6,1.21,1.48,2.93,1.11,4.76-.64,3.18-2.79,5.39-4.69,7.75-7.58,9.35-11.75,19.92-11.52,32.04.08,4.88,1.29,9.49,3.98,13.65.21.43.35.88.61,1.25.84,1.27,1.74,2.46,2.71,3.57,5.72,6.78,13.32,10.93,21.87,13.73,1.43.47,1-.55,1.02-1.15,0-.53.02-1.07.06-1.58.45-6.13,3.28-10.99,8.47-14.59,5.21-3.65,11.11-5.96,16.87-8.49,3.53-1.56,7.05-3.01,10.13-5.35.35-.25.68-.51,1-.78.08-.06.16-.12.25-.16.66-.49,1.37-.94,1.99-1.48,7.46-6.48,12.3-14.55,14.27-24.27.98-4.86,1.35-9.78.35-15.21ZM415.46,82.56c-.66-2.15.33-3.73,1.87-5.23.27,2.09.76,4.14-1.87,5.23Z"/>
    <path class="cls-4" d="M430.16,222.63c-2.08-1.1-4.02-2.4-5.81-3.93-5.66-4.86-7.43-11.45-5.07-18.51,1.31-3.94,3.32-7.53,5.28-11.15,1.33-2.46,2.21-4.99,2-7.85-.49-6.72-4.21-11.66-8.81-16.37-1.95,4.02-3.5,5.9-6.68,8.24-2.5,1.84-5.24,3.24-8.11,4.36-1.19.47-1.1.79-.29,1.58,1.83,1.79,3.83,3.35,6.01,4.68,4.55,2.79,5.63,2.54,8.46-2.12.86-1.42,1.46-2.99,2.32-4.78.24,3.96-.3,7.34-1.88,10.67-2.81,5.91-4.64,12.07-3.73,18.79,1.16,8.53,8.84,16.37,17.26,17.43.15-.78-.52-.82-.95-1.05Z"/>
    <path class="cls-4" d="M455,177.92c-2.19,2.48-4.61,4.28-7.17,5.92-.86.55-1.19-.29-1.62-.72-2.75-2.83-5.47-5.7-8.22-8.55-.31-.31-.66-.61-1.29-1.21.7,2.09,1.48,3.71,1.76,5.47.98,5.94-1.23,10.62-5.72,14.39-1.95,1.62-3.98,3.18-5.66,5.1-3.1,3.57-5.17,7.5-4.47,12.48-1.25-1.93-1.23-4.06-.92-6.17.66-4.59,2.36-8.85,4.82-12.69,4.14-6.4,3.81-12.85.98-19.51-.31-.72-.76-1.37-1.15-2.07-3.83-5.53-9.33-9.63-13.41-14.92-1.33-1.76-2.77-3.4-4.24-4.98-.39-.41-.8-.82-1.21-1.21-6.07-6.05-13.18-10.7-20.85-14.72-1.23-.64-2.46-1.33-3.46-2.34-3.69-2.42-6.64-5.58-9.29-9.04-6.78-8.92-9.2-19.1-8.57-30.15,0-.33.08-.66.14-.98.04-.27.12-.51.31-1.17.78,3.61,1.72,6.78,3.24,9.78,1.52,2.95,3.46,5.6,5.88,8.01-9.57-16.83-8.04-33.19,1.91-49.21-3.98,10.19-5.27,20.5-1.23,31.05-2.34-11.81.55-22.59,6.85-32.41,6.37-9.98,15.89-15.82,27.08-19.04.1.14.18.29.29.43-1.66.92-3.38,1.78-5,2.77-10.58,6.5-15.8,16.3-17.46,28.31-1.07,7.79-.37,15.33,2.97,22.55,1.13,1.54,1.8,3.38,3.2,4.71.18.29.35.55.51.82.33-.43.29-.82-.1-1.19-1.91-4.2-4-8.34-4.16-13.08-.33-.66-.39-1.37-.29-2.09.02-.8.02-1.6.02-2.4.35-7.32,3.48-13.32,8.59-18.45-2.23,4.88-2.77,9.98-2.3,15.23,1.35,6.7,4.39,12.61,8.75,17.85.37.45.72.92,1.07,1.37,2.23,1.97,4.37,4.08,7.01,5.51,1.07.59.88,1.19.37,2.07-4.26,7.24-6.8,15-7.71,23.37-.39,3.71.25,7.3.57,10.95,1.19,4.26,2.97,8.12,5.43,11.6.41.64.88,1.25,1.35,1.84,1.37,1.72,2.93,3.36,4.67,4.88,2.56,2.25,5.27,4.26,8.12,5.99.35.39.68.8,1,1.23,2.95,3.73,5.45,6.46,7.52,8.2,2.05,1.72,4.49,2.6,7.32,2.6,1.6,0,3.03-.35,4.26-1.07,2.77,2.11,5.92,3.69,9.49,4.86Z"/>
    <path class="cls-4" d="M458.48,171.4c.08,1.29-.51,2.13-.88,3.05-.55,1.39-1.43,1.82-2.99,1.35-2.79-.86-5.27-2.19-7.65-3.79.41-.39.82-.82,1.19-1.31.9.29,1.8.55,2.75.72,2.52.45,5.02.55,7.58-.02Z"/>
    <path class="cls-4" d="M412.12,169.92c.28-.3.83-.58.3-1.17-4.36,2.11-8.76,4.05-13.8,2.78h.03c-.38.8.13,1.44.39,2.09,1.05,2.64,1.33,2.75,4.03,1.98,3.57-1.02,6.55-2.97,9.06-5.68Z"/>
    <path class="cls-4" d="M429.72,72.07c5.07-1.61,6.57-13.07-1.24-20.29,2.73,6.75,5.2,13.32,1.24,20.29Z"/>
    <path class="cls-4" d="M398.62,171.53l-.04-.02s.04.02.04.02Z"/>
    <polygon class="cls-4" points="398.62 171.53 398.65 171.54 398.62 171.53 398.62 171.53"/>
  </g>
  <g>
    <path class="cls-4" d="M252.85,250.93h-15.43c-.2,0-.3.1-.3.3v.15c0,.2.1.3.3.3,1.61.1,3.15.6,4.61,1.51,1.46.91,2.19,2.22,2.19,3.93,0,.4-.2,1.31-.61,2.72l-22.24,57.8-21.64-57.5c-.4-.91-.6-1.87-.6-2.88,0-1.82.73-3.18,2.19-4.09,1.46-.91,3.05-1.41,4.77-1.51.2,0,.3-.1.3-.3v-.15c0-.2-.1-.3-.3-.3h-23.91c-.2,0-.3.1-.3.3v.15c0,.2.1.3.3.3,3.53.2,6.35,2.98,8.47,8.32l25.72,66.58h2.42l25.72-66.58c1.11-2.72,2.39-4.77,3.86-6.13,1.46-1.36,2.95-2.09,4.46-2.19.2,0,.3-.1.3-.3v-.15c0-.2-.1-.3-.3-.3Z"/>
    <path class="cls-4" d="M276.02,320.98v-62.79c0-1.61-.53-2.9-1.59-3.86-1.06-.96-2.32-1.66-3.78-2.12-1.46-.45-3.03-.76-4.69-.91-1.66-.15-3.1-.28-4.31-.38,2.42.6,4.16,1.49,5.22,2.65,1.06,1.16,1.59,2.75,1.59,4.77v62.64c0,2.32-.51,3.76-1.51,4.31-1.01.55-2.78.98-5.3,1.29h21.18c-2.52-.3-4.29-.73-5.3-1.29-1.01-.55-1.51-1.99-1.51-4.31Z"/>
    <path class="cls-4" d="M268.33,238.48c1.23.84,2.5,1.55,3.83,2.14,1.33.59,2.48,1.13,3.46,1.62-1.08-.59-1.79-1.27-2.14-2.06-.35-.78-.49-1.62-.44-2.5.05-.88.2-1.77.44-2.65.24-.88.37-1.72.37-2.5,0-1.47-.49-2.7-1.47-3.68-.98-.98-2.21-1.47-3.68-1.47-1.57,0-2.77.47-3.61,1.4-.84.93-1.25,2.04-1.25,3.31,0,1.38.44,2.58,1.33,3.61.88,1.03,1.94,1.97,3.17,2.8Z"/>
    <path class="cls-4" d="M362.46,304.31c-2.74,5.79-6.44,10.4-11.1,13.82-4.66,3.42-10.37,5.14-17.12,5.14-6.18,0-11.66-1.55-16.48-4.63-4.8-3.1-8.52-7.35-11.16-12.79-2.66-5.44-3.97-11.56-3.97-18.31,0-6.38,1.05-12.48,3.16-18.31,2.11-5.83,5.07-10.59,8.9-14.26,3.82-3.67,8.08-5.52,12.79-5.52.45,0,.91.02,1.34.05,1.06.09,2.06.28,2.99.58,1.3.39,2.46,1,3.47,1.8,1.84,1.47,3.96,3.63,6.29,6.49.27.3.52.61.77.94,2.25,2.85,4.16,4.93,5.74,6.25,1.56,1.31,3.42,1.99,5.58,1.99,1.22,0,2.31-.27,3.25-.81.39-.22.77-.48,1.11-.8.31-.3.63-.63.91-1,1.99-2.61,2.97-7.18,2.97-13.71,0-.2-.11-.3-.3-.3h-.14c-.2,0-.3.09-.3.3-.11,1.77-.61,3.46-1.55,5.07-.94,1.63-2.19,2.42-3.75,2.42-1.27,0-2.5-.28-3.67-.88-.2-.11-.42-.22-.66-.33-1.13-.59-2.63-1.41-4.49-2.47-3.24-2.05-6.25-3.64-9.04-4.77-1.24-.5-2.56-.89-3.99-1.16-1.03-.2-2.11-.34-3.24-.44-.83-.06-1.69-.09-2.56-.09h-.31c-6.14.06-11.82,1.85-16.97,5.36-5.24,3.58-9.41,8.38-12.49,14.4-3.1,6.04-4.64,12.48-4.64,19.34s1.63,13.73,4.86,19.7c3.24,5.99,7.79,10.71,13.67,14.2,5.89,3.47,12.6,5.22,20.15,5.22,7.05,0,13.35-2.06,18.89-6.18,5.54-4.13,9.44-9.46,11.7-16.03.09-.2.05-.34-.14-.44-.2-.11-.34-.06-.45.14Z"/>
    <path class="cls-4" d="M411.53,303.16c1.19.79,1.86,2.4,2,4.82.15,2.43-.2,4.95-1.04,7.57-.84,2.62-2.2,4.97-4.08,7.05-1.88,2.08-4.31,3.12-7.27,3.12-3.76,0-6.63-1.9-8.61-5.71-1.98-3.81-2.97-9.57-2.97-17.29v-50.62h18.26v-1.04h-18.26v-9.2c0-1.58-.52-2.84-1.56-3.78-1.04-.94-2.28-1.63-3.71-2.08-1.44-.44-2.97-.74-4.6-.89-1.63-.15-3.04-.27-4.23-.37,2.37.59,4.08,1.46,5.12,2.6,1.04,1.14,1.56,2.7,1.56,4.68v9.05h-8.02v1.04h8.02v53.44c0,6.63,1.63,11.83,4.9,15.59,3.27,3.76,7.72,5.64,13.36,5.64,2.57,0,5-.4,7.27-1.19,2.28-.79,4.23-1.88,5.86-3.27,1.63-1.38,2.92-2.97,3.86-4.75.94-1.78,1.41-3.71,1.41-5.79,0-4.55-2.43-7.42-7.27-8.61Z"/>
    <path class="cls-4" d="M528.83,272.21v-21.21c-.81,0-2.73,1.21-5.76,3.64-2.42,1.92-4.52,3.41-6.29,4.47-1.77,1.06-3.46,1.64-5.08,1.74-.2,0-.3.1-.3.3v.15c0,.2.1.3.3.3,1.01,0,1.89-.17,2.65-.53.76-.35,1.44-.73,2.05-1.14,1.11-.7,2.07-1.06,2.88-1.06.61,0,.98.53,1.14,1.59.15,1.06.23,3.51.23,7.35v45c0,3.13-.15,5.56-.45,7.27-.3,1.72-1.14,3.13-2.5,4.24-1.36,1.11-3.51,1.67-6.44,1.67-.2,0-.3.1-.3.3v.15c0,.2.1.3.3.3h26.97c.2,0,.3-.1.3-.3v-.15c0-.2-.1-.3-.3-.3-2.93,0-5.08-.55-6.44-1.67-1.36-1.11-2.2-2.52-2.5-4.24-.3-1.72-.45-4.14-.45-7.27v-26.82c0-5.25,1.21-10.35,3.64-15.3,2.42-4.95,5.86-8.58,10.3-10.91,3.84-2.02,8.03-3.03,12.58-3.03,3.23,0,6.56.51,10,1.52v-9.7c-6.47,0-13.08,2.35-19.85,7.05-6.77,4.7-12.33,10.23-16.67,16.59Z"/>
    <path class="cls-4" d="M585.97,237.44c1.24.85,2.53,1.56,3.87,2.16,1.34.6,2.51,1.14,3.5,1.64-1.09-.6-1.81-1.29-2.16-2.09-.35-.79-.5-1.64-.45-2.53.05-.89.2-1.79.45-2.68.25-.89.37-1.74.37-2.53,0-1.49-.5-2.73-1.49-3.72-.99-.99-2.24-1.49-3.73-1.49-1.59,0-2.81.47-3.65,1.42-.84.95-1.27,2.06-1.27,3.35,0,1.39.45,2.61,1.34,3.65.89,1.04,1.96,1.99,3.2,2.83Z"/>
    <path class="cls-4" d="M593.75,320.72v-63.36c0-1.63-.54-2.92-1.61-3.89-1.07-.97-2.35-1.68-3.84-2.14-1.48-.46-3.07-.76-4.76-.92-1.69-.15-3.15-.28-4.37-.38,2.46.61,4.22,1.5,5.29,2.67,1.07,1.17,1.61,2.77,1.61,4.81v63.2c0,2.34-.51,3.79-1.53,4.35-1.02.56-2.81.99-5.37,1.3h21.48c-2.56-.3-4.35-.74-5.37-1.3-1.02-.56-1.53-2.01-1.53-4.35Z"/>
    <path class="cls-4" d="M684.18,313.76c-.98,0-1.84.17-2.58.51-.74.34-1.4.71-1.99,1.1-.98.68-1.91,1.02-2.8,1.02-.59,0-.96-.51-1.1-1.54-.15-1.02-.22-3.38-.22-7.09v-36.54c-.49-15.1-6.29-22.66-17.38-22.66-3.93,0-7.61.54-11.05,1.61-3.44,1.07-7.32,2.63-11.64,4.68-2.95,1.27-5.3,2.22-7.07,2.85-1.77.63-3.44.95-5.01.95-1.67,0-2.97-.8-3.9-2.41-.93-1.61-1.45-3.29-1.55-5.04,0-.19-.1-.29-.29-.29h-.15c-.2,0-.29.1-.29.29,0,5.65.76,9.77,2.28,12.35,1.52,2.58,3.8,3.87,6.85,3.87,2.26,0,4.37-.61,6.33-1.83,1.96-1.22,4.61-3.19,7.95-5.92,3.54-3.02,6.65-5.34,9.35-6.94,2.7-1.61,5.67-2.41,8.91-2.41,2.55,0,4.44.61,5.67,1.83,1.23,1.22,2.04,3.05,2.43,5.48.39,2.44.59,5.99.59,10.67-.1,3.31-2.19,6.16-6.26,8.55-4.08,2.39-8.62,3.58-13.62,3.58-5.89,0-11.39,1-16.5,3-5.11,2-9.18,4.82-12.22,8.48-3.05,3.65-4.57,7.92-4.57,12.79,0,6.43,2.33,11.65,7,15.64,4.66,3.99,10.63,5.99,17.89,5.99,4.22,0,7.51-.61,9.87-1.83,2.36-1.22,4.81-2.9,7.36-5.04,1.37-1.27,2.48-2.17,3.31-2.7.83-.53,1.79-.8,2.87-.8,1.57,0,2.77.9,3.61,2.7.83,1.8,1.25,3.58,1.25,5.34.78,0,2.65-1.17,5.6-3.51,2.36-1.85,4.39-3.29,6.11-4.31,1.72-1.02,3.36-1.58,4.93-1.68.2,0,.3-.1.3-.29v-.15c0-.19-.1-.29-.3-.29ZM667.53,316.69c0-1.66-.52-3.43-1.55-5.34-1.03-1.9-2.48-2.85-4.34-2.85-1.47,0-2.75.54-3.83,1.61-1.08,1.07-2.31,2.78-3.68,5.12-1.97,3.22-3.95,5.73-5.96,7.53-2.01,1.8-4.79,2.7-8.32,2.7-4.52,0-8.3-1.9-11.34-5.7-3.04-3.8-4.57-8.82-4.57-15.06,0-4.09,1.03-7.94,3.09-11.55,2.06-3.6,4.93-6.5,8.62-8.7,3.68-2.19,7.88-3.29,12.59-3.29,1.57,0,3.83.39,6.78,1.17,2.75.78,4.71,1.17,5.89,1.17,1.67,0,3.07-.56,4.2-1.68,1.13-1.12,1.94-3.04,2.43-5.77v40.64Z"/>
    <g>
      <path class="cls-4" d="M694.09,228.02c-4.12,0-7.46,3.35-7.46,7.46s3.35,7.46,7.46,7.46,7.46-3.35,7.46-7.46-3.35-7.46-7.46-7.46ZM694.09,242.29c-3.76,0-6.81-3.06-6.81-6.81s3.06-6.81,6.81-6.81,6.81,3.06,6.81,6.81-3.06,6.81-6.81,6.81Z"/>
      <path class="cls-4" d="M696.28,235.91c.48-.47.71-1.13.71-1.97,0-.8-.24-1.41-.71-1.84-.48-.43-1.15-.65-2.02-.65h-2.89v8.23h1.38v-3.06h1.51s.04,0,.06,0l1.32,3.07h1.65l-1.6-3.37c.22-.11.42-.23.59-.4ZM692.74,232.73h1.51c.4,0,.71.11.93.34.22.23.33.55.33.98s-.11.72-.33.94c-.22.22-.53.34-.93.34h-1.51v-2.6Z"/>
    </g>
    <path class="cls-4" d="M484.02,253.8c-5.6-3.48-11.73-5.23-18.41-5.23s-12.84,1.75-18.48,5.23c-5.65,3.49-10.11,8.22-13.4,14.21-3.29,5.99-4.93,12.57-4.93,19.74s1.64,13.62,4.93,19.66c3.29,6.04,7.76,10.8,13.4,14.29,5.64,3.49,11.81,5.23,18.48,5.23s12.69-1.77,18.34-5.3c5.65-3.53,10.11-8.3,13.4-14.29,3.29-5.99,4.93-12.52,4.93-19.59s-1.65-13.75-4.93-19.74c-3.29-5.99-7.73-10.73-13.33-14.21ZM489.84,307.12c-2.5,5.84-5.89,10.46-10.16,13.85-4.27,3.39-8.96,5.08-14.07,5.08s-9.79-1.69-14.07-5.08c-4.27-3.39-7.66-8-10.16-13.85-2.5-5.84-3.76-12.35-3.76-19.52s1.25-13.52,3.76-19.37c2.5-5.84,5.89-10.46,10.16-13.85,4.27-3.39,8.96-5.08,14.07-5.08s9.79,1.69,14.07,5.08c4.27,3.39,7.66,8,10.16,13.85,2.5,5.84,3.76,12.3,3.76,19.37s-1.25,13.67-3.76,19.52Z"/>
  </g>
</svg>