<?xml version="1.0" encoding="UTF-8"?>
<svg id="Layer_1" data-name="Layer 1" xmlns="http://www.w3.org/2000/svg" viewBox="0 0 714.13 276.61">
  <defs>
    <style>
      .cls-1 {
        fill: #ee5a2a;
      }

      .cls-1, .cls-2 {
        font-family: KASTROORegular, KASTROO;
        font-size: 907.8px;
      }

      .cls-3 {
        fill: #1e539e;
      }

      .cls-3, .cls-4 {
        stroke-width: 0px;
      }

      .cls-4, .cls-2 {
        fill: #fff;
      }
    </style>
  </defs>
  <g>
    <text class="cls-2" transform="translate(607.38 -79.64)"><tspan x="0" y="0">NEW YEAR</tspan></text>
    <text class="cls-1" transform="translate(595.16 -79.64)"><tspan x="0" y="0">NEW YEAR</tspan></text>
  </g>
  <rect class="cls-4" x="2.06" y="219.75" width="699.94" height="44.37"/>
  <g>
    <path class="cls-3" d="M28.96,226.48v26.46h-6.72v-26.46h6.72Z"/>
    <path class="cls-3" d="M52.14,240.14v12.8h-5.97v-10.92c0-2.85-1.01-3.81-2.99-3.81-2.28,0-3.58,1.15-3.58,3.77v10.95h-5.97v-18.95h5.97v2.74h.07c1.01-1.74,2.87-3.33,6.27-3.33,3.7,0,6.2,2.41,6.2,6.73Z"/>
    <path class="cls-3" d="M73.12,247.35c0,4-3.06,6.18-8.36,6.18-6.83,0-9.44-3.03-9.63-6.88h5.6c.19,1.89,1.46,2.81,3.81,2.81,1.68,0,2.61-.56,2.61-1.63,0-1.63-1.79-1.85-4.81-2.52-3.25-.7-6.83-1.89-6.83-5.85,0-3.44,2.99-6.07,8.36-6.07,6.12,0,8.51,3.07,8.7,6.4h-5.6c-.19-1.52-1.01-2.33-2.95-2.33-1.68,0-2.54.59-2.54,1.52,0,1.33,1.19,1.37,4.14,2,3.77.81,7.5,2.07,7.5,6.36Z"/>
    <path class="cls-3" d="M83.5,238.43v7.84c0,2.15.78,2.15,3.32,2.15v4.44c-1.08.22-2.02.41-3.7.41-4.37,0-5.6-2.29-5.6-6.55v-8.29h-2.65v-4.44h2.65v-5.29h5.97v5.29h3.32v4.44h-3.32Z"/>
    <path class="cls-3" d="M90.4,229.11c0-1.7,1.31-2.63,2.99-2.63s2.99.93,2.99,2.63-1.31,2.63-2.99,2.63-2.99-.89-2.99-2.63ZM96.37,233.99v18.95h-5.97v-18.95h5.97Z"/>
    <path class="cls-3" d="M108.24,238.43v7.84c0,2.15.78,2.15,3.32,2.15v4.44c-1.08.22-2.02.41-3.69.41-4.37,0-5.6-2.29-5.6-6.55v-8.29h-2.65v-4.44h2.65v-5.29h5.97v5.29h3.32v4.44h-3.32Z"/>
    <path class="cls-3" d="M133.51,233.99v18.95h-5.97v-2.74h-.07c-1.01,1.74-2.87,3.33-6.27,3.33-3.69,0-6.2-2.41-6.2-6.73v-12.8h5.97v10.92c0,2.85,1.01,3.81,2.99,3.81,2.28,0,3.58-1.15,3.58-3.77v-10.95h5.97Z"/>
    <path class="cls-3" d="M145.38,238.43v7.84c0,2.15.78,2.15,3.32,2.15v4.44c-1.08.22-2.02.41-3.7.41-4.37,0-5.6-2.29-5.6-6.55v-8.29h-2.65v-4.44h2.65v-5.29h5.97v5.29h3.32v4.44h-3.32Z"/>
    <path class="cls-3" d="M179.05,226.48v26.46h-5.97v-1.89h-.07c-.75,1-2.76,2.48-5.52,2.48-5.08,0-8.32-3.85-8.32-10.06s3.25-10.06,8.32-10.06c2.76,0,4.78,1.48,5.52,2.48h.07v-9.4h5.97ZM172.97,243.47c0-3.7-1.49-5.62-3.92-5.62s-3.92,1.92-3.92,5.62,1.49,5.62,3.92,5.62,3.92-1.92,3.92-5.62Z"/>
    <path class="cls-3" d="M195.96,247.2h5.93c-1.05,3.81-4.03,6.33-9.22,6.33-6.34,0-10.19-4.14-10.19-10.06s3.77-10.06,9.85-10.06c6.53,0,9.85,4.74,9.85,11.62h-13.73c0,2.66,1.98,4.07,4.11,4.07s3.02-.96,3.4-1.89ZM188.46,241.43h7.76c0-2.63-1.6-3.96-3.88-3.96s-3.88,1.33-3.88,3.96Z"/>
    <path class="cls-3" d="M222.47,247.35c0,4-3.06,6.18-8.36,6.18-6.83,0-9.44-3.03-9.63-6.88h5.6c.19,1.89,1.46,2.81,3.81,2.81,1.68,0,2.61-.56,2.61-1.63,0-1.63-1.79-1.85-4.81-2.52-3.25-.7-6.83-1.89-6.83-5.85,0-3.44,2.99-6.07,8.36-6.07,6.12,0,8.51,3.07,8.7,6.4h-5.6c-.19-1.52-1.01-2.33-2.95-2.33-1.68,0-2.54.59-2.54,1.52,0,1.33,1.19,1.37,4.14,2,3.77.81,7.5,2.07,7.5,6.36Z"/>
    <path class="cls-3" d="M233.93,226.48h8.21l5.49,16.87h.07l5.49-16.87h8.21v26.46h-6.34v-16.47h-.08l-4.96,16.47h-4.7l-4.96-16.47h-.08v16.47h-6.34v-26.46Z"/>
    <path class="cls-3" d="M279.05,247.2h5.93c-1.04,3.81-4.03,6.33-9.22,6.33-6.34,0-10.19-4.14-10.19-10.06s3.77-10.06,9.85-10.06c6.53,0,9.85,4.74,9.85,11.62h-13.73c0,2.66,1.98,4.07,4.11,4.07s3.02-.96,3.4-1.89ZM271.55,241.43h7.76c0-2.63-1.6-3.96-3.88-3.96s-3.88,1.33-3.88,3.96ZM277.6,231.48h-4.48l1.6-5.18h6.72l-3.84,5.18Z"/>
    <path class="cls-3" d="M295.93,238.43v7.84c0,2.15.78,2.15,3.32,2.15v4.44c-1.08.22-2.01.41-3.69.41-4.37,0-5.6-2.29-5.6-6.55v-8.29h-2.65v-4.44h2.65v-5.29h5.97v5.29h3.32v4.44h-3.32Z"/>
    <path class="cls-3" d="M302.83,229.11c0-1.7,1.31-2.63,2.99-2.63s2.99.93,2.99,2.63-1.31,2.63-2.99,2.63-2.99-.89-2.99-2.63ZM308.81,233.99v18.95h-5.97v-18.95h5.97Z"/>
    <path class="cls-3" d="M325.71,247.2h5.93c-1.04,3.81-4.03,6.33-9.22,6.33-6.34,0-10.19-4.14-10.19-10.06s3.77-10.06,9.85-10.06c6.53,0,9.85,4.74,9.85,11.62h-13.73c0,2.66,1.98,4.07,4.11,4.07s3.02-.96,3.4-1.89ZM318.21,241.43h7.76c0-2.63-1.6-3.96-3.88-3.96s-3.88,1.33-3.88,3.96Z"/>
    <path class="cls-3" d="M347.74,233.81v5.18h-.08c-3.06-.55-6.31,1.11-6.31,5.14v8.81h-5.97v-18.95h5.97v3.11h.07c.93-2.11,2.58-3.44,4.67-3.44.52,0,.97,0,1.64.15Z"/>
    <path class="cls-3" d="M367.89,247.35c0,4-3.06,6.18-8.36,6.18-6.83,0-9.44-3.03-9.63-6.88h5.6c.19,1.89,1.46,2.81,3.81,2.81,1.68,0,2.61-.56,2.61-1.63,0-1.63-1.79-1.85-4.81-2.52-3.25-.7-6.83-1.89-6.83-5.85,0-3.44,2.99-6.07,8.36-6.07,6.12,0,8.51,3.07,8.7,6.4h-5.6c-.19-1.52-1.01-2.33-2.95-2.33-1.68,0-2.54.59-2.54,1.52,0,1.33,1.19,1.37,4.14,2,3.77.81,7.5,2.07,7.5,6.36Z"/>
    <path class="cls-3" d="M385.92,247.43l-1.72,5.51h-6.72l9.67-26.46h6.72l9.63,26.46h-6.72l-1.72-5.51h-9.14ZM393.58,242.36l-3.02-9.77h-.07l-3.02,9.77h6.12Z"/>
    <path class="cls-3" d="M426.27,243.47c0,6.22-3.25,10.06-8.32,10.06-2.76,0-4.78-1.48-5.52-2.48h-.07v8.44h-5.97v-25.49h5.97v1.89h.07c.75-1,2.76-2.48,5.52-2.48,5.08,0,8.32,3.85,8.32,10.06ZM420.3,243.47c0-3.7-1.49-5.62-3.92-5.62s-3.92,1.92-3.92,5.62,1.49,5.62,3.92,5.62,3.92-1.92,3.92-5.62Z"/>
    <path class="cls-3" d="M449.75,243.47c0,6.22-3.25,10.06-8.32,10.06-2.76,0-4.78-1.48-5.52-2.48h-.07v8.44h-5.97v-25.49h5.97v1.89h.07c.75-1,2.76-2.48,5.52-2.48,5.08,0,8.32,3.85,8.32,10.06ZM443.78,243.47c0-3.7-1.49-5.62-3.92-5.62s-3.92,1.92-3.92,5.62,1.49,5.62,3.92,5.62,3.92-1.92,3.92-5.62Z"/>
    <path class="cls-3" d="M459.35,226.48v26.46h-5.97v-26.46h5.97Z"/>
    <path class="cls-3" d="M463.49,229.11c0-1.7,1.31-2.63,2.99-2.63s2.99.93,2.99,2.63-1.31,2.63-2.99,2.63-2.99-.89-2.99-2.63ZM469.46,233.99v18.95h-5.97v-18.95h5.97Z"/>
    <path class="cls-3" d="M492.94,233.99v25.49h-5.97v-8.44h-.07c-.75,1-2.76,2.48-5.52,2.48-5.08,0-8.32-3.85-8.32-10.06s3.25-10.06,8.32-10.06c2.76,0,4.78,1.48,5.52,2.48h.07v-1.89h5.97ZM486.86,243.47c0-3.7-1.49-5.62-3.92-5.62s-3.92,1.92-3.92,5.62,1.49,5.62,3.92,5.62,3.92-1.92,3.92-5.62Z"/>
    <path class="cls-3" d="M515.6,233.99v18.95h-5.97v-2.74h-.07c-1.01,1.74-2.87,3.33-6.27,3.33-3.7,0-6.2-2.41-6.2-6.73v-12.8h5.97v10.92c0,2.85,1.01,3.81,2.99,3.81,2.28,0,3.58-1.15,3.58-3.77v-10.95h5.97Z"/>
    <path class="cls-3" d="M532.51,247.2h5.93c-1.04,3.81-4.03,6.33-9.22,6.33-6.34,0-10.19-4.14-10.19-10.06s3.77-10.06,9.85-10.06c6.53,0,9.85,4.74,9.85,11.62h-13.74c0,2.66,1.98,4.07,4.11,4.07s3.02-.96,3.4-1.89ZM525.01,241.43h7.76c0-2.63-1.6-3.96-3.88-3.96s-3.88,1.33-3.88,3.96ZM531.05,231.48h-4.48l1.6-5.18h6.72l-3.84,5.18Z"/>
    <path class="cls-3" d="M559.01,247.35c0,4-3.06,6.18-8.36,6.18-6.83,0-9.44-3.03-9.63-6.88h5.6c.19,1.89,1.46,2.81,3.81,2.81,1.68,0,2.61-.56,2.61-1.63,0-1.63-1.79-1.85-4.81-2.52-3.25-.7-6.83-1.89-6.83-5.85,0-3.44,2.99-6.07,8.36-6.07,6.12,0,8.51,3.07,8.7,6.4h-5.6c-.19-1.52-1.01-2.33-2.95-2.33-1.68,0-2.54.59-2.54,1.52,0,1.33,1.19,1.37,4.14,2,3.77.81,7.5,2.07,7.5,6.36Z"/>
    <path class="cls-3" d="M570.47,226.48h12.95c5.56,0,9.03,2.89,9.03,8.44s-3.47,8.44-9.03,8.44h-6.23v9.58h-6.72v-26.46ZM577.19,237.92h4.81c2.31,0,3.73-.78,3.73-3s-1.42-3-3.73-3h-4.81v5.99Z"/>
    <path class="cls-3" d="M608.17,233.81v5.18h-.07c-3.06-.55-6.31,1.11-6.31,5.14v8.81h-5.97v-18.95h5.97v3.11h.07c.93-2.11,2.58-3.44,4.67-3.44.52,0,.97,0,1.64.15Z"/>
    <path class="cls-3" d="M611.5,229.11c0-1.7,1.31-2.63,2.99-2.63s2.99.93,2.99,2.63-1.31,2.63-2.99,2.63-2.99-.89-2.99-2.63ZM617.47,233.99v18.95h-5.97v-18.95h5.97Z"/>
    <path class="cls-3" d="M626.17,233.99l3.88,12.36h.08l3.88-12.36h5.97l-6.61,18.95h-6.57l-6.61-18.95h5.97Z"/>
    <path class="cls-3" d="M654.57,247.2h5.93c-1.04,3.81-4.03,6.33-9.22,6.33-6.34,0-10.19-4.14-10.19-10.06s3.77-10.06,9.85-10.06c6.53,0,9.85,4.74,9.85,11.62h-13.74c0,2.66,1.98,4.07,4.11,4.07s3.02-.96,3.4-1.89ZM647.07,241.43h7.76c0-2.63-1.6-3.96-3.88-3.96s-3.88,1.33-3.88,3.96ZM653.12,231.48h-4.48l1.6-5.18h6.72l-3.84,5.18Z"/>
    <path class="cls-3" d="M676.86,247.2h5.93c-1.04,3.81-4.03,6.33-9.22,6.33-6.34,0-10.19-4.14-10.19-10.06s3.77-10.06,9.85-10.06c6.53,0,9.85,4.74,9.85,11.62h-13.73c0,2.66,1.98,4.07,4.11,4.07s3.02-.96,3.4-1.89ZM669.36,241.43h7.76c0-2.63-1.6-3.96-3.88-3.96s-3.88,1.33-3.88,3.96Z"/>
  </g>
  <path class="cls-4" d="M606.17,139.17v56.03h-32.77V36.17h62.04c11.94,0,22.45,2.18,31.51,6.55,9.07,4.37,16.04,10.58,20.92,18.62,4.88,8.05,7.32,17.2,7.32,27.47,0,15.58-5.33,27.87-16,36.86-10.67,8.99-25.43,13.49-44.29,13.49h-28.73ZM606.17,112.63h29.27c8.66,0,15.27-2.04,19.82-6.12,4.55-4.08,6.83-9.9,6.83-17.48s-2.29-14.09-6.88-18.9c-4.59-4.81-10.92-7.28-19-7.43h-30.04v49.91Z"/>
  <path class="cls-4" d="M531.88,129.59l-.25-.63-36.8-93.1h-32.15l-64.35,159.94h34.92l.82-.28,3.81-10.08,3.82-9.81,3.81-10.08,2.18-4.63,4.64-.27h56.67l.81,1.63,2.73,6.81,3.81,10.09,3.55,8.99,2.72,7.35.82.28h34.6l-26.16-66.21ZM496.74,128.23l-.55.27h-15.8l-20.44-.27.28-1.37,3.54-9.81,2.72-6.81,4.09-10.62,3-7.63,2.99-7.36,1.64-4.36.82,1.09,1.63,4.63,3,7.36,2.72,7.08,3.27,8.45,2.18,5.45,2.73,7.08,2.18,6v.82Z"/>
  <polygon class="cls-4" points="280.6 115.26 277.97 111.06 277.09 109.63 280.6 115.26"/>
  <polygon class="cls-4" points="286.38 124.55 285.06 122.5 282.38 118.13 286.38 124.55"/>
  <polygon class="cls-4" points="300.05 146.49 298.95 144.84 295.41 139.12 291.32 132.58 289.59 129.7 300.05 146.49"/>
  <polygon class="cls-4" points="308.54 160.11 308.49 160.1 306.85 157.65 303.82 152.54 308.54 160.11"/>
  <polygon class="cls-4" points="339.01 113.97 338.46 114.87 334.92 120.59 331.1 126.59 327.02 133.13 323.47 138.85 319.39 145.39 316.39 150.02 313.39 154.92 310.4 159.56 310.13 159.83 339.01 113.97"/>
  <rect class="cls-4" x="187.24" y="36.13" width="34.06" height="159.39"/>
  <g>
    <path class="cls-4" d="M43.44,103.34c4.93-4.47,9.89-8.91,14.77-13.42,8.39-7.75,17-15.23,26-22.27,2.2-1.72,2.71-3.87.71-6.25-1.85-2.21-3.42-2.03-5.6-.17-5.3,4.51-11.01,8.53-16.23,13.12-8.75,7.69-17.27,15.65-25.85,23.54-8.49,7.81-10.93,17.43-8.05,28.43.61,2.33,1.36,4.61,4.23,5.88,3.39,1.5,5.37,5.29,4.25,8.56-2.17,6.33,1.59,10.86,3.48,15.95,2.29,6.15,4.87,12.33,5.43,18.79.59,6.82-1.03,13.54-6.71,18.42-3.11,2.67-6.74,1.19-10.14,1.15-1.13-.02-2.3-.91-3.67-.89-4.63.07-5.3-2.9-3.64-6.08,4.95-9.5,5.84-19.58,5.39-30-.15-3.49-.9-6.04-4.27-8.17-5.94-3.75-7.34-8.08-4.48-14.13,1.58-3.35,1.24-6.44.58-9.42-1.31-5.91-1.31-11.76-.04-17.54.64-2.9-.33-3.21-2.62-3.19-5.41.04-10.83-.11-16.24.06-2.63.08-4.54-1-5.26-3.21-.65-2-.13-3.71,2.04-5.49,18-14.74,36.26-29.15,54.68-43.36,5.8-4.47,11.63-8.95,17.09-13.83,3.33-2.97,7.13-3.6,11.11-3.61,29.11-.09,58.23-.05,87.34-.05,2.37,0,4.86-.52,5.84,2.77.79,2.67-.75,4.14-2.38,5.49-8.5,7-17,13.98-25.63,20.82-13.19,10.46-26.71,20.52-39.63,31.3-6.34,5.3-12.45,8.72-21.21,8.2-13.39-.8-26.86-.21-40.3-.21-.35-.4-.69-.79-1.04-1.19Z"/>
    <path class="cls-4" d="M68.42,114.62c8.04-.83,17.84.98,27.65-.93,7.24-1.41,11.4-7.04,16.71-10.95,11.49-8.46,22.42-17.67,33.54-26.62,2.19-1.76,3.66-1.64,4.58,1.2,2.62,8.11,5.71,16.09,7.75,24.34,1.46,5.89-1.66,11.11-5.33,15.55-8.12,9.83-18.77,16.47-30.05,21.82-12.3,5.83-25.23,10.29-38.8,12.17-9.96,1.38-20.01,1.86-29.9-.81-3.23-.87-4.96-2.84-4.35-6.52,1.16-7.06-1.5-13.23-7.77-16.17-4.86-2.28-4.71-6.73-5.45-10.56-.52-2.67,2.49-2.54,4.53-2.54,8.39,0,16.78,0,26.9,0Z"/>
  </g>
  <polygon class="cls-4" points="352.9 195.52 350.76 195.52 350.76 111.72 350.99 195.25 352.9 195.52"/>
  <polygon class="cls-4" points="234.92 36.13 234.65 36.4 234.65 36.13 234.92 36.13"/>
  <polygon class="cls-4" points="277.09 109.63 275 106.27 275.79 107.52 277.09 109.63"/>
  <polygon class="cls-4" points="289.59 129.7 286.38 124.55 288.05 127.13 289.59 129.7"/>
  <polygon class="cls-4" points="303.82 152.54 300.05 146.49 301.68 148.93 303.82 152.54"/>
  <polygon class="cls-4" points="384.78 36.13 384.78 195.25 384.5 195.52 352.9 195.52 350.99 195.25 350.76 111.72 350.72 95.53 350.45 95.8 339.01 113.97 310.13 159.83 309.24 161.24 308.54 160.11 303.82 152.54 301.68 148.93 300.05 146.49 289.59 129.7 288.05 127.13 286.38 124.55 282.38 118.13 280.6 115.26 277.09 109.63 275.79 107.52 275 106.27 268.16 95.3 268.16 195.25 267.62 195.52 234.92 195.52 234.65 195.25 234.65 36.4 234.92 36.13 270.19 36.13 285.24 61.04 285.33 61.2 309.85 101.79 318.84 86.54 321.77 81.56 322.66 80 324.24 77.37 346.24 40.02 348.53 36.13 384.78 36.13"/>
</svg>