<?xml version="1.0" encoding="UTF-8"?>
<svg id="Calque_1" data-name="Calque 1" xmlns="http://www.w3.org/2000/svg" version="1.1" viewBox="0 0 907.9 402.7">
  <defs>
    <style>
      .cls-1 {
        fill: #e9d6c8;
      }

      .cls-1, .cls-2, .cls-3, .cls-4, .cls-5 {
        stroke-width: 0px;
      }

      .cls-6 {
        opacity: .5;
      }

      .cls-2 {
        fill: none;
      }

      .cls-7 {
        opacity: .9;
      }

      .cls-3 {
        fill: #fff;
      }

      .cls-4 {
        fill: #ea5618;
      }

      .cls-5 {
        fill: #ea5e5a;
      }
    </style>
  </defs>
  <g class="cls-6">
    <line class="cls-2" x1="379.9" y1="-387.8" x2="-574.5" y2="-385"/>
    <rect class="cls-3" x="-574.5" y="-386.5" width="954.4" height=".2" transform="translate(1.5 -.4) rotate(-.2)"/>
  </g>
  <g class="cls-6">
    <line class="cls-2" x1="377.9" y1="-423.7" x2="-576.5" y2="-420.9"/>
    <rect class="cls-3" x="-576.6" y="-422.4" width="954.4" height=".2" transform="translate(1.6 -.4) rotate(-.2)"/>
  </g>
  <g class="cls-6">
    <rect class="cls-3" x="-436.4" y="-556" width=".2" height="425.8"/>
  </g>
  <g class="cls-6">
    <rect class="cls-3" x="270" y="-557.4" width=".2" height="427.3"/>
  </g>
  <g class="cls-6">
    <rect class="cls-3" x="302.1" y="-559" width=".2" height="427.3"/>
  </g>
  <g class="cls-6">
    <rect class="cls-3" x="-468.5" y="-558.3" width=".2" height="427.3"/>
  </g>
  <path class="cls-3" d="M-252.8-385.9l13.8,38.8c2.8,8.1,2.8,13.3,2.8,15.3h2.8c0-2,0-7.2,2.8-15.3l13.8-38.8h13.2l7.8,73.7h-14.6l-3.6-43.7c-.4-4.2,3.5-4.6,3.1-8.9l-1.8-1.2-5.3,15-9.7,29.3h-14.6l-9.5-29.1-5.3-15.1-1.8,1.2c-.4,4.3,3.5,4.7,3.1,8.9l-3.6,43.6h-14.6l7.7-73.7h13.3Z"/>
  <path class="cls-3" d="M-135.4-386.2v11.9h-39v14.4h29.7v11.8h-29.7v23.9h39.9v11.8h-54.5v-73.8h53.6Z"/>
  <path class="cls-3" d="M-64-354v15.4l3.4,26h-6.9l-4.4-12.6c-1.3-3.1,1.5-4.2.3-7.3l-1.6-.5-2.3,8.1c-3.5,6.9-9.5,12.3-19.4,12.3-22.2,0-37.5-15.1-37.5-36.9s16.4-36.9,36.8-36.9,25.2,7.6,31.4,19.1l-13.3,3c-3.7-6.8-11.3-10.7-18.6-10.7-11.9,0-22,10.5-22,25.4s10.1,25.8,22,25.8,18-7.4,19.8-14.5v-6.2h-20.4v-9.6c0,0,32.8,0,32.8,0h0Z"/>
  <path class="cls-3" d="M8.2-312.8H-7.4l-4.5-13.7h-25.3l-4.5,13.7h-15.6l26.5-73.7h12.7l26.4,73.6h0ZM-15.1-336.4l-6.6-21.2c-1.8-5.9-1.8-9.5-1.8-10.9h-1.8c0,1.4,0,5-1.8,10.9l-6.7,21.2H-15.1Z"/>
  <g class="cls-7">
    <path class="cls-3" d="M67.8-333.1c0,10.3-7.6,19.9-25.5,19.9s-29.7-8.9-30.7-25.2h8.9c1,9.7,6.9,17.3,21.8,17.3s16.6-5.6,16.6-12c0-9.7-5.2-11.5-21.1-15.2-10.6-2.5-23.3-6.1-23.3-19.9s8.6-18.6,24.2-18.6,25.5,7.7,26.7,22.4h-8.9c-1.3-9.5-6.6-14.5-17.8-14.5s-15.3,3.9-15.3,9.7c0,9.4,7.6,10.7,18,13.3,15.9,4,26.3,6.6,26.3,22.8h0Z"/>
  </g>
  <g class="cls-7">
    <path class="cls-3" d="M74.8-350.2c0-21.4,14.1-36.9,35.2-36.9s35.2,15.5,35.2,36.9-14.1,37-35.2,37-35.2-15.6-35.2-37h0ZM136.1-350.2c0-15.3-8-28.9-26.1-28.9s-26.1,13.6-26.1,28.9,8,29,26.1,29,26.1-13.7,26.1-29h0Z"/>
  </g>
  <g class="cls-7">
    <path class="cls-3" d="M196.3-355v8.3h-32.6v33.4h-9.2v-73.9h49.5v8.3h-40.3v24h32.6,0Z"/>
  </g>
  <g class="cls-7">
    <path class="cls-3" d="M236.3-379.1h-24.5v-8.3h58.3v8.3h-24.5v65.6h-9.3v-65.6h0Z"/>
  </g>
  <g>
    <path class="cls-1" d="M-395-385.6c4.9.2,9.9,2.4,13,7.6,8.4,14.1,16.7,28.2,24.8,42.4,4.3,7.6,1.4,17.3-6,21.5-8,4.6-17.8,2.4-22.5-5.5-8.3-13.8-16.5-27.7-24.4-41.8-6.2-11,1.7-24.1,15.1-24.2h0Z"/>
    <path class="cls-1" d="M-364.5-369.5c.6-7.3,5.1-13.3,11.9-15.4,7-2.1,14.8.2,18.5,6.4,8.6,14.3,17,28.6,25.1,43.1,4.3,7.7,1.1,17.2-6.5,21.4-7.7,4.3-17.3,2.2-21.9-5.3-8.6-14.1-16.8-28.4-24.9-42.8-1.2-2.2-1.5-4.9-2.2-7.4h0Z"/>
    <path class="cls-1" d="M-435.2-328.5c0-9.1,7.2-16.2,16.3-16.2,9.2,0,16.4,7.3,16.3,16.6,0,9-7.5,16.1-16.6,15.9-9.2-.1-16.1-7.2-16.1-16.4h0Z"/>
    <path class="cls-1" d="M-318.2-369.5c0-9.1,7.2-16.2,16.3-16.2,9.2,0,16.4,7.3,16.3,16.6,0,9-7.5,16.1-16.6,15.9-9.2-.1-16.1-7.2-16.1-16.4h0Z"/>
    <path class="cls-4" d="M-395.7-385.6c4.9.2,9.9,2.4,13,7.6,8.4,14.1,16.7,28.2,24.8,42.4,4.3,7.6,1.4,17.3-6,21.5-8,4.6-17.8,2.4-22.5-5.5-8.3-13.8-16.5-27.7-24.4-41.8-6.2-11,1.7-24.1,15.1-24.2h0Z"/>
    <path class="cls-4" d="M-347.5-385.6c4.9.2,9.9,2.4,13,7.6,8.4,14.1,16.7,28.2,24.8,42.4,4.3,7.6,1.4,17.3-6,21.5-8,4.6-17.8,2.4-22.5-5.5-8.3-13.8-16.5-27.7-24.4-41.8-6.2-11,1.7-24.1,15.1-24.2h0Z"/>
    <path class="cls-4" d="M-435.9-328.5c0-9.1,7.2-16.2,16.3-16.2,9.2,0,16.4,7.3,16.3,16.6,0,9-7.5,16.1-16.6,15.9-9.2-.1-16.1-7.2-16.1-16.4h0Z"/>
    <path class="cls-4" d="M-318.9-369.5c0-9.1,7.2-16.2,16.3-16.2,9.2,0,16.4,7.3,16.3,16.6,0,9-7.5,16.1-16.6,15.9-9.2-.1-16.1-7.2-16.1-16.4h0Z"/>
  </g>
  <g class="cls-6">
    <line class="cls-2" x1="935.1" y1="365.2" x2="-19.3" y2="368"/>
    <rect class="cls-3" x="-19.4" y="366.5" width="954.4" height=".2" transform="translate(-1.4 1.8) rotate(-.2)"/>
  </g>
  <g class="cls-6">
    <line class="cls-2" x1="938.1" y1="325.9" x2="-16.4" y2="328.8"/>
    <rect class="cls-3" x="-16.4" y="327.3" width="954.4" height=".2" transform="translate(-1.3 1.8) rotate(-.2)"/>
  </g>
  <g class="cls-6">
    <line class="cls-2" x1="923.1" y1="224.8" x2="-31.3" y2="227.6"/>
    <rect class="cls-3" x="-31.3" y="226.1" width="954.4" height=".2" transform="translate(-.9 1.7) rotate(-.2)"/>
  </g>
  <g class="cls-6">
    <line class="cls-2" x1="179.9" y1="-278.9" x2="182.7" y2="675.5"/>
    <rect class="cls-3" x="181.2" y="-278.9" width=".2" height="954.4" transform="translate(-.8 .7) rotate(-.2)"/>
  </g>
  <g class="cls-6">
    <line class="cls-2" x1="134" y1="-275.5" x2="136.9" y2="678.9"/>
    <rect class="cls-3" x="135.4" y="-275.5" width=".2" height="954.4" transform="translate(-.8 .5) rotate(-.2)"/>
  </g>
  <g class="cls-6">
    <line class="cls-2" x1="700.1" y1="-241.7" x2="702.9" y2="712.8"/>
    <rect class="cls-3" x="701.4" y="-241.7" width=".2" height="954.4" transform="translate(-.9 2.7) rotate(-.2)"/>
  </g>
  <g class="cls-6">
    <line class="cls-2" x1="747.5" y1="-237.5" x2="750.3" y2="716.9"/>
    <rect class="cls-3" x="748.8" y="-237.5" width=".2" height="954.4" transform="translate(-.9 2.9) rotate(-.2)"/>
  </g>
  <g class="cls-6">
    <line class="cls-2" x1="924.2" y1="35" x2="-30.2" y2="37.9"/>
    <rect class="cls-3" x="-30.3" y="36.4" width="954.4" height=".2" transform="translate(-.1 1.7) rotate(-.2)"/>
  </g>
  <g>
    <path class="cls-5" d="M491.8,90.6c-1.3,6.9-3.9,12.6-8.4,17.3-.3.4-.6.9-1.4.8.4-.5.7-.9,1-1.3,2.7-4.8,4.5-10,5.4-15.5,1.8-11.6-1.3-22.1-7.1-32-.3-.5-.5-1.1-1.3-1,6.1,13.1,4.9,26.6,1.4,32,5.6-27.6-16.1-49.2-34.4-51.7,11.4,5,18.8,13.3,21.9,25.2,2.4,9.1,2.4,18.1-1,27-1.3,2-2,4.3-3.7,6-.3.7-.7,1.4-1.9,1.7.6-.9,1-1.5,1.5-2.2,1.3-2.8,2.7-5.6,3.3-8.7,2.6-10.3-.2-19.1-7.3-26.8l-.7-.7.4,1s1.2,3.2,1.7,4.9c1.5,5.3.7,10.4-.8,15.5-2.2,5.2-5.1,9.9-8.9,14-3.2,3-6.8,5.4-11,8,2.2-5.6,3.8-10.8,2.5-16.4,0-.6-.1-1.1-.4-1.6,0-.5,0-.9-.4-1.2-2.2-7.6-7.8-10.9-15.3-11.6,3.8-3,5.1-8.1,3.3-13.9-.1,4.3-1.3,7.7-4.9,10.4v-3.5c-1.6,3-4.1,4.6-6.9,6.1-1.2.6-2.3,1.4-3.3,2.3-2.5,2.2-3.9,5-3.3,8.4.3,1.5.3,2.8.2,4.3-.7,2.6.3,4.8,2.8,6.4-.6-2.6.9-4.4,2.1-6.4,0,0,0,0,0,0,.4-.2.8-.5,1.2-.7,1.8-.9,3.6-1.2,5.3,0,1.6,1.2,1.5,2.9,1.1,4.8-.6,3.2-2.8,5.4-4.7,7.7-7.6,9.3-11.7,19.9-11.5,32,0,4.9,1.3,9.5,4,13.7.2.4.3.9.6,1.3.8,1.3,1.7,2.5,2.7,3.6,5.7,6.8,13.3,10.9,21.9,13.7,1.4.5,1-.6,1-1.1,0-.5,0-1.1,0-1.6.5-6.1,3.3-11,8.5-14.6,5.2-3.6,11.1-6,16.9-8.5,3.5-1.6,7.1-3,10.1-5.3.3-.2.7-.5,1-.8,0,0,.2-.1.2-.2.7-.5,1.4-.9,2-1.5,7.5-6.5,12.3-14.6,14.3-24.3,1-4.9,1.4-9.8.3-15.2ZM415.5,82.6c-.7-2.2.3-3.7,1.9-5.2.3,2.1.8,4.1-1.9,5.2Z"/>
    <path class="cls-5" d="M430.2,222.6c-2.1-1.1-4-2.4-5.8-3.9-5.7-4.9-7.4-11.4-5.1-18.5,1.3-3.9,3.3-7.5,5.3-11.1,1.3-2.5,2.2-5,2-7.9-.5-6.7-4.2-11.7-8.8-16.4-1.9,4-3.5,5.9-6.7,8.2-2.5,1.8-5.2,3.2-8.1,4.4-1.2.5-1.1.8-.3,1.6,1.8,1.8,3.8,3.3,6,4.7,4.5,2.8,5.6,2.5,8.5-2.1.9-1.4,1.5-3,2.3-4.8.2,4-.3,7.3-1.9,10.7-2.8,5.9-4.6,12.1-3.7,18.8,1.2,8.5,8.8,16.4,17.3,17.4.2-.8-.5-.8-1-1Z"/>
    <path class="cls-5" d="M455,177.9c-2.2,2.5-4.6,4.3-7.2,5.9-.9.6-1.2-.3-1.6-.7-2.7-2.8-5.5-5.7-8.2-8.5-.3-.3-.7-.6-1.3-1.2.7,2.1,1.5,3.7,1.8,5.5,1,5.9-1.2,10.6-5.7,14.4-1.9,1.6-4,3.2-5.7,5.1-3.1,3.6-5.2,7.5-4.5,12.5-1.3-1.9-1.2-4.1-.9-6.2.7-4.6,2.4-8.9,4.8-12.7,4.1-6.4,3.8-12.9,1-19.5-.3-.7-.8-1.4-1.1-2.1-3.8-5.5-9.3-9.6-13.4-14.9-1.3-1.8-2.8-3.4-4.2-5-.4-.4-.8-.8-1.2-1.2-6.1-6-13.2-10.7-20.8-14.7-1.2-.6-2.5-1.3-3.5-2.3-3.7-2.4-6.6-5.6-9.3-9-6.8-8.9-9.2-19.1-8.6-30.2,0-.3,0-.7.1-1,0-.3.1-.5.3-1.2.8,3.6,1.7,6.8,3.2,9.8,1.5,3,3.5,5.6,5.9,8-9.6-16.8-8-33.2,1.9-49.2-4,10.2-5.3,20.5-1.2,31.1-2.3-11.8.6-22.6,6.8-32.4,6.4-10,15.9-15.8,27.1-19,.1.1.2.3.3.4-1.7.9-3.4,1.8-5,2.8-10.6,6.5-15.8,16.3-17.5,28.3-1.1,7.8-.4,15.3,3,22.5,1.1,1.5,1.8,3.4,3.2,4.7.2.3.3.6.5.8.3-.4.3-.8-.1-1.2-1.9-4.2-4-8.3-4.2-13.1-.3-.7-.4-1.4-.3-2.1,0-.8,0-1.6,0-2.4.3-7.3,3.5-13.3,8.6-18.4-2.2,4.9-2.8,10-2.3,15.2,1.4,6.7,4.4,12.6,8.8,17.9.4.5.7.9,1.1,1.4,2.2,2,4.4,4.1,7,5.5,1.1.6.9,1.2.4,2.1-4.3,7.2-6.8,15-7.7,23.4-.4,3.7.2,7.3.6,10.9,1.2,4.3,3,8.1,5.4,11.6.4.6.9,1.3,1.4,1.8,1.4,1.7,2.9,3.4,4.7,4.9,2.6,2.3,5.3,4.3,8.1,6,.3.4.7.8,1,1.2,3,3.7,5.5,6.5,7.5,8.2,2,1.7,4.5,2.6,7.3,2.6s3-.3,4.3-1.1c2.8,2.1,5.9,3.7,9.5,4.9Z"/>
    <path class="cls-5" d="M458.5,171.4c0,1.3-.5,2.1-.9,3.1-.6,1.4-1.4,1.8-3,1.4-2.8-.9-5.3-2.2-7.6-3.8.4-.4.8-.8,1.2-1.3.9.3,1.8.6,2.7.7,2.5.5,5,.6,7.6,0Z"/>
    <path class="cls-5" d="M412.1,169.9c.3-.3.8-.6.3-1.2-4.4,2.1-8.8,4.1-13.8,2.8h0c-.4.8.1,1.4.4,2.1,1,2.6,1.3,2.7,4,2,3.6-1,6.6-3,9.1-5.7Z"/>
    <path class="cls-5" d="M429.7,72.1c5.1-1.6,6.6-13.1-1.2-20.3,2.7,6.7,5.2,13.3,1.2,20.3Z"/>
    <path class="cls-5" d="M398.6,171.5h0s0,0,0,0Z"/>
    <polygon class="cls-5" points="398.6 171.5 398.6 171.5 398.6 171.5 398.6 171.5"/>
  </g>
  <g>
    <path class="cls-5" d="M252.8,250.9h-15.4c-.2,0-.3.1-.3.3v.2c0,.2,0,.3.3.3,1.6.1,3.2.6,4.6,1.5,1.5.9,2.2,2.2,2.2,3.9s-.2,1.3-.6,2.7l-22.2,57.8-21.6-57.5c-.4-.9-.6-1.9-.6-2.9,0-1.8.7-3.2,2.2-4.1,1.5-.9,3.1-1.4,4.8-1.5.2,0,.3-.1.3-.3v-.2c0-.2-.1-.3-.3-.3h-23.9c-.2,0-.3.1-.3.3v.2c0,.2,0,.3.3.3,3.5.2,6.4,3,8.5,8.3l25.7,66.6h2.4l25.7-66.6c1.1-2.7,2.4-4.8,3.9-6.1,1.5-1.4,3-2.1,4.5-2.2.2,0,.3-.1.3-.3v-.2c0-.2-.1-.3-.3-.3Z"/>
    <path class="cls-5" d="M276,321v-62.8c0-1.6-.5-2.9-1.6-3.9-1.1-1-2.3-1.7-3.8-2.1-1.5-.5-3-.8-4.7-.9-1.7-.2-3.1-.3-4.3-.4,2.4.6,4.2,1.5,5.2,2.6,1.1,1.2,1.6,2.7,1.6,4.8v62.6c0,2.3-.5,3.8-1.5,4.3-1,.6-2.8,1-5.3,1.3h21.2c-2.5-.3-4.3-.7-5.3-1.3-1-.6-1.5-2-1.5-4.3Z"/>
    <path class="cls-5" d="M268.3,238.5c1.2.8,2.5,1.5,3.8,2.1,1.3.6,2.5,1.1,3.5,1.6-1.1-.6-1.8-1.3-2.1-2.1-.3-.8-.5-1.6-.4-2.5,0-.9.2-1.8.4-2.7.2-.9.4-1.7.4-2.5,0-1.5-.5-2.7-1.5-3.7-1-1-2.2-1.5-3.7-1.5s-2.8.5-3.6,1.4c-.8.9-1.3,2-1.3,3.3s.4,2.6,1.3,3.6c.9,1,1.9,2,3.2,2.8Z"/>
    <path class="cls-5" d="M362.5,304.3c-2.7,5.8-6.4,10.4-11.1,13.8-4.7,3.4-10.4,5.1-17.1,5.1s-11.7-1.5-16.5-4.6c-4.8-3.1-8.5-7.3-11.2-12.8-2.7-5.4-4-11.6-4-18.3s1-12.5,3.2-18.3c2.1-5.8,5.1-10.6,8.9-14.3,3.8-3.7,8.1-5.5,12.8-5.5s.9,0,1.3,0c1.1,0,2.1.3,3,.6,1.3.4,2.5,1,3.5,1.8,1.8,1.5,4,3.6,6.3,6.5.3.3.5.6.8.9,2.3,2.8,4.2,4.9,5.7,6.3,1.6,1.3,3.4,2,5.6,2s2.3-.3,3.3-.8c.4-.2.8-.5,1.1-.8.3-.3.6-.6.9-1,2-2.6,3-7.2,3-13.7s-.1-.3-.3-.3h-.1c-.2,0-.3,0-.3.3-.1,1.8-.6,3.5-1.5,5.1-.9,1.6-2.2,2.4-3.8,2.4s-2.5-.3-3.7-.9c-.2-.1-.4-.2-.7-.3-1.1-.6-2.6-1.4-4.5-2.5-3.2-2-6.3-3.6-9-4.8-1.2-.5-2.6-.9-4-1.2-1-.2-2.1-.3-3.2-.4-.8,0-1.7,0-2.6,0h-.3c-6.1,0-11.8,1.8-17,5.4-5.2,3.6-9.4,8.4-12.5,14.4-3.1,6-4.6,12.5-4.6,19.3s1.6,13.7,4.9,19.7c3.2,6,7.8,10.7,13.7,14.2,5.9,3.5,12.6,5.2,20.2,5.2s13.4-2.1,18.9-6.2c5.5-4.1,9.4-9.5,11.7-16,0-.2,0-.3-.1-.4-.2-.1-.3,0-.5.1Z"/>
    <path class="cls-5" d="M411.5,303.2c1.2.8,1.9,2.4,2,4.8.1,2.4-.2,4.9-1,7.6-.8,2.6-2.2,5-4.1,7.1-1.9,2.1-4.3,3.1-7.3,3.1s-6.6-1.9-8.6-5.7c-2-3.8-3-9.6-3-17.3v-50.6h18.3v-1h-18.3v-9.2c0-1.6-.5-2.8-1.6-3.8-1-.9-2.3-1.6-3.7-2.1-1.4-.4-3-.7-4.6-.9-1.6-.1-3-.3-4.2-.4,2.4.6,4.1,1.5,5.1,2.6,1,1.1,1.6,2.7,1.6,4.7v9.1h-8v1h8v53.4c0,6.6,1.6,11.8,4.9,15.6,3.3,3.8,7.7,5.6,13.4,5.6s5-.4,7.3-1.2c2.3-.8,4.2-1.9,5.9-3.3,1.6-1.4,2.9-3,3.9-4.7.9-1.8,1.4-3.7,1.4-5.8,0-4.6-2.4-7.4-7.3-8.6Z"/>
    <path class="cls-5" d="M528.8,272.2v-21.2c-.8,0-2.7,1.2-5.8,3.6-2.4,1.9-4.5,3.4-6.3,4.5-1.8,1.1-3.5,1.6-5.1,1.7-.2,0-.3.1-.3.3v.2c0,.2,0,.3.3.3,1,0,1.9-.2,2.7-.5.8-.4,1.4-.7,2-1.1,1.1-.7,2.1-1.1,2.9-1.1s1,.5,1.1,1.6c.2,1.1.2,3.5.2,7.3v45c0,3.1-.2,5.6-.5,7.3-.3,1.7-1.1,3.1-2.5,4.2-1.4,1.1-3.5,1.7-6.4,1.7s-.3.1-.3.3v.2c0,.2,0,.3.3.3h27c.2,0,.3,0,.3-.3v-.2c0-.2-.1-.3-.3-.3-2.9,0-5.1-.6-6.4-1.7-1.4-1.1-2.2-2.5-2.5-4.2-.3-1.7-.5-4.1-.5-7.3v-26.8c0-5.3,1.2-10.4,3.6-15.3,2.4-4.9,5.9-8.6,10.3-10.9,3.8-2,8-3,12.6-3s6.6.5,10,1.5v-9.7c-6.5,0-13.1,2.3-19.8,7-6.8,4.7-12.3,10.2-16.7,16.6Z"/>
    <path class="cls-5" d="M586,237.4c1.2.8,2.5,1.6,3.9,2.2,1.3.6,2.5,1.1,3.5,1.6-1.1-.6-1.8-1.3-2.2-2.1-.3-.8-.5-1.6-.4-2.5,0-.9.2-1.8.4-2.7.2-.9.4-1.7.4-2.5,0-1.5-.5-2.7-1.5-3.7-1-1-2.2-1.5-3.7-1.5s-2.8.5-3.7,1.4c-.8.9-1.3,2.1-1.3,3.4s.4,2.6,1.3,3.7c.9,1,2,2,3.2,2.8Z"/>
    <path class="cls-5" d="M593.8,320.7v-63.4c0-1.6-.5-2.9-1.6-3.9-1.1-1-2.4-1.7-3.8-2.1-1.5-.5-3.1-.8-4.8-.9-1.7-.2-3.1-.3-4.4-.4,2.5.6,4.2,1.5,5.3,2.7,1.1,1.2,1.6,2.8,1.6,4.8v63.2c0,2.3-.5,3.8-1.5,4.4-1,.6-2.8,1-5.4,1.3h21.5c-2.6-.3-4.3-.7-5.4-1.3-1-.6-1.5-2-1.5-4.4Z"/>
    <path class="cls-5" d="M684.2,313.8c-1,0-1.8.2-2.6.5-.7.3-1.4.7-2,1.1-1,.7-1.9,1-2.8,1s-1-.5-1.1-1.5c-.1-1-.2-3.4-.2-7.1v-36.5c-.5-15.1-6.3-22.7-17.4-22.7s-7.6.5-11,1.6c-3.4,1.1-7.3,2.6-11.6,4.7-2.9,1.3-5.3,2.2-7.1,2.9-1.8.6-3.4,1-5,1s-3-.8-3.9-2.4c-.9-1.6-1.4-3.3-1.5-5,0-.2,0-.3-.3-.3h-.1c-.2,0-.3,0-.3.3,0,5.7.8,9.8,2.3,12.4,1.5,2.6,3.8,3.9,6.8,3.9s4.4-.6,6.3-1.8c2-1.2,4.6-3.2,8-5.9,3.5-3,6.7-5.3,9.4-6.9,2.7-1.6,5.7-2.4,8.9-2.4s4.4.6,5.7,1.8c1.2,1.2,2,3,2.4,5.5.4,2.4.6,6,.6,10.7,0,3.3-2.2,6.2-6.3,8.6-4.1,2.4-8.6,3.6-13.6,3.6s-11.4,1-16.5,3c-5.1,2-9.2,4.8-12.2,8.5-3,3.7-4.6,7.9-4.6,12.8s2.3,11.6,7,15.6c4.7,4,10.6,6,17.9,6s7.5-.6,9.9-1.8c2.4-1.2,4.8-2.9,7.4-5,1.4-1.3,2.5-2.2,3.3-2.7.8-.5,1.8-.8,2.9-.8,1.6,0,2.8.9,3.6,2.7.8,1.8,1.3,3.6,1.3,5.3.8,0,2.7-1.2,5.6-3.5,2.4-1.9,4.4-3.3,6.1-4.3,1.7-1,3.4-1.6,4.9-1.7.2,0,.3,0,.3-.3h0c0-.3,0-.4-.3-.4ZM667.5,316.7c0-1.7-.5-3.4-1.5-5.3-1-1.9-2.5-2.9-4.3-2.9s-2.7.5-3.8,1.6c-1.1,1.1-2.3,2.8-3.7,5.1-2,3.2-4,5.7-6,7.5-2,1.8-4.8,2.7-8.3,2.7s-8.3-1.9-11.3-5.7c-3-3.8-4.6-8.8-4.6-15.1s1-7.9,3.1-11.5c2.1-3.6,4.9-6.5,8.6-8.7,3.7-2.2,7.9-3.3,12.6-3.3s3.8.4,6.8,1.2c2.7.8,4.7,1.2,5.9,1.2,1.7,0,3.1-.6,4.2-1.7,1.1-1.1,1.9-3,2.4-5.8v40.6Z"/>
    <g>
      <path class="cls-5" d="M694.1,228c-4.1,0-7.5,3.3-7.5,7.5s3.3,7.5,7.5,7.5,7.5-3.3,7.5-7.5-3.3-7.5-7.5-7.5ZM694.1,242.3c-3.8,0-6.8-3.1-6.8-6.8s3.1-6.8,6.8-6.8,6.8,3.1,6.8,6.8-3.1,6.8-6.8,6.8Z"/>
      <path class="cls-5" d="M696.3,235.9c.5-.5.7-1.1.7-2s-.2-1.4-.7-1.8c-.5-.4-1.1-.7-2-.7h-2.9v8.2h1.4v-3.1h1.5s0,0,0,0l1.3,3.1h1.7l-1.6-3.4c.2-.1.4-.2.6-.4ZM692.7,232.7h1.5c.4,0,.7.1.9.3.2.2.3.6.3,1s-.1.7-.3.9c-.2.2-.5.3-.9.3h-1.5v-2.6Z"/>
    </g>
    <path class="cls-5" d="M484,253.8c-5.6-3.5-11.7-5.2-18.4-5.2s-12.8,1.7-18.5,5.2c-5.6,3.5-10.1,8.2-13.4,14.2-3.3,6-4.9,12.6-4.9,19.7s1.6,13.6,4.9,19.7c3.3,6,7.8,10.8,13.4,14.3,5.6,3.5,11.8,5.2,18.5,5.2s12.7-1.8,18.3-5.3c5.6-3.5,10.1-8.3,13.4-14.3,3.3-6,4.9-12.5,4.9-19.6s-1.6-13.7-4.9-19.7c-3.3-6-7.7-10.7-13.3-14.2ZM489.8,307.1c-2.5,5.8-5.9,10.5-10.2,13.8-4.3,3.4-9,5.1-14.1,5.1s-9.8-1.7-14.1-5.1c-4.3-3.4-7.7-8-10.2-13.8-2.5-5.8-3.8-12.3-3.8-19.5s1.3-13.5,3.8-19.4c2.5-5.8,5.9-10.5,10.2-13.8,4.3-3.4,9-5.1,14.1-5.1s9.8,1.7,14.1,5.1c4.3,3.4,7.7,8,10.2,13.8,2.5,5.8,3.8,12.3,3.8,19.4s-1.3,13.7-3.8,19.5Z"/>
  </g>
</svg>