<?xml version="1.0" encoding="UTF-8"?>
<svg id="Calque_1" data-name="Calque 1" xmlns="http://www.w3.org/2000/svg" viewBox="0 0 907.93 402.71">
  <defs>
    <style>
      .cls-1 {
        opacity: .18;
      }

      .cls-2 {
        fill: #ec5f5b;
      }

      .cls-2, .cls-3 {
        stroke-width: 0px;
      }

      .cls-3 {
        fill: #fff;
      }

      .cls-4 {
        opacity: .17;
      }
    </style>
  </defs>
  <g class="cls-1">
    <rect class="cls-3" x=".06" y="331.1" width="931.21" height=".25"/>
  </g>
  <g class="cls-4">
    <rect class="cls-3" x="-8.8" y="230.75" width="931.21" height=".25"/>
  </g>
  <g class="cls-1">
    <rect class="cls-3" x="-11.53" y="366.45" width="931.21" height=".25"/>
  </g>
  <g class="cls-1">
    <rect class="cls-3" x="-11.23" y="38.41" width="931.21" height=".25"/>
  </g>
  <g class="cls-1">
    <rect class="cls-3" x="-3.42" y="81.58" width="920.33" height=".25"/>
  </g>
  <g class="cls-4">
    <rect class="cls-3" x="-2.21" y="192.8" width="931.21" height=".25"/>
  </g>
  <g class="cls-1">
    <rect class="cls-3" x="187.03" y="-29.42" width=".25" height="931.21"/>
  </g>
  <g class="cls-1">
    <rect class="cls-3" x="150.98" y="-28.71" width=".25" height="931.21"/>
  </g>
  <g class="cls-4">
    <rect class="cls-3" x="743.16" y="-12.23" width=".25" height="931.21"/>
  </g>
  <g class="cls-4">
    <rect class="cls-3" x="707.1" y="-11.52" width=".25" height="931.21"/>
  </g>
  <g>
    <path class="cls-2" d="M499.17,92.31c-1.39,7.14-4.01,13.09-8.76,18.01-.3.45-.58.94-1.49.85.4-.51.75-.92,1.09-1.34,2.86-5.01,4.69-10.4,5.59-16.1,1.88-12.07-1.36-23-7.4-33.32-.28-.47-.47-1.15-1.32-1.02,6.37,13.6,5.12,27.65,1.49,33.3,5.86-28.69-16.71-51.16-35.79-53.72,11.85,5.18,19.51,13.81,22.72,26.2,2.45,9.47,2.54,18.85-1.09,28.05-1.3,2.07-2.11,4.43-3.86,6.2-.36.75-.72,1.49-1.96,1.81.6-.92,1.07-1.6,1.51-2.3,1.36-2.94,2.77-5.86,3.43-9.08,2.75-10.72-.23-19.91-7.61-27.88l-.72-.72.38,1.09s1.24,3.37,1.75,5.1c1.56,5.48.75,10.83-.85,16.16-2.28,5.37-5.27,10.28-9.21,14.6-3.35,3.09-7.06,5.63-11.41,8.34,2.32-5.86,3.96-11.26,2.58-17.05.06-.62-.11-1.15-.38-1.68.06-.47-.02-.9-.38-1.26-2.32-7.89-8.08-11.32-15.95-12.04,3.99-3.16,5.26-8.38,3.43-14.45-.13,4.46-1.36,8.04-5.14,10.81v-3.67c-1.66,3.07-4.31,4.8-7.14,6.35-1.22.66-2.39,1.47-3.41,2.39-2.6,2.28-4.07,5.2-3.43,8.7.28,1.51.36,2.94.19,4.43-.68,2.75.28,5.03,2.9,6.69-.62-2.73.9-4.63,2.2-6.61,0,0,.02-.02.02-.04.43-.23.85-.49,1.28-.7,1.85-.9,3.79-1.22,5.54.09,1.66,1.26,1.53,3.05,1.15,4.95-.66,3.3-2.9,5.61-4.88,8.06-7.89,9.72-12.22,20.72-11.98,33.32.09,5.07,1.34,9.87,4.14,14.2.21.45.36.92.64,1.3.87,1.32,1.81,2.56,2.81,3.71,5.95,7.06,13.86,11.36,22.75,14.28,1.49.49,1.04-.58,1.07-1.19,0-.55.02-1.11.06-1.64.47-6.37,3.41-11.43,8.8-15.18,5.41-3.79,11.55-6.2,17.54-8.83,3.67-1.62,7.33-3.13,10.53-5.56.36-.26.7-.53,1.04-.81.09-.06.17-.13.26-.17.68-.51,1.43-.98,2.07-1.53,7.76-6.74,12.79-15.14,14.84-25.24,1.02-5.05,1.41-10.17.36-15.82ZM419.8,83.92c-.68-2.24.34-3.88,1.94-5.44.28,2.17.79,4.31-1.94,5.44Z"/>
    <path class="cls-2" d="M435.09,229.59c-2.16-1.15-4.18-2.5-6.04-4.09-5.88-5.05-7.73-11.91-5.28-19.25,1.37-4.09,3.45-7.83,5.49-11.6,1.39-2.55,2.3-5.19,2.08-8.17-.51-6.99-4.38-12.13-9.16-17.02-2.02,4.18-3.64,6.13-6.95,8.57-2.6,1.91-5.45,3.37-8.44,4.54-1.24.49-1.15.83-.3,1.65,1.91,1.86,3.99,3.48,6.25,4.87,4.73,2.9,5.86,2.65,8.8-2.2.9-1.47,1.52-3.11,2.41-4.97.25,4.12-.32,7.64-1.96,11.1-2.92,6.15-4.83,12.56-3.88,19.54,1.21,8.87,9.2,17.02,17.96,18.12.16-.81-.55-.85-.99-1.09Z"/>
    <path class="cls-2" d="M460.92,183.09c-2.28,2.58-4.8,4.46-7.46,6.16-.9.58-1.24-.3-1.68-.75-2.86-2.94-5.69-5.93-8.55-8.89-.32-.32-.68-.64-1.34-1.26.72,2.17,1.53,3.86,1.83,5.69,1.02,6.18-1.28,11.04-5.95,14.97-2.03,1.68-4.14,3.3-5.88,5.31-3.22,3.71-5.37,7.8-4.65,12.98-1.3-2-1.28-4.22-.96-6.42.68-4.78,2.45-9.21,5.01-13.2,4.31-6.65,3.97-13.37,1.02-20.29-.32-.75-.79-1.43-1.19-2.15-3.99-5.76-9.7-10.02-13.94-15.52-1.39-1.83-2.88-3.54-4.41-5.18-.4-.43-.83-.85-1.26-1.26-6.31-6.29-13.71-11.13-21.68-15.31-1.28-.66-2.56-1.39-3.6-2.43-3.84-2.52-6.91-5.8-9.66-9.4-7.06-9.27-9.57-19.87-8.91-31.36,0-.34.09-.68.15-1.02.04-.28.13-.53.32-1.22.81,3.75,1.79,7.06,3.37,10.17,1.58,3.07,3.6,5.82,6.12,8.34-9.96-17.5-8.36-34.51,1.98-51.18-4.14,10.59-5.48,21.32-1.28,32.3-2.43-12.28.58-23.49,7.12-33.7,6.63-10.38,16.52-16.46,28.16-19.8.11.15.19.3.3.45-1.73.96-3.52,1.85-5.2,2.88-11,6.76-16.44,16.95-18.16,29.44-1.11,8.1-.38,15.95,3.09,23.45,1.17,1.6,1.88,3.52,3.33,4.9.19.3.36.58.53.85.34-.45.3-.85-.11-1.24-1.98-4.37-4.16-8.68-4.33-13.6-.34-.68-.4-1.43-.3-2.17.02-.83.02-1.66.02-2.49.36-7.61,3.62-13.86,8.93-19.19-2.32,5.07-2.88,10.38-2.39,15.84,1.41,6.97,4.56,13.11,9.1,18.57.38.47.75.96,1.11,1.43,2.32,2.05,4.54,4.24,7.29,5.73,1.11.62.92,1.24.38,2.15-4.43,7.53-7.08,15.6-8.02,24.3-.4,3.86.26,7.59.6,11.38,1.24,4.43,3.09,8.44,5.65,12.07.43.66.92,1.3,1.41,1.92,1.43,1.79,3.05,3.5,4.86,5.07,2.66,2.35,5.48,4.43,8.44,6.22.36.41.7.83,1.04,1.28,3.07,3.88,5.67,6.72,7.82,8.53,2.13,1.79,4.67,2.71,7.61,2.71,1.66,0,3.16-.36,4.43-1.11,2.88,2.2,6.16,3.84,9.87,5.05Z"/>
    <path class="cls-2" d="M464.55,176.31c.09,1.34-.53,2.22-.92,3.18-.58,1.45-1.49,1.9-3.11,1.41-2.9-.9-5.48-2.28-7.95-3.94.43-.41.85-.85,1.24-1.36.94.3,1.88.58,2.86.75,2.62.47,5.22.58,7.89-.02Z"/>
    <path class="cls-2" d="M416.33,174.77c.29-.31.86-.61.31-1.22-4.53,2.2-9.11,4.22-14.35,2.89h.03c-.39.83.14,1.5.4,2.17,1.09,2.74,1.38,2.86,4.19,2.05,3.71-1.06,6.81-3.09,9.42-5.9Z"/>
    <path class="cls-2" d="M434.63,73c5.27-1.68,6.83-13.59-1.29-21.1,2.84,7.02,5.41,13.85,1.29,21.1Z"/>
    <path class="cls-2" d="M402.29,176.45l-.05-.02s.04.02.05.02Z"/>
    <polygon class="cls-2" points="402.29 176.45 402.32 176.46 402.29 176.45 402.29 176.45"/>
  </g>
  <path class="cls-2" d="M258.05,254.72h-15.43c-.2,0-.3.1-.3.3v.15c0,.2.1.3.3.3,1.61.1,3.15.6,4.61,1.51,1.46.91,2.19,2.22,2.19,3.93,0,.4-.2,1.31-.61,2.72l-22.24,57.8-21.64-57.5c-.4-.91-.6-1.87-.6-2.88,0-1.82.73-3.18,2.19-4.09,1.46-.91,3.05-1.41,4.77-1.51.2,0,.3-.1.3-.3v-.15c0-.2-.1-.3-.3-.3h-23.91c-.2,0-.3.1-.3.3v.15c0,.2.1.3.3.3,3.53.2,6.35,2.98,8.47,8.32l25.72,66.58h2.42l25.72-66.58c1.11-2.72,2.39-4.77,3.86-6.13,1.46-1.36,2.95-2.09,4.46-2.19.2,0,.3-.1.3-.3v-.15c0-.2-.1-.3-.3-.3Z"/>
  <path class="cls-2" d="M281.22,324.78v-62.79c0-1.61-.53-2.9-1.59-3.86-1.06-.96-2.32-1.66-3.78-2.12-1.46-.45-3.03-.76-4.69-.91-1.66-.15-3.1-.28-4.31-.38,2.42.6,4.16,1.49,5.22,2.65,1.06,1.16,1.59,2.75,1.59,4.77v62.64c0,2.32-.51,3.76-1.51,4.31-1.01.55-2.78.98-5.3,1.29h21.18c-2.52-.3-4.29-.73-5.3-1.29-1.01-.55-1.51-1.99-1.51-4.31Z"/>
  <path class="cls-2" d="M273.53,242.27c1.23.84,2.5,1.55,3.83,2.14,1.33.59,2.48,1.13,3.46,1.62-1.08-.59-1.79-1.27-2.14-2.06-.35-.78-.49-1.62-.44-2.5.05-.88.2-1.77.44-2.65.24-.88.37-1.72.37-2.5,0-1.47-.49-2.7-1.47-3.68-.98-.98-2.21-1.47-3.68-1.47-1.57,0-2.77.47-3.61,1.4-.84.93-1.25,2.04-1.25,3.31,0,1.38.44,2.58,1.33,3.61.88,1.03,1.94,1.97,3.17,2.8Z"/>
  <path class="cls-2" d="M367.65,308.1c-2.74,5.79-6.44,10.4-11.1,13.82-4.66,3.42-10.37,5.14-17.12,5.14-6.18,0-11.66-1.55-16.48-4.63-4.8-3.1-8.52-7.35-11.16-12.79-2.66-5.44-3.97-11.56-3.97-18.31,0-6.38,1.05-12.48,3.16-18.31,2.11-5.83,5.07-10.59,8.9-14.26,3.82-3.67,8.08-5.52,12.79-5.52.45,0,.91.02,1.34.05,1.06.09,2.06.28,2.99.58,1.3.39,2.46,1,3.47,1.8,1.84,1.47,3.96,3.63,6.29,6.49.27.3.52.61.77.94,2.25,2.85,4.16,4.93,5.74,6.25,1.56,1.31,3.42,1.99,5.58,1.99,1.22,0,2.31-.27,3.25-.81.39-.22.77-.48,1.11-.8.31-.3.63-.63.91-1,1.99-2.61,2.97-7.18,2.97-13.71,0-.2-.11-.3-.3-.3h-.14c-.2,0-.3.09-.3.3-.11,1.77-.61,3.46-1.55,5.07-.94,1.63-2.19,2.42-3.75,2.42-1.27,0-2.5-.28-3.67-.88-.2-.11-.42-.22-.66-.33-1.13-.59-2.63-1.41-4.49-2.47-3.24-2.05-6.25-3.64-9.04-4.77-1.24-.5-2.56-.89-3.99-1.16-1.03-.2-2.11-.34-3.24-.44-.83-.06-1.69-.09-2.56-.09h-.31c-6.14.06-11.82,1.85-16.97,5.36-5.24,3.58-9.41,8.38-12.49,14.4-3.1,6.04-4.64,12.48-4.64,19.34s1.63,13.73,4.86,19.7c3.24,5.99,7.79,10.71,13.67,14.2,5.89,3.47,12.6,5.22,20.15,5.22,7.05,0,13.35-2.06,18.89-6.18,5.54-4.13,9.44-9.46,11.7-16.03.09-.2.05-.34-.14-.44-.2-.11-.34-.06-.45.14Z"/>
  <path class="cls-2" d="M416.73,306.95c1.19.79,1.86,2.4,2,4.82.15,2.43-.2,4.95-1.04,7.57-.84,2.62-2.2,4.97-4.08,7.05-1.88,2.08-4.31,3.12-7.27,3.12-3.76,0-6.63-1.9-8.61-5.71-1.98-3.81-2.97-9.57-2.97-17.29v-50.62h18.26v-1.04h-18.26v-9.2c0-1.58-.52-2.84-1.56-3.78-1.04-.94-2.28-1.63-3.71-2.08-1.44-.44-2.97-.74-4.6-.89-1.63-.15-3.04-.27-4.23-.37,2.37.59,4.08,1.46,5.12,2.6,1.04,1.14,1.56,2.7,1.56,4.68v9.05h-8.02v1.04h8.02v53.44c0,6.63,1.63,11.83,4.9,15.59,3.27,3.76,7.72,5.64,13.36,5.64,2.57,0,5-.4,7.27-1.19,2.28-.79,4.23-1.88,5.86-3.27,1.63-1.38,2.92-2.97,3.86-4.75.94-1.78,1.41-3.71,1.41-5.79,0-4.55-2.43-7.42-7.27-8.61Z"/>
  <path class="cls-2" d="M534.03,276v-21.21c-.81,0-2.73,1.21-5.76,3.64-2.42,1.92-4.52,3.41-6.29,4.47-1.77,1.06-3.46,1.64-5.08,1.74-.2,0-.3.1-.3.3v.15c0,.2.1.3.3.3,1.01,0,1.89-.17,2.65-.53.76-.35,1.44-.73,2.05-1.14,1.11-.7,2.07-1.06,2.88-1.06.61,0,.98.53,1.14,1.59.15,1.06.23,3.51.23,7.35v45c0,3.13-.15,5.56-.45,7.27-.3,1.72-1.14,3.13-2.5,4.24-1.36,1.11-3.51,1.67-6.44,1.67-.2,0-.3.1-.3.3v.15c0,.2.1.3.3.3h26.97c.2,0,.3-.1.3-.3v-.15c0-.2-.1-.3-.3-.3-2.93,0-5.08-.55-6.44-1.67-1.36-1.11-2.2-2.52-2.5-4.24-.3-1.72-.45-4.14-.45-7.27v-26.82c0-5.25,1.21-10.35,3.64-15.3,2.42-4.95,5.86-8.58,10.3-10.91,3.84-2.02,8.03-3.03,12.58-3.03,3.23,0,6.56.51,10,1.52v-9.7c-6.47,0-13.08,2.35-19.85,7.05-6.77,4.7-12.33,10.23-16.67,16.59Z"/>
  <path class="cls-2" d="M591.21,242.27c1.23.84,2.5,1.55,3.83,2.14,1.33.59,2.48,1.13,3.46,1.62-1.08-.59-1.79-1.27-2.14-2.06-.35-.78-.49-1.62-.44-2.5.05-.88.2-1.77.44-2.65.24-.88.37-1.72.37-2.5,0-1.47-.49-2.7-1.47-3.68-.98-.98-2.21-1.47-3.68-1.47-1.57,0-2.78.47-3.61,1.4-.83.93-1.25,2.04-1.25,3.31,0,1.38.44,2.58,1.33,3.61.88,1.03,1.94,1.97,3.17,2.8Z"/>
  <path class="cls-2" d="M598.91,324.98v-62.98c0-1.62-.53-2.91-1.59-3.87-1.06-.96-2.33-1.67-3.79-2.12-1.47-.46-3.04-.76-4.7-.91-1.67-.15-3.11-.28-4.32-.38,2.43.61,4.17,1.49,5.24,2.66,1.06,1.16,1.59,2.76,1.59,4.78v62.83c0,2.33-.51,3.77-1.52,4.33-1.01.56-2.78.99-5.31,1.29h21.25c-2.53-.3-4.3-.73-5.31-1.29-1.01-.55-1.52-2-1.52-4.33Z"/>
  <path class="cls-2" d="M689.38,318.05c-.98,0-1.84.17-2.58.52-.74.35-1.4.71-1.99,1.1-.98.69-1.91,1.03-2.8,1.03-.59,0-.96-.52-1.1-1.55-.15-1.03-.22-3.41-.22-7.14v-36.82c-.49-15.22-6.29-22.83-17.38-22.83-3.93,0-7.61.54-11.05,1.62-3.44,1.08-7.32,2.65-11.64,4.71-2.95,1.28-5.3,2.23-7.07,2.87-1.77.64-3.44.96-5.01.96-1.67,0-2.97-.81-3.9-2.43-.93-1.62-1.45-3.31-1.55-5.08,0-.2-.1-.3-.29-.3h-.15c-.2,0-.29.1-.29.3,0,5.7.76,9.84,2.28,12.44,1.52,2.6,3.8,3.9,6.85,3.9,2.26,0,4.37-.61,6.33-1.84,1.96-1.23,4.61-3.22,7.95-5.97,3.54-3.04,6.65-5.38,9.35-7,2.7-1.62,5.67-2.43,8.91-2.43,2.55,0,4.44.61,5.67,1.84,1.23,1.23,2.04,3.07,2.43,5.52.39,2.46.59,6.04.59,10.75-.1,3.34-2.19,6.21-6.26,8.62-4.08,2.41-8.62,3.61-13.62,3.61-5.89,0-11.39,1.01-16.5,3.02-5.11,2.01-9.18,4.86-12.22,8.54-3.05,3.68-4.57,7.98-4.57,12.89,0,6.48,2.33,11.73,7,15.76,4.66,4.02,10.63,6.04,17.89,6.04,4.22,0,7.51-.61,9.87-1.84,2.36-1.23,4.81-2.92,7.36-5.08,1.37-1.28,2.48-2.18,3.31-2.73.83-.54,1.79-.81,2.87-.81,1.57,0,2.77.91,3.61,2.72.83,1.82,1.25,3.61,1.25,5.38.78,0,2.65-1.18,5.6-3.53,2.36-1.86,4.39-3.31,6.11-4.34,1.72-1.03,3.36-1.6,4.93-1.69.2,0,.3-.1.3-.3v-.15c0-.2-.1-.3-.3-.3ZM672.73,321c0-1.67-.52-3.46-1.55-5.38-1.03-1.91-2.48-2.87-4.34-2.87-1.47,0-2.75.54-3.83,1.62-1.08,1.08-2.31,2.8-3.68,5.15-1.97,3.24-3.95,5.77-5.96,7.59-2.01,1.82-4.79,2.72-8.32,2.72-4.52,0-8.3-1.91-11.34-5.74-3.04-3.83-4.57-8.88-4.57-15.17,0-4.12,1.03-8,3.09-11.64,2.06-3.63,4.93-6.55,8.62-8.76,3.68-2.21,7.88-3.31,12.59-3.31,1.57,0,3.83.39,6.78,1.18,2.75.79,4.71,1.18,5.89,1.18,1.67,0,3.07-.56,4.2-1.69,1.13-1.13,1.94-3.07,2.43-5.82v40.94Z"/>
  <g>
    <path class="cls-2" d="M699.29,231.81c-4.12,0-7.46,3.35-7.46,7.46s3.35,7.46,7.46,7.46,7.46-3.35,7.46-7.46-3.35-7.46-7.46-7.46ZM699.29,246.08c-3.76,0-6.81-3.06-6.81-6.81s3.06-6.81,6.81-6.81,6.81,3.06,6.81,6.81-3.06,6.81-6.81,6.81Z"/>
    <path class="cls-2" d="M701.48,239.71c.48-.47.71-1.13.71-1.97,0-.8-.24-1.41-.71-1.84-.48-.43-1.15-.65-2.02-.65h-2.89v8.23h1.38v-3.06h1.51s.04,0,.06,0l1.32,3.07h1.65l-1.6-3.37c.22-.11.42-.23.59-.4ZM697.94,236.53h1.51c.4,0,.71.11.93.34.22.23.33.55.33.98s-.11.72-.33.94c-.22.22-.53.34-.93.34h-1.51v-2.6Z"/>
  </g>
  <path class="cls-2" d="M489.22,257.59c-5.6-3.48-11.73-5.23-18.41-5.23s-12.84,1.75-18.48,5.23c-5.65,3.49-10.11,8.22-13.4,14.21-3.29,5.99-4.93,12.57-4.93,19.74s1.64,13.62,4.93,19.66c3.29,6.04,7.76,10.8,13.4,14.29,5.64,3.49,11.81,5.23,18.48,5.23s12.69-1.77,18.34-5.3c5.65-3.53,10.11-8.3,13.4-14.29,3.29-5.99,4.93-12.52,4.93-19.59s-1.65-13.75-4.93-19.74c-3.29-5.99-7.73-10.73-13.33-14.21ZM495.04,310.91c-2.5,5.84-5.89,10.46-10.16,13.85-4.27,3.39-8.96,5.08-14.07,5.08s-9.79-1.69-14.07-5.08c-4.27-3.39-7.66-8-10.16-13.85-2.5-5.84-3.76-12.35-3.76-19.52s1.25-13.52,3.76-19.37c2.5-5.84,5.89-10.46,10.16-13.85,4.27-3.39,8.96-5.08,14.07-5.08s9.79,1.69,14.07,5.08c4.27,3.39,7.66,8,10.16,13.85,2.5,5.84,3.76,12.3,3.76,19.37s-1.25,13.67-3.76,19.52Z"/>
</svg>