<?xml version="1.0" encoding="UTF-8"?>
<svg id="Calque_1" data-name="Calque 1" xmlns="http://www.w3.org/2000/svg" viewBox="0 0 1134.92 633.76">
  <defs>
    <style>
      .cls-1 {
        fill: #ffefd6;
      }

      .cls-1, .cls-2 {
        stroke-width: 0px;
      }

      .cls-2 {
        fill: #e9512d;
      }
    </style>
  </defs>
  <g>
    <path class="cls-1" d="M238.22,313.97c-3.1-7.81-7.23-11.87-12.38-12.16-.3,0-.44-.15-.44-.44v-.22c0-.29.14-.44.44-.44h34.94c.29,0,.44.15.44.44v.22c0,.3-.15.44-.44.44-2.51.15-4.83.88-6.97,2.21-2.14,1.32-3.21,3.32-3.21,5.97,0,1.47.29,2.88.88,4.2l31.62,84.03,32.51-84.48c.59-2.06.89-3.39.89-3.98,0-2.51-1.07-4.43-3.21-5.75-2.14-1.33-4.39-2.06-6.74-2.21-.3,0-.44-.15-.44-.44v-.22c0-.29.15-.44.44-.44h22.56c.29,0,.44.15.44.44v.22c0,.3-.15.44-.44.44-2.21.15-4.39,1.21-6.52,3.21-2.14,1.99-4.02,4.98-5.64,8.96l-37.59,97.3h-3.54l-37.59-97.3Z"/>
    <path class="cls-1" d="M354.1,311.54c0-2.95-.77-5.27-2.32-6.97-1.55-1.69-4.09-2.99-7.63-3.87,1.77.15,3.87.33,6.3.55,2.43.22,4.72.66,6.86,1.33,2.14.66,3.98,1.7,5.53,3.1,1.55,1.4,2.32,3.28,2.32,5.64v91.77c0,3.39.74,5.5,2.21,6.3,1.47.81,4.05,1.44,7.74,1.88h-30.96c3.68-.44,6.26-1.07,7.74-1.88,1.47-.81,2.21-2.91,2.21-6.3v-91.55ZM362.06,273.06c0,1.18-.19,2.43-.55,3.76-.37,1.33-.59,2.65-.66,3.98-.08,1.33.14,2.58.66,3.76.51,1.18,1.58,2.21,3.21,3.1-1.48-.73-3.21-1.55-5.2-2.43-1.99-.88-3.91-1.95-5.75-3.21-1.85-1.25-3.43-2.65-4.75-4.2-1.33-1.55-1.99-3.35-1.99-5.42,0-1.91.63-3.57,1.88-4.97,1.25-1.4,3.06-2.1,5.42-2.1,2.21,0,4.05.74,5.53,2.21,1.47,1.47,2.21,3.32,2.21,5.53Z"/>
    <path class="cls-1" d="M478.72,310.6c-1.69-.89-3.95-2.12-6.75-3.72-4.87-3.08-9.41-5.48-13.59-7.17-1.86-.75-3.86-1.34-6-1.74,6.56,7.78,15.28,12.53,25.09,15.75,1.65.54,1.15-.63,1.18-1.32,0-.61.02-1.22.07-1.81ZM495.86,380.77c-.31-.16-.52-.09-.68.21-4.12,8.7-9.69,15.64-16.7,20.79s-15.59,7.74-25.75,7.74c-9.29,0-17.54-2.33-24.78-6.96-7.22-4.66-12.82-11.05-16.79-19.24-4-8.18-5.97-17.38-5.97-27.54,0-9.59,1.58-18.76,4.75-27.54,3.17-8.77,7.62-15.92,13.38-21.45,5.74-5.53,12.16-8.3,19.23-8.3.68,0,1.36.02,2.02.07,1.6.14,3.1.42,4.49.87-.54-.68-1.08-1.39-1.55-2.12-1.25-.09-2.54-.14-3.86-.14h-.47c-9.24.09-17.78,2.77-25.51,8.07-7.88,5.38-14.16,12.6-18.79,21.66-4.66,9.08-6.98,18.76-6.98,29.09s2.45,20.65,7.31,29.63c4.87,9.01,11.71,16.11,20.55,21.35,8.87,5.22,18.95,7.85,30.31,7.85,10.61,0,20.08-3.1,28.41-9.29,8.32-6.21,14.2-14.23,17.59-24.1.14-.31.07-.52-.21-.66Z"/>
    <path class="cls-1" d="M494.31,301.15c0,9.83-1.48,16.7-4.47,20.62-.42.56-.89,1.06-1.36,1.5-.52.47-1.08.87-1.67,1.2-1.41.82-3.06,1.22-4.89,1.22-3.25,0-6.04-1.01-8.39-2.99-2.37-2-5.24-5.13-8.63-9.41-.38-.49-.75-.96-1.15-1.41-3.5-4.3-6.68-7.55-9.45-9.76-1.53-1.2-3.27-2.12-5.22-2.7-.54-.68-1.08-1.39-1.55-2.12,1.69.14,3.32.35,4.87.66,6.56,7.78,15.28,12.53,25.09,15.75,1.65.54,1.15-.63,1.18-1.32,0-.61.02-1.22.07-1.81.35.16.68.33.99.49,1.76.89,3.62,1.32,5.53,1.32,2.35,0,4.23-1.2,5.64-3.64,1.41-2.42,2.16-4.96,2.33-7.62,0-.31.14-.45.45-.45h.21c.28,0,.45.14.45.45Z"/>
    <path class="cls-1" d="M524.82,302.25h-11.94v-1.55h11.94v-13.49c0-2.95-.77-5.27-2.32-6.97-1.55-1.69-4.09-2.99-7.63-3.87,1.77.15,3.87.33,6.3.55,2.43.22,4.72.66,6.86,1.32,2.13.66,3.98,1.7,5.53,3.1,1.55,1.4,2.32,3.28,2.32,5.64v13.71h27.2v1.55h-27.2v75.41c0,11.5,1.47,20.09,4.42,25.77,2.95,5.68,7.22,8.51,12.83,8.51,4.42,0,8.03-1.55,10.84-4.64,2.8-3.1,4.83-6.6,6.08-10.51,1.25-3.9,1.77-7.66,1.55-11.28-.22-3.61-1.22-6-2.99-7.19,7.22,1.77,10.84,6.05,10.84,12.83,0,3.1-.7,5.97-2.1,8.63-1.4,2.65-3.32,5.01-5.75,7.08-2.43,2.07-5.35,3.69-8.74,4.87-3.39,1.18-7,1.77-10.84,1.77-8.4,0-15.04-2.8-19.9-8.4-4.86-5.6-7.3-13.34-7.3-23.22v-79.61Z"/>
    <path class="cls-1" d="M622.23,406.96c-8.48-5.23-15.19-12.38-20.12-21.45-4.94-9.07-7.41-18.91-7.41-29.52s2.47-20.64,7.41-29.63c4.94-8.99,11.64-16.1,20.12-21.34,8.48-5.23,17.73-7.85,27.75-7.85s19.24,2.62,27.64,7.85c8.4,5.24,15.07,12.35,20.01,21.34,4.94,8.99,7.41,18.87,7.41,29.63s-2.47,20.42-7.41,29.41c-4.94,8.99-11.65,16.14-20.12,21.45-8.48,5.31-17.66,7.96-27.53,7.96s-19.28-2.62-27.75-7.85ZM613.61,385.07c3.76,8.77,8.85,15.7,15.26,20.79,6.41,5.09,13.45,7.63,21.12,7.63s14.71-2.54,21.12-7.63c6.41-5.09,11.5-12.01,15.26-20.79,3.76-8.77,5.64-18.54,5.64-29.3s-1.88-20.31-5.64-29.08c-3.76-8.77-8.85-15.7-15.26-20.79-6.41-5.09-13.46-7.63-21.12-7.63s-14.71,2.54-21.12,7.63c-6.41,5.09-11.5,12.02-15.26,20.79-3.76,8.77-5.64,18.47-5.64,29.08s1.88,20.53,5.64,29.3Z"/>
    <path class="cls-1" d="M719.2,410.83v-.22c0-.29.14-.44.44-.44,4.27,0,7.41-.81,9.4-2.43,1.99-1.62,3.21-3.68,3.65-6.19.44-2.51.66-6.04.66-10.62v-65.68c0-5.6-.11-9.18-.33-10.73-.22-1.55-.77-2.32-1.66-2.32-1.18,0-2.58.52-4.2,1.55-.89.59-1.88,1.14-2.99,1.66-1.11.52-2.4.77-3.87.77-.3,0-.44-.14-.44-.44v-.22c0-.29.14-.44.44-.44,2.36-.14,4.83-1,7.41-2.54,2.58-1.55,5.64-3.72,9.18-6.52,4.42-3.54,7.22-5.31,8.4-5.31v30.96c6.34-9.29,14.45-17.36,24.33-24.22,9.88-6.85,19.53-10.28,28.97-10.28v14.15c-5.01-1.47-9.88-2.21-14.6-2.21-6.63,0-12.75,1.47-18.35,4.42-6.49,3.39-11.5,8.7-15.04,15.92-3.54,7.23-5.31,14.67-5.31,22.34v39.14c0,4.57.22,8.11.66,10.62.44,2.51,1.66,4.57,3.65,6.19,1.99,1.63,5.12,2.43,9.4,2.43.29,0,.44.15.44.44v.22c0,.3-.15.44-.44.44h-39.36c-.3,0-.44-.14-.44-.44Z"/>
    <path class="cls-1" d="M831.1,311.54c0-2.95-.77-5.27-2.32-6.97-1.55-1.69-4.09-2.99-7.63-3.87,1.77.15,3.87.33,6.3.55,2.43.22,4.72.66,6.86,1.33,2.14.66,3.98,1.7,5.53,3.1,1.55,1.4,2.32,3.28,2.32,5.64v91.77c0,3.39.74,5.5,2.21,6.3,1.47.81,4.05,1.44,7.74,1.88h-30.96c3.68-.44,6.26-1.07,7.74-1.88,1.47-.81,2.21-2.91,2.21-6.3v-91.55ZM839.06,273.06c0,1.18-.19,2.43-.55,3.76-.37,1.33-.59,2.65-.66,3.98-.08,1.33.14,2.58.66,3.76.51,1.18,1.58,2.21,3.21,3.1-1.48-.73-3.21-1.55-5.2-2.43-1.99-.88-3.91-1.95-5.75-3.21-1.85-1.25-3.43-2.65-4.75-4.2-1.33-1.55-1.99-3.35-1.99-5.42,0-1.91.63-3.57,1.88-4.97,1.25-1.4,3.06-2.1,5.42-2.1,2.21,0,4.05.74,5.53,2.21,1.47,1.47,2.21,3.32,2.21,5.53Z"/>
    <path class="cls-1" d="M880.19,362.73c4.57-5.53,10.69-9.8,18.35-12.83,7.66-3.02,15.92-4.53,24.77-4.53,7.52,0,14.34-1.8,20.46-5.42,6.12-3.61,9.25-7.92,9.4-12.94,0-7.08-.3-12.46-.88-16.14-.59-3.68-1.81-6.45-3.65-8.29-1.85-1.84-4.68-2.76-8.51-2.76-4.86,0-9.33,1.22-13.38,3.65-4.06,2.43-8.74,5.94-14.04,10.5-5.01,4.13-8.99,7.11-11.94,8.96-2.95,1.84-6.12,2.76-9.51,2.76-4.57,0-8-1.95-10.28-5.86-2.29-3.9-3.43-10.13-3.43-18.69,0-.29.15-.44.44-.44h.22c.29,0,.44.15.44.44.15,2.65.92,5.2,2.32,7.63,1.4,2.43,3.35,3.65,5.86,3.65,2.36,0,4.86-.48,7.52-1.44,2.65-.96,6.19-2.4,10.61-4.31,6.49-3.1,12.31-5.45,17.47-7.08,5.16-1.62,10.69-2.43,16.59-2.43,16.66,0,25.36,11.43,26.1,34.28v55.29c0,5.6.11,9.18.33,10.72.22,1.55.77,2.32,1.66,2.32,1.33,0,2.73-.52,4.2-1.55.88-.59,1.88-1.14,2.99-1.66,1.11-.51,2.39-.77,3.87-.77.29,0,.44.15.44.44v.22c0,.3-.15.44-.44.44-2.36.15-4.83.99-7.41,2.54-2.58,1.55-5.64,3.72-9.18,6.52-4.42,3.54-7.23,5.31-8.4,5.31,0-2.65-.63-5.34-1.88-8.07-1.25-2.73-3.06-4.09-5.42-4.09-1.62,0-3.06.41-4.31,1.21-1.25.81-2.91,2.18-4.98,4.09-3.84,3.24-7.52,5.79-11.06,7.63-3.54,1.84-8.48,2.76-14.82,2.76-10.91,0-19.87-3.02-26.87-9.07-7.01-6.04-10.5-13.93-10.5-23.66,0-7.37,2.28-13.82,6.86-19.35ZM949.52,347.48c-1.7,1.7-3.8,2.54-6.3,2.54-1.77,0-4.72-.59-8.85-1.77-4.42-1.18-7.82-1.77-10.17-1.77-7.08,0-13.38,1.66-18.91,4.97-5.53,3.32-9.84,7.71-12.94,13.16-3.1,5.46-4.64,11.28-4.64,17.47,0,9.44,2.28,17.03,6.86,22.78,4.57,5.75,10.25,8.63,17.03,8.63,5.31,0,9.47-1.36,12.5-4.09,3.02-2.73,6-6.52,8.96-11.39,2.06-3.54,3.9-6.12,5.53-7.74s3.54-2.43,5.75-2.43c2.8,0,4.98,1.44,6.52,4.31,1.55,2.88,2.32,5.57,2.32,8.07v-61.48c-.74,4.13-1.96,7.04-3.65,8.74Z"/>
  </g>
  <g>
    <path class="cls-2" d="M556.69,204.49c-1.93,9.94-5.58,18.21-12.19,25.07-.41.62-.8,1.31-2.08,1.19.56-.71,1.04-1.28,1.51-1.87,3.97-6.97,6.53-14.48,7.77-22.4,2.61-16.79-1.9-32.01-10.29-46.37-.39-.65-.65-1.6-1.84-1.42,8.87,18.93,7.12,38.48,2.08,46.34,8.16-39.93-23.26-71.2-49.81-74.76,16.49,7.21,27.14,19.22,31.62,36.46,3.41,13.17,3.53,26.22-1.51,39.04-1.81,2.88-2.94,6.17-5.37,8.63-.5,1.04-1.01,2.08-2.73,2.52.83-1.28,1.48-2.22,2.11-3.2,1.9-4.09,3.86-8.16,4.78-12.64,3.83-14.92-.33-27.71-10.59-38.8l-1.01-1.01.53,1.51s1.72,4.69,2.43,7.09c2.17,7.62,1.04,15.07-1.19,22.49-3.17,7.48-7.33,14.3-12.81,20.32-4.66,4.3-9.82,7.83-15.87,11.6,3.23-8.16,5.52-15.66,3.59-23.73.09-.86-.15-1.6-.53-2.34.09-.65-.03-1.25-.53-1.75-3.23-10.98-11.24-15.75-22.19-16.76,5.55-4.39,7.33-11.66,4.78-20.11-.18,6.2-1.9,11.18-7.15,15.04v-5.1c-2.31,4.27-5.99,6.67-9.94,8.84-1.69.92-3.32,2.05-4.75,3.32-3.62,3.17-5.67,7.24-4.78,12.1.39,2.11.5,4.09.27,6.17-.95,3.83.39,7,4.03,9.31-.86-3.8,1.25-6.44,3.06-9.2,0,0,.03-.03.03-.06.59-.33,1.19-.68,1.78-.98,2.58-1.25,5.28-1.69,7.71.12,2.31,1.75,2.14,4.24,1.6,6.88-.92,4.6-4.03,7.8-6.79,11.21-10.98,13.53-17,28.83-16.67,46.37.12,7.06,1.87,13.73,5.75,19.76.3.62.5,1.28.89,1.81,1.22,1.84,2.52,3.56,3.92,5.16,8.28,9.82,19.28,15.81,31.65,19.88,2.08.68,1.45-.8,1.48-1.66,0-.77.03-1.54.09-2.28.65-8.87,4.75-15.9,12.25-21.12,7.54-5.28,16.08-8.63,24.41-12.28,5.1-2.25,10.2-4.36,14.65-7.74.5-.36.98-.74,1.45-1.13.12-.09.24-.18.36-.24.95-.71,1.99-1.36,2.88-2.14,10.8-9.37,17.8-21.06,20.65-35.12,1.42-7.03,1.96-14.15.5-22.01ZM446.25,192.8c-.95-3.11.47-5.4,2.7-7.56.39,3.03,1.1,5.99-2.7,7.56Z"/>
    <path class="cls-2" d="M467.52,395.51c-3.01-1.6-5.82-3.47-8.41-5.69-8.19-7.03-10.75-16.57-7.34-26.79,1.9-5.7,4.8-10.9,7.65-16.14,1.93-3.55,3.2-7.23,2.9-11.37-.71-9.73-6.1-16.88-12.74-23.69-2.82,5.82-5.07,8.53-9.67,11.92-3.62,2.66-7.59,4.68-11.74,6.32-1.72.68-1.59,1.15-.42,2.29,2.65,2.59,5.55,4.84,8.7,6.78,6.58,4.04,8.15,3.68,12.25-3.07,1.25-2.05,2.12-4.33,3.36-6.92.35,5.73-.44,10.63-2.73,15.45-4.06,8.56-6.72,17.47-5.4,27.19,1.68,12.34,12.8,23.69,24.99,25.22.22-1.12-.76-1.18-1.38-1.51Z"/>
    <path class="cls-2" d="M503.47,330.8c-3.17,3.59-6.67,6.2-10.38,8.57-1.25.8-1.72-.42-2.34-1.04-3.98-4.09-7.92-8.25-11.9-12.37-.44-.44-.95-.89-1.87-1.75,1.01,3.03,2.14,5.37,2.55,7.92,1.42,8.6-1.78,15.37-8.28,20.82-2.82,2.34-5.76,4.6-8.19,7.39-4.48,5.16-7.48,10.86-6.47,18.07-1.81-2.79-1.78-5.87-1.33-8.93.95-6.65,3.41-12.82,6.97-18.36,5.99-9.26,5.52-18.6,1.42-28.24-.45-1.04-1.1-1.99-1.66-3-5.55-8.01-13.5-13.94-19.4-21.6-1.93-2.55-4-4.92-6.14-7.21-.56-.59-1.16-1.19-1.75-1.75-8.78-8.75-19.07-15.49-30.17-21.3-1.78-.92-3.56-1.93-5.01-3.38-5.34-3.5-9.61-8.07-13.44-13.08-9.82-12.9-13.32-27.65-12.4-43.64,0-.47.12-.95.21-1.42.06-.39.18-.74.44-1.69,1.13,5.22,2.49,9.82,4.69,14.15,2.2,4.27,5.01,8.1,8.51,11.6-13.85-24.35-11.63-48.03,2.76-71.23-5.76,14.74-7.62,29.66-1.78,44.94-3.38-17.09.8-32.69,9.91-46.9,9.23-14.45,22.99-22.9,39.19-27.56.15.21.27.42.42.62-2.4,1.33-4.9,2.58-7.24,4-15.31,9.4-22.87,23.58-25.27,40.97-1.54,11.27-.53,22.19,4.3,32.63,1.63,2.22,2.61,4.89,4.63,6.82.27.42.5.8.74,1.19.48-.62.42-1.19-.15-1.72-2.76-6.08-5.79-12.07-6.02-18.93-.47-.95-.56-1.99-.41-3.03.03-1.16.03-2.31.03-3.47.5-10.59,5.04-19.28,12.43-26.7-3.23,7.06-4,14.45-3.32,22.04,1.96,9.7,6.35,18.24,12.67,25.84.53.65,1.04,1.33,1.54,1.99,3.23,2.85,6.32,5.9,10.15,7.98,1.54.86,1.28,1.72.53,3-6.17,10.47-9.85,21.71-11.15,33.82-.56,5.37.36,10.56.83,15.84,1.72,6.17,4.3,11.75,7.86,16.79.59.92,1.28,1.81,1.96,2.67,1.99,2.49,4.24,4.87,6.76,7.06,3.71,3.26,7.62,6.17,11.75,8.66.5.56.98,1.16,1.45,1.78,4.27,5.4,7.89,9.34,10.89,11.87,2.97,2.49,6.5,3.77,10.59,3.77,2.31,0,4.39-.5,6.17-1.54,4,3.06,8.57,5.34,13.73,7.03Z"/>
    <path class="cls-2" d="M508.51,321.37c.12,1.87-.74,3.09-1.28,4.42-.8,2.02-2.08,2.64-4.33,1.96-4.03-1.25-7.62-3.17-11.06-5.49.59-.56,1.19-1.19,1.72-1.9,1.31.42,2.61.8,3.98,1.04,3.65.65,7.27.8,10.98-.03Z"/>
    <path class="cls-2" d="M441.42,319.23c.4-.43,1.2-.85.43-1.7-6.31,3.06-12.68,5.87-19.97,4.03l.04.02c-.55,1.14.19,2.07.56,3.01,1.52,3.82,1.93,3.97,5.83,2.86,5.17-1.48,9.48-4.3,13.11-8.21Z"/>
    <path class="cls-2" d="M466.89,177.61c7.34-2.34,9.51-18.92-1.79-29.37,3.95,9.77,7.53,19.28,1.79,29.37Z"/>
    <path class="cls-2" d="M421.88,321.56l-.06-.03s.06.02.06.03Z"/>
    <polygon class="cls-2" points="421.88 321.56 421.92 321.58 421.88 321.56 421.88 321.56"/>
  </g>
</svg>