<?xml version="1.0" encoding="UTF-8"?>
<svg id="Layer_1" data-name="Layer 1" xmlns="http://www.w3.org/2000/svg" viewBox="0 0 210.31 204.48">
  <defs>
    <style>
      .cls-1 {
        fill: #fff;
        stroke-width: 0px;
      }
    </style>
  </defs>
  <path class="cls-1" d="M59.16,88.3c5.51-5,11.06-9.97,16.53-15.02,9.38-8.67,19.02-17.04,29.09-24.92,2.46-1.93,3.03-4.33.8-6.99-2.07-2.47-3.83-2.27-6.27-.19-5.92,5.04-12.32,9.54-18.16,14.67-9.79,8.61-19.32,17.51-28.92,26.33-9.5,8.74-12.23,19.5-9,31.8.68,2.61,1.52,5.16,4.73,6.58,3.79,1.68,6,5.92,4.75,9.58-2.43,7.08,1.78,12.15,3.9,17.85,2.56,6.88,5.45,13.8,6.08,21.02.66,7.63-1.15,15.15-7.51,20.61-3.48,2.99-7.54,1.33-11.34,1.28-1.26-.02-2.58-1.02-4.1-1-5.18.08-5.93-3.24-4.07-6.81,5.53-10.62,6.53-21.91,6.04-33.56-.17-3.91-1-6.76-4.78-9.14-6.64-4.2-8.21-9.04-5.01-15.81,1.77-3.75,1.39-7.2.65-10.54-1.47-6.61-1.47-13.16-.05-19.62.71-3.24-.37-3.59-2.93-3.57-6.05.05-12.11-.12-18.16.07-2.94.09-5.08-1.11-5.88-3.59-.73-2.24-.15-4.15,2.29-6.14,20.14-16.5,40.56-32.62,61.18-48.51,6.49-5.01,13.02-10.01,19.12-15.47,3.73-3.33,7.98-4.02,12.43-4.04,32.57-.1,65.15-.06,97.72-.05,2.65,0,5.44-.59,6.53,3.1.88,2.99-.83,4.63-2.66,6.14-9.51,7.83-19.02,15.64-28.67,23.3-14.76,11.7-29.88,22.96-44.34,35.02-7.1,5.92-13.93,9.76-23.73,9.17-14.98-.9-30.05-.24-45.08-.24-.39-.44-.77-.89-1.16-1.33l-.02.02Z"/>
  <path class="cls-1" d="M87.11,100.91c8.99-.93,19.96,1.1,30.93-1.04,8.1-1.58,12.75-7.87,18.69-12.25,12.85-9.46,25.08-19.77,37.53-29.78,2.45-1.97,4.1-1.83,5.12,1.35,2.93,9.07,6.39,18.01,8.67,27.24,1.63,6.59-1.86,12.44-5.96,17.4-9.08,10.99-21,18.43-33.62,24.41-13.76,6.53-28.23,11.51-43.41,13.62-11.14,1.54-22.39,2.08-33.45-.9-3.62-.97-5.55-3.18-4.87-7.29,1.3-7.9-1.68-14.8-8.69-18.09-5.43-2.55-5.26-7.52-6.1-11.81-.58-2.99,2.78-2.85,5.07-2.85h30.1,0Z"/>
</svg>