<?xml version="1.0" encoding="UTF-8"?>
<svg id="Layer_1" data-name="Layer 1" xmlns="http://www.w3.org/2000/svg" viewBox="0 0 214 104">
  <defs>
    <style>
      .cls-1 {
        fill: #1e539e;
      }

      .cls-1, .cls-2 {
        stroke-width: 0px;
      }

      .cls-2 {
        fill: #ee5a2a;
      }
    </style>
  </defs>
  <g>
    <path class="cls-1" d="M9.12,65.43v8.4h-2.12v-8.4h2.12Z"/>
    <path class="cls-1" d="M16.45,69.77v4.07h-1.89v-3.47c0-.9-.32-1.21-.94-1.21-.72,0-1.13.36-1.13,1.2v3.48h-1.89v-6.02h1.89v.87h.02c.32-.55.91-1.06,1.98-1.06,1.17,0,1.96.76,1.96,2.14Z"/>
    <path class="cls-1" d="M23.09,72.06c0,1.27-.97,1.96-2.64,1.96-2.16,0-2.99-.96-3.04-2.19h1.77c.06.6.46.89,1.2.89.53,0,.83-.18.83-.52,0-.52-.57-.59-1.52-.8-1.03-.22-2.16-.6-2.16-1.86,0-1.09.94-1.93,2.64-1.93,1.94,0,2.69.98,2.75,2.03h-1.77c-.06-.48-.32-.74-.93-.74-.53,0-.8.19-.8.48,0,.42.38.43,1.31.63,1.19.26,2.37.66,2.37,2.02Z"/>
    <path class="cls-1" d="M26.37,69.23v2.49c0,.68.25.68,1.05.68v1.41c-.34.07-.64.13-1.17.13-1.38,0-1.77-.73-1.77-2.08v-2.63h-.84v-1.41h.84v-1.68h1.89v1.68h1.05v1.41h-1.05Z"/>
    <path class="cls-1" d="M28.55,66.27c0-.54.41-.83.94-.83s.94.29.94.83-.41.83-.94.83-.94-.28-.94-.83ZM30.44,67.82v6.02h-1.89v-6.02h1.89Z"/>
    <path class="cls-1" d="M34.19,69.23v2.49c0,.68.25.68,1.05.68v1.41c-.34.07-.64.13-1.17.13-1.38,0-1.77-.73-1.77-2.08v-2.63h-.84v-1.41h.84v-1.68h1.89v1.68h1.05v1.41h-1.05Z"/>
    <path class="cls-1" d="M42.18,67.82v6.02h-1.89v-.87h-.02c-.32.55-.91,1.06-1.98,1.06-1.17,0-1.96-.76-1.96-2.14v-4.07h1.89v3.47c0,.9.32,1.21.94,1.21.72,0,1.13-.36,1.13-1.2v-3.48h1.89Z"/>
    <path class="cls-1" d="M45.94,69.23v2.49c0,.68.25.68,1.05.68v1.41c-.34.07-.64.13-1.17.13-1.38,0-1.77-.73-1.77-2.08v-2.63h-.84v-1.41h.84v-1.68h1.89v1.68h1.05v1.41h-1.05Z"/>
    <path class="cls-1" d="M56.58,65.43v8.4h-1.89v-.6h-.02c-.24.32-.87.79-1.75.79-1.61,0-2.63-1.22-2.63-3.2s1.03-3.2,2.63-3.2c.87,0,1.51.47,1.75.79h.02v-2.98h1.89ZM54.66,70.83c0-1.17-.47-1.79-1.24-1.79s-1.24.61-1.24,1.79.47,1.79,1.24,1.79,1.24-.61,1.24-1.79Z"/>
    <path class="cls-1" d="M61.93,72.01h1.88c-.33,1.21-1.27,2.01-2.91,2.01-2.01,0-3.22-1.32-3.22-3.2s1.19-3.2,3.12-3.2c2.07,0,3.12,1.5,3.12,3.69h-4.34c0,.85.63,1.29,1.3,1.29s.96-.31,1.07-.6ZM59.56,70.18h2.45c0-.83-.51-1.26-1.23-1.26s-1.23.42-1.23,1.26Z"/>
    <path class="cls-1" d="M70.31,72.06c0,1.27-.97,1.96-2.64,1.96-2.16,0-2.99-.96-3.04-2.19h1.77c.06.6.46.89,1.2.89.53,0,.83-.18.83-.52,0-.52-.57-.59-1.52-.8-1.03-.22-2.16-.6-2.16-1.86,0-1.09.94-1.93,2.64-1.93,1.94,0,2.69.98,2.75,2.03h-1.77c-.06-.48-.32-.74-.93-.74-.53,0-.8.19-.8.48,0,.42.38.43,1.31.63,1.19.26,2.37.66,2.37,2.02Z"/>
    <path class="cls-1" d="M73.93,65.43h2.6l1.73,5.36h.02l1.74-5.36h2.6v8.4h-2.01v-5.23h-.02l-1.57,5.23h-1.49l-1.57-5.23h-.02v5.23h-2.01v-8.4Z"/>
    <path class="cls-1" d="M88.2,72.01h1.88c-.33,1.21-1.27,2.01-2.91,2.01-2.01,0-3.22-1.32-3.22-3.2s1.19-3.2,3.12-3.2c2.07,0,3.12,1.5,3.12,3.69h-4.34c0,.85.63,1.29,1.3,1.29s.96-.31,1.07-.6ZM85.83,70.18h2.45c0-.83-.51-1.26-1.23-1.26s-1.23.42-1.23,1.26ZM87.74,67.02h-1.42l.51-1.64h2.12l-1.22,1.64Z"/>
    <path class="cls-1" d="M93.54,69.23v2.49c0,.68.25.68,1.05.68v1.41c-.34.07-.64.13-1.17.13-1.38,0-1.77-.73-1.77-2.08v-2.63h-.84v-1.41h.84v-1.68h1.89v1.68h1.05v1.41h-1.05Z"/>
    <path class="cls-1" d="M95.72,66.27c0-.54.41-.83.94-.83s.94.29.94.83-.41.83-.94.83-.94-.28-.94-.83ZM97.61,67.82v6.02h-1.89v-6.02h1.89Z"/>
    <path class="cls-1" d="M102.95,72.01h1.88c-.33,1.21-1.27,2.01-2.91,2.01-2.01,0-3.22-1.32-3.22-3.2s1.19-3.2,3.12-3.2c2.07,0,3.12,1.5,3.12,3.69h-4.34c0,.85.63,1.29,1.3,1.29s.96-.31,1.07-.6ZM100.58,70.18h2.45c0-.83-.51-1.26-1.23-1.26s-1.23.42-1.23,1.26Z"/>
    <path class="cls-1" d="M109.92,67.76v1.64h-.02c-.97-.18-1.99.35-1.99,1.63v2.8h-1.89v-6.02h1.89v.99h.02c.29-.67.81-1.09,1.48-1.09.17,0,.31,0,.52.05Z"/>
    <path class="cls-1" d="M116.29,72.06c0,1.27-.97,1.96-2.64,1.96-2.16,0-2.99-.96-3.04-2.19h1.77c.06.6.46.89,1.2.89.53,0,.83-.18.83-.52,0-.52-.57-.59-1.52-.8-1.03-.22-2.16-.6-2.16-1.86,0-1.09.94-1.93,2.64-1.93,1.94,0,2.69.98,2.75,2.03h-1.77c-.06-.48-.32-.74-.93-.74-.53,0-.8.19-.8.48,0,.42.38.43,1.31.63,1.19.26,2.37.66,2.37,2.02Z"/>
    <path class="cls-1" d="M121.99,72.08l-.54,1.75h-2.12l3.06-8.4h2.12l3.04,8.4h-2.12l-.54-1.75h-2.89ZM124.41,70.47l-.96-3.1h-.02l-.96,3.1h1.94Z"/>
    <path class="cls-1" d="M134.75,70.83c0,1.97-1.03,3.2-2.63,3.2-.87,0-1.51-.47-1.75-.79h-.02v2.68h-1.89v-8.09h1.89v.6h.02c.24-.32.87-.79,1.75-.79,1.61,0,2.63,1.22,2.63,3.2ZM132.86,70.83c0-1.17-.47-1.79-1.24-1.79s-1.24.61-1.24,1.79.47,1.79,1.24,1.79,1.24-.61,1.24-1.79Z"/>
    <path class="cls-1" d="M142.17,70.83c0,1.97-1.03,3.2-2.63,3.2-.87,0-1.51-.47-1.75-.79h-.02v2.68h-1.89v-8.09h1.89v.6h.02c.24-.32.87-.79,1.75-.79,1.61,0,2.63,1.22,2.63,3.2ZM140.29,70.83c0-1.17-.47-1.79-1.24-1.79s-1.24.61-1.24,1.79.47,1.79,1.24,1.79,1.24-.61,1.24-1.79Z"/>
    <path class="cls-1" d="M145.21,65.43v8.4h-1.89v-8.4h1.89Z"/>
    <path class="cls-1" d="M146.52,66.27c0-.54.41-.83.94-.83s.94.29.94.83-.41.83-.94.83-.94-.28-.94-.83ZM148.41,67.82v6.02h-1.89v-6.02h1.89Z"/>
    <path class="cls-1" d="M155.83,67.82v8.09h-1.89v-2.68h-.02c-.24.32-.87.79-1.75.79-1.61,0-2.63-1.22-2.63-3.2s1.03-3.2,2.63-3.2c.87,0,1.51.47,1.75.79h.02v-.6h1.89ZM153.91,70.83c0-1.17-.47-1.79-1.24-1.79s-1.24.61-1.24,1.79.47,1.79,1.24,1.79,1.24-.61,1.24-1.79Z"/>
    <path class="cls-1" d="M162.99,67.82v6.02h-1.89v-.87h-.02c-.32.55-.91,1.06-1.98,1.06-1.17,0-1.96-.76-1.96-2.14v-4.07h1.89v3.47c0,.9.32,1.21.94,1.21.72,0,1.13-.36,1.13-1.2v-3.48h1.89Z"/>
    <path class="cls-1" d="M168.34,72.01h1.88c-.33,1.21-1.27,2.01-2.91,2.01-2.01,0-3.22-1.32-3.22-3.2s1.19-3.2,3.12-3.2c2.07,0,3.12,1.5,3.12,3.69h-4.34c0,.85.63,1.29,1.3,1.29s.96-.31,1.07-.6ZM165.97,70.18h2.45c0-.83-.51-1.26-1.23-1.26s-1.23.42-1.23,1.26ZM167.88,67.02h-1.42l.51-1.64h2.12l-1.22,1.64Z"/>
    <path class="cls-1" d="M176.72,72.06c0,1.27-.97,1.96-2.64,1.96-2.16,0-2.99-.96-3.04-2.19h1.77c.06.6.46.89,1.2.89.53,0,.83-.18.83-.52,0-.52-.57-.59-1.52-.8-1.03-.22-2.16-.6-2.16-1.86,0-1.09.94-1.93,2.64-1.93,1.94,0,2.69.98,2.75,2.03h-1.77c-.06-.48-.32-.74-.93-.74-.53,0-.8.19-.8.48,0,.42.38.43,1.31.63,1.19.26,2.37.66,2.37,2.02Z"/>
    <path class="cls-1" d="M180.34,65.43h4.09c1.76,0,2.86.92,2.86,2.68s-1.1,2.68-2.86,2.68h-1.97v3.04h-2.12v-8.4ZM182.47,69.06h1.52c.73,0,1.18-.25,1.18-.95s-.45-.95-1.18-.95h-1.52v1.9Z"/>
    <path class="cls-1" d="M192.26,67.76v1.64h-.02c-.97-.18-1.99.35-1.99,1.63v2.8h-1.89v-6.02h1.89v.99h.02c.29-.67.81-1.09,1.48-1.09.17,0,.31,0,.52.05Z"/>
    <path class="cls-1" d="M193.31,66.27c0-.54.41-.83.94-.83s.94.29.94.83-.41.83-.94.83-.94-.28-.94-.83ZM195.2,67.82v6.02h-1.89v-6.02h1.89Z"/>
    <path class="cls-1" d="M197.95,67.82l1.23,3.92h.02l1.23-3.92h1.89l-2.09,6.02h-2.08l-2.09-6.02h1.89Z"/>
    <path class="cls-1" d="M206.93,72.01h1.88c-.33,1.21-1.27,2.01-2.91,2.01-2.01,0-3.22-1.32-3.22-3.2s1.19-3.2,3.12-3.2c2.07,0,3.12,1.5,3.12,3.69h-4.34c0,.85.63,1.29,1.3,1.29s.96-.31,1.07-.6ZM204.56,70.18h2.45c0-.83-.51-1.26-1.23-1.26s-1.23.42-1.23,1.26ZM206.47,67.02h-1.42l.51-1.64h2.12l-1.22,1.64Z"/>
  </g>
  <g>
    <path class="cls-2" d="M8.21,89.5l1.41-.95c-.08.26-.16,1.04-.24,2.32,0,1.68.87,2.58,2.6,2.71,2.69-.15,3.6-1.8,2.74-4.94-.24-1.03-.52-1.78-.84-2.25l3.27-.88c.16.74.24,1.71.24,2.91h.1c.53-1.24,1.36-2.43,2.51-3.58,1.27-1.16,2.55-1.77,3.84-1.83,1.86.12,3,.95,3.41,2.49.41,1.62.25,3.53-.48,5.74-3.98.38-7.12.38-9.43,0-.41,3.4-2.2,5.1-5.37,5.1-1.29,0-2.43-.46-3.44-1.39-1.03-.96-1.4-2.02-1.1-3.2.4-1.19.65-1.94.76-2.25ZM18.76,88.55c2.99.25,5.04.23,6.13-.07,0-1.75-.72-2.63-2.15-2.63-1.7,0-3.03.9-3.99,2.69Z"/>
    <path class="cls-2" d="M34.17,91.27h-.6l-4.17-.02c.17-3.63-.18-7.81-1.05-12.54l3.46-.99c.35,3.53.5,7.09.45,10.68h1.9v2.87Z"/>
    <path class="cls-2" d="M40.29,90.15c-.27.21-.51.36-.73.46-.75.37-1.45.58-2.1.65-.15.01-.68.01-1.59,0h-1.97v-2.87h1.92c1.27.01,2.08-.04,2.43-.17.23-.09.62-.29,1.17-.62.54-.32.82-.51.85-.55-.83-.59-1.26-.89-1.29-.9-.9-.46-1.54-.73-1.92-.83-.37-.09-.7-.08-1.01.01-.26.09-.52.28-.78.58l-.87.28c.02-1.28.19-2.14.49-2.57.31-.46.69-.77,1.15-.94.83-.32,1.88-.08,3.15.72.27.17.85.56,1.73,1.18.7.49,1.28.86,1.74,1.1.45.23.84.38,1.18.46l.24.06-.69,1.63c-.48.07-.92.26-1.31.55h2.42v2.87c-1.95,0-3.35-.37-4.21-1.11ZM36.92,77.94l1.77,1.63c-.41.6-1,1.15-1.77,1.63l-1.74-1.63c.75-.49,1.33-1.03,1.74-1.63Z"/>
    <path class="cls-2" d="M48.73,91.27h-4.56v-2.87h1.86c-.03-1.66-.42-4.88-1.17-9.67l3.46-.99.6,1.83-.45,1.3c.16,2.32.25,4.84.26,7.55v2.85Z"/>
    <path class="cls-2" d="M51.28,91.25c.17-3.63-.18-7.81-1.05-12.54l3.46-.99c.45,4.47.59,8.99.43,13.55l-2.84-.02Z"/>
    <path class="cls-2" d="M63.05,89.22l-1.67,1.41-2.77-1.1c-.62-.24-.75-1.21-.38-2.91.13-.52.66-1.07,1.6-1.66l2.72-1.77c-.05-.25-.09-.51-.12-.77l3.03-1.04c.14,2.19.22,4.53.24,7.02h1.36v2.87h-4.01v-2.05ZM61.03,77.14l1.77,1.59c-.41.63-1,1.18-1.77,1.63l-1.77-1.63c.76-.46,1.35-.99,1.77-1.59ZM62.77,84.96c-1.83,1.06-2.84,1.76-3.03,2.1,1.16.91,2.23.86,3.2-.15-.03-.62-.09-1.27-.17-1.94ZM63.65,77.14l1.77,1.59c-.41.63-1,1.18-1.77,1.63l-1.72-1.63c.73-.46,1.3-.99,1.72-1.59Z"/>
    <path class="cls-2" d="M70.53,88.4c-.08-1.03-.53-2.4-1.36-4.1l3.46-.99c.24,1.8.37,3.49.38,5.1h1.55v2.87h-.86c-.25-.22-.5-.48-.74-.77,0,.06-.02.32-.07.77h-6.09v-2.87h3.72ZM68.66,92.46l1.72,1.59c-.41.63-.99,1.18-1.72,1.63l-1.77-1.63c.75-.46,1.34-.99,1.77-1.59ZM71.43,92.46l1.77,1.59c-.43.63-1.02,1.18-1.77,1.63l-1.74-1.63c.75-.46,1.33-.99,1.74-1.59Z"/>
    <path class="cls-2" d="M75.9,88.4c-1.21-1.29-1.23-2.77-.07-4.41.68-1.02,1.49-1.56,2.41-1.63,1.27-.07,2.31.52,3.1,1.77.72,1.09.73,2.52.05,4.28h1.53v2.87h-1.17c-1.19,0-2.16-.18-2.91-.53-.73.34-2.08.52-4.06.53h-.48v-2.87h1.6ZM76.47,77.81l1.77,1.59c-.41.63-1,1.18-1.77,1.63l-1.77-1.63c.76-.46,1.35-.99,1.77-1.59ZM77.18,86.68c.25.43.89.78,1.91,1.06,1-.78,1.07-1.58.19-2.41-.37-.32-.7-.48-1-.46-.24.01-.5.17-.79.46-.45.5-.55.95-.31,1.35ZM79.09,77.81l1.77,1.59c-.41.63-1,1.18-1.77,1.63l-1.72-1.63c.73-.46,1.3-.99,1.72-1.59Z"/>
    <path class="cls-2" d="M86.37,88.4c-.08-1.03-.53-2.4-1.36-4.1l3.46-.99c.24,1.8.37,3.49.38,5.1h1.55v2.87h-.86c-.25-.22-.5-.48-.74-.77,0,.06-.02.32-.07.77h-6.09v-2.87h3.72ZM84.51,92.46l1.72,1.59c-.41.63-.99,1.18-1.72,1.63l-1.77-1.63c.75-.46,1.34-.99,1.77-1.59ZM87.28,92.46l1.77,1.59c-.43.63-1.02,1.18-1.77,1.63l-1.74-1.63c.75-.46,1.33-.99,1.74-1.59Z"/>
    <path class="cls-2" d="M93.03,88.4c-.08-1.03-.53-2.4-1.36-4.1l3.46-.99c.24,1.8.37,3.49.38,5.1h1.31v2.87h-.62c-.25-.22-.5-.48-.74-.77,0,.06-.02.31-.07.75l-5.25.02v-2.87h2.89ZM93.01,92.46l1.77,1.61c-.43.62-1.02,1.15-1.77,1.61l-1.74-1.61c.75-.47,1.33-1.01,1.74-1.61Z"/>
    <path class="cls-2" d="M108.1,91.27c-.29-.21-.55-.46-.79-.77-.06.36-.13.62-.21.77-3.58.07-6.67.07-9.26,0h-1.27v-2.87h1.27c.03-.07.07-.17.12-.29.05-.1.09-.19.12-.26-.08-2.44-.18-4.02-.31-4.72l-.57-4.13,2.84-1.26.6,1.88-.45,1.26-.14,3.77-.1.66c.14-.16.49-.46,1.03-.88,1.35-1.03,2.79-1.43,4.32-1.21,1.16.22,1.93,1.01,2.29,2.36.16.79.19,1.74.1,2.82h1.03v2.87h-.6ZM105.23,88.6c0-1.81-.71-2.71-2.12-2.71-1.53,0-2.74.9-3.65,2.71,2.15.04,4.07.04,5.78,0Z"/>
    <path class="cls-2" d="M111.63,88.4c-.08-1.03-.53-2.4-1.36-4.1l3.46-.99c.24,1.8.37,3.49.38,5.1h1.55v2.87h-.86c-.25-.22-.5-.48-.74-.77,0,.06-.02.32-.07.77h-5.56v-2.87h3.2ZM110.53,78.91l1.72,1.59c-.41.63-.99,1.18-1.72,1.63l-1.77-1.63c.76-.46,1.35-.99,1.77-1.59ZM113.3,78.91l1.77,1.59c-.41.63-1,1.18-1.77,1.63l-1.72-1.63c.73-.46,1.3-.99,1.72-1.59Z"/>
    <path class="cls-2" d="M119.96,91.27h-4.56v-2.87h1.86c-.03-1.66-.42-4.88-1.17-9.67l3.46-.99.6,1.83-.45,1.3c.16,2.32.25,4.84.26,7.55v2.85Z"/>
    <path class="cls-2" d="M122.51,91.25c.17-3.63-.17-7.81-1.05-12.54l3.46-.99c.45,4.47.59,8.99.43,13.55l-2.84-.02Z"/>
    <path class="cls-2" d="M139.27,90.47c-.18,1.07-.68,2.07-1.53,2.98-1.07.93-2.33,1.42-3.8,1.48-.99,0-1.93-.29-2.82-.88-1.48-1.02-2.04-2.24-1.67-3.66.4-1.19.65-1.95.76-2.27l1.38-.9c-.08.31-.16,1.07-.24,2.27,0,1,.34,1.74,1.03,2.21.43.29.97.46,1.62.51,2.21-.12,3.26-.76,3.15-1.92-.16-1.66-.5-3.16-1.03-4.48l2.98-.84c.24,1.12.34,2.27.31,3.44h1.19v2.87h-.62c-.25-.22-.5-.49-.74-.79ZM133.84,82.67l1.74,1.63c-.41.6-.99,1.15-1.74,1.63l-1.77-1.63c.75-.49,1.34-1.03,1.77-1.63Z"/>
    <path class="cls-2" d="M149.7,91.27c-.24-.19-.45-.43-.64-.73-.3.71-.49,1.13-.57,1.26-2.31.04-4.06-.26-5.25-.93-.64.25-1.27.38-1.91.4h-.95v-2.87h.74c-.32-.46-.49-.87-.52-1.24-.1-1.02.34-1.89,1.31-2.63.95-.74,1.93-.96,2.91-.66-.16-.19-.33-.38-.53-.57l1.46-1.83c2.37,2.28,3.57,4.56,3.6,6.84v.09h.91v2.87h-.55ZM142.54,86.77c-.03.12.37.59,1.19,1.41.35-.21.57-.54.67-.99.1-.49,0-.86-.31-1.13-.91-.04-1.42.19-1.55.71ZM146.1,86.61c-.03.46-.15.88-.36,1.26-.16.26-.35.52-.57.77.24.15.6.26,1.07.35.54.1.84.09.88-.04.1-.44-.25-1.22-1.03-2.34Z"/>
    <path class="cls-2" d="M157.74,90.5c-.24.44-.52.79-.84,1.04-1.53-.15-2.94-.52-4.22-1.13-.51.57-1.13.86-1.86.86h-.84v-2.87h.81c.4-.01.76-.35,1.1-.99,1.26-2.44,2.43-3.66,3.53-3.64.73,0,1.42.44,2.08,1.32.65.87.93,1.97.84,3.31h.79v2.87h-.6c-.29-.21-.55-.46-.79-.77ZM153.64,87.83c.35.24.76.48,1.24.73.92.5,1.35.27,1.29-.68-.06-.97-.45-1.46-1.15-1.46-.4,0-.86.47-1.38,1.41Z"/>
    <path class="cls-2" d="M163.42,91.27h-4.56v-2.87h1.86c-.03-1.66-.42-4.88-1.17-9.67l3.46-.99.6,1.83-.45,1.3c.16,2.32.25,4.84.26,7.55v2.85Z"/>
    <path class="cls-2" d="M165.98,91.25c.17-3.63-.17-7.81-1.05-12.54l3.46-.99c.45,4.47.59,8.99.43,13.55l-2.84-.02Z"/>
    <path class="cls-2" d="M180.46,91.27c-.3-.21-.56-.47-.79-.79l-.1.35c0,.07-.02.22-.07.44-2.15.06-4.48.06-6.99,0v-2.87c1.73.29,3.33.29,4.8,0-.41-1.74-1.01-3.27-1.79-4.61l2.96-1.19c.86,1.96,1.3,3.89,1.34,5.8h1.19v2.87h-.55Z"/>
    <path class="cls-2" d="M190.19,91.27c-.24-.19-.45-.43-.64-.73-.3.71-.49,1.13-.57,1.26-2.31.04-4.06-.26-5.25-.93-.64.25-1.27.38-1.91.4h-.95v-2.87h.74c-.32-.46-.49-.87-.52-1.24-.1-1.02.34-1.89,1.31-2.63.95-.74,1.93-.96,2.91-.66-.16-.19-.33-.38-.53-.57l1.46-1.83c2.37,2.28,3.57,4.56,3.6,6.84v.09h.91v2.87h-.55ZM183.03,86.77c-.03.12.37.59,1.19,1.41.35-.21.57-.54.67-.99.1-.49,0-.86-.31-1.13-.91-.04-1.42.19-1.55.71ZM186.59,86.61c-.03.46-.15.88-.36,1.26-.16.26-.35.52-.57.77.24.15.6.26,1.07.35.54.1.84.09.88-.04.1-.44-.25-1.22-1.03-2.34Z"/>
    <path class="cls-2" d="M193.58,88.13c.68-1.12-.22-1.96-2.72-2.54l1.65-2.94c.21-.04.45-.09.72-.13,3.95-.74,6.25-.31,6.92,1.28.57,1.37-.04,2.9-1.84,4.59h2.46v2.87c-3.02.03-4.83-.32-5.42-1.04-1.1.66-2.24,1.01-3.41,1.04h-1.46v-2.87h1.41c.99,0,1.55-.09,1.69-.26ZM195.97,87.05c1.59-1.24,2.18-1.97,1.77-2.21-.29-.18-1.6-.13-3.94.13,1.1.29,1.82.99,2.17,2.07Z"/>
    <path class="cls-2" d="M208.14,85.09c.7.91.97,2.06.81,3.44-.16,1.34-.63,2.34-1.41,3-1.61-.15-3.03-.51-4.27-1.1-.49.56-1.11.84-1.84.84h-.81v-2.87h.79c.41,0,.78-.33,1.1-.99,1.26-2.44,2.43-3.66,3.51-3.64.75,0,1.46.44,2.12,1.32ZM204.23,87.85c.37.24.79.47,1.27.71.94.5,1.37.27,1.29-.68-.06-.97-.45-1.46-1.15-1.46-.4,0-.87.48-1.41,1.43Z"/>
  </g>
  <path class="cls-1" d="M182.78,43.59v16.19h-9.47V13.83h17.92c3.45,0,6.48.63,9.1,1.89,2.62,1.26,4.63,3.06,6.04,5.38,1.41,2.32,2.11,4.97,2.11,7.94,0,4.5-1.54,8.05-4.62,10.65-3.08,2.6-7.35,3.9-12.8,3.9h-8.3ZM182.78,35.92h8.46c2.5,0,4.41-.59,5.73-1.77,1.31-1.18,1.97-2.86,1.97-5.05s-.66-4.07-1.99-5.46c-1.33-1.39-3.16-2.1-5.49-2.15h-8.68v14.42Z"/>
  <path class="cls-1" d="M161.32,40.82l-.07-.18-10.63-26.9h-9.29l-18.59,46.21h10.09l.24-.08,1.1-2.91,1.1-2.83,1.1-2.91.63-1.34,1.34-.08h16.37l.23.47.79,1.97,1.1,2.92,1.03,2.6.79,2.12.24.08h10l-7.56-19.13ZM151.16,40.42l-.16.08h-4.56l-5.91-.08.08-.4,1.02-2.83.79-1.97,1.18-3.07.87-2.2.86-2.13.47-1.26.24.31.47,1.34.87,2.13.79,2.05.94,2.44.63,1.57.79,2.05.63,1.73v.24Z"/>
  <polygon class="cls-1" points="88.72 36.68 87.96 35.46 87.7 35.05 88.72 36.68"/>
  <polygon class="cls-1" points="90.39 39.36 90.01 38.77 89.23 37.51 90.39 39.36"/>
  <polygon class="cls-1" points="94.34 45.7 94.02 45.22 93 43.57 91.81 41.68 91.31 40.85 94.34 45.7"/>
  <polygon class="cls-1" points="96.79 49.63 96.78 49.63 96.3 48.92 95.43 47.45 96.79 49.63"/>
  <polygon class="cls-1" points="105.59 36.3 105.43 36.56 104.41 38.22 103.31 39.95 102.13 41.84 101.1 43.49 99.92 45.38 99.06 46.72 98.19 48.13 97.33 49.48 97.25 49.55 105.59 36.3"/>
  <rect class="cls-1" x="61.74" y="13.81" width="9.84" height="46.05"/>
  <g>
    <path class="cls-1" d="M20.2,33.23c1.42-1.29,2.86-2.57,4.27-3.88,2.42-2.24,4.91-4.4,7.51-6.43.64-.5.78-1.12.21-1.8-.53-.64-.99-.59-1.62-.05-1.53,1.3-3.18,2.46-4.69,3.79-2.53,2.22-4.99,4.52-7.47,6.8-2.45,2.26-3.16,5.04-2.33,8.21.18.67.39,1.33,1.22,1.7.98.43,1.55,1.53,1.23,2.47-.63,1.83.46,3.14,1.01,4.61.66,1.78,1.41,3.56,1.57,5.43.17,1.97-.3,3.91-1.94,5.32-.9.77-1.95.34-2.93.33-.33,0-.67-.26-1.06-.26-1.34.02-1.53-.84-1.05-1.76,1.43-2.74,1.69-5.66,1.56-8.67-.04-1.01-.26-1.74-1.23-2.36-1.72-1.08-2.12-2.33-1.29-4.08.46-.97.36-1.86.17-2.72-.38-1.71-.38-3.4-.01-5.07.18-.84-.1-.93-.76-.92-1.56.01-3.13-.03-4.69.02-.76.02-1.31-.29-1.52-.93-.19-.58-.04-1.07.59-1.59,5.2-4.26,10.48-8.42,15.8-12.53,1.68-1.29,3.36-2.59,4.94-3.99.96-.86,2.06-1.04,3.21-1.04,8.41-.03,16.82-.01,25.23-.01.68,0,1.4-.15,1.69.8.23.77-.22,1.2-.69,1.59-2.45,2.02-4.91,4.04-7.4,6.02-3.81,3.02-7.72,5.93-11.45,9.04-1.83,1.53-3.6,2.52-6.13,2.37-3.87-.23-7.76-.06-11.64-.06-.1-.11-.2-.23-.3-.34Z"/>
    <path class="cls-1" d="M27.41,36.49c2.32-.24,5.15.28,7.99-.27,2.09-.41,3.29-2.03,4.83-3.16,3.32-2.44,6.48-5.11,9.69-7.69.63-.51,1.06-.47,1.32.35.76,2.34,1.65,4.65,2.24,7.03.42,1.7-.48,3.21-1.54,4.49-2.35,2.84-5.42,4.76-8.68,6.3-3.55,1.69-7.29,2.97-11.21,3.52-2.88.4-5.78.54-8.64-.23-.93-.25-1.43-.82-1.26-1.88.34-2.04-.43-3.82-2.24-4.67-1.4-.66-1.36-1.94-1.57-3.05-.15-.77.72-.73,1.31-.73,2.42,0,4.85,0,7.77,0Z"/>
  </g>
  <polygon class="cls-1" points="109.61 59.86 108.99 59.86 108.99 35.65 109.05 59.79 109.61 59.86"/>
  <polygon class="cls-1" points="87.7 35.05 87.1 34.08 87.33 34.44 87.7 35.05"/>
  <polygon class="cls-1" points="91.31 40.85 90.39 39.36 90.87 40.11 91.31 40.85"/>
  <polygon class="cls-1" points="95.43 47.45 94.34 45.7 94.81 46.4 95.43 47.45"/>
  <polygon class="cls-1" points="118.82 13.81 118.82 59.79 118.74 59.86 109.61 59.86 109.05 59.79 108.99 35.65 108.98 30.98 108.9 31.05 105.59 36.3 97.25 49.55 96.99 49.96 96.79 49.63 95.43 47.45 94.81 46.4 94.34 45.7 91.31 40.85 90.87 40.11 90.39 39.36 89.23 37.51 88.72 36.68 87.7 35.05 87.33 34.44 87.1 34.08 85.12 30.91 85.12 59.79 84.97 59.86 75.52 59.86 75.44 59.79 75.44 13.89 75.52 13.81 85.71 13.81 90.06 21.01 90.08 21.06 97.17 32.78 99.77 28.38 100.61 26.94 100.87 26.49 101.33 25.73 107.68 14.94 108.34 13.81 118.82 13.81"/>
</svg>