<?xml version="1.0" encoding="UTF-8"?>
<svg id="Layer_1" data-name="Layer 1" xmlns="http://www.w3.org/2000/svg" viewBox="0 0 186 80">
  <defs>
    <style>
      .cls-1 {
        fill: #1e539e;
      }

      .cls-1, .cls-2 {
        stroke-width: 0px;
      }

      .cls-2 {
        fill: #ee5a2a;
      }
    </style>
  </defs>
  <g>
    <path class="cls-1" d="M7.67,48.44v7.33h-1.85v-7.33h1.85Z"/>
    <path class="cls-1" d="M14.06,52.23v3.55h-1.65v-3.02c0-.79-.28-1.06-.82-1.06-.63,0-.99.32-.99,1.05v3.03h-1.65v-5.25h1.65v.76h.02c.28-.48.79-.92,1.73-.92,1.02,0,1.71.67,1.71,1.87Z"/>
    <path class="cls-1" d="M19.85,54.22c0,1.11-.84,1.71-2.31,1.71-1.88,0-2.61-.84-2.66-1.91h1.54c.05.52.4.78,1.05.78.46,0,.72-.15.72-.45,0-.45-.49-.51-1.33-.7-.9-.19-1.88-.52-1.88-1.62,0-.95.82-1.68,2.31-1.68,1.69,0,2.35.85,2.4,1.77h-1.54c-.05-.42-.28-.65-.81-.65-.46,0-.7.16-.7.42,0,.37.33.38,1.14.55,1.04.23,2.07.57,2.07,1.76Z"/>
    <path class="cls-1" d="M22.71,51.75v2.17c0,.59.22.59.92.59v1.23c-.3.06-.56.11-1.02.11-1.2,0-1.54-.64-1.54-1.81v-2.3h-.73v-1.23h.73v-1.47h1.65v1.47h.92v1.23h-.92Z"/>
    <path class="cls-1" d="M24.62,49.17c0-.47.36-.73.82-.73s.82.26.82.73-.36.73-.82.73-.82-.25-.82-.73ZM26.27,50.52v5.25h-1.65v-5.25h1.65Z"/>
    <path class="cls-1" d="M29.54,51.75v2.17c0,.59.22.59.92.59v1.23c-.3.06-.56.11-1.02.11-1.2,0-1.54-.64-1.54-1.81v-2.3h-.73v-1.23h.73v-1.47h1.65v1.47h.92v1.23h-.92Z"/>
    <path class="cls-1" d="M36.51,50.52v5.25h-1.65v-.76h-.02c-.28.48-.79.92-1.73.92-1.02,0-1.71-.67-1.71-1.87v-3.55h1.65v3.02c0,.79.28,1.06.82,1.06.63,0,.99-.32.99-1.05v-3.03h1.65Z"/>
    <path class="cls-1" d="M39.79,51.75v2.17c0,.59.22.59.92.59v1.23c-.3.06-.56.11-1.02.11-1.2,0-1.54-.64-1.54-1.81v-2.3h-.73v-1.23h.73v-1.47h1.65v1.47h.92v1.23h-.92Z"/>
    <path class="cls-1" d="M49.08,48.44v7.33h-1.65v-.52h-.02c-.21.28-.76.69-1.52.69-1.4,0-2.3-1.07-2.3-2.79s.9-2.79,2.3-2.79c.76,0,1.32.41,1.52.69h.02v-2.6h1.65ZM47.4,53.15c0-1.03-.41-1.56-1.08-1.56s-1.08.53-1.08,1.56.41,1.56,1.08,1.56,1.08-.53,1.08-1.56Z"/>
    <path class="cls-1" d="M53.74,54.18h1.64c-.29,1.06-1.11,1.75-2.54,1.75-1.75,0-2.81-1.15-2.81-2.79s1.04-2.79,2.72-2.79c1.8,0,2.72,1.31,2.72,3.22h-3.79c0,.74.55,1.13,1.13,1.13s.83-.27.94-.52ZM51.67,52.58h2.14c0-.73-.44-1.1-1.07-1.1s-1.07.37-1.07,1.1Z"/>
    <path class="cls-1" d="M61.06,54.22c0,1.11-.84,1.71-2.31,1.71-1.88,0-2.61-.84-2.66-1.91h1.54c.05.52.4.78,1.05.78.46,0,.72-.15.72-.45,0-.45-.49-.51-1.33-.7-.9-.19-1.88-.52-1.88-1.62,0-.95.82-1.68,2.31-1.68,1.69,0,2.35.85,2.4,1.77h-1.54c-.05-.42-.28-.65-.81-.65-.46,0-.7.16-.7.42,0,.37.33.38,1.14.55,1.04.23,2.07.57,2.07,1.76Z"/>
    <path class="cls-1" d="M64.22,48.44h2.27l1.51,4.68h.02l1.51-4.68h2.27v7.33h-1.75v-4.56h-.02l-1.37,4.56h-1.3l-1.37-4.56h-.02v4.56h-1.75v-7.33Z"/>
    <path class="cls-1" d="M76.67,54.18h1.64c-.29,1.06-1.11,1.75-2.54,1.75-1.75,0-2.81-1.15-2.81-2.79s1.04-2.79,2.72-2.79c1.8,0,2.72,1.31,2.72,3.22h-3.79c0,.74.55,1.13,1.13,1.13s.83-.27.94-.52ZM74.6,52.58h2.14c0-.73-.44-1.1-1.07-1.1s-1.07.37-1.07,1.1ZM76.27,49.83h-1.24l.44-1.44h1.85l-1.06,1.44Z"/>
    <path class="cls-1" d="M81.33,51.75v2.17c0,.59.22.59.92.59v1.23c-.3.06-.56.11-1.02.11-1.2,0-1.54-.64-1.54-1.81v-2.3h-.73v-1.23h.73v-1.47h1.65v1.47h.92v1.23h-.92Z"/>
    <path class="cls-1" d="M83.23,49.17c0-.47.36-.73.82-.73s.82.26.82.73-.36.73-.82.73-.82-.25-.82-.73ZM84.88,50.52v5.25h-1.65v-5.25h1.65Z"/>
    <path class="cls-1" d="M89.54,54.18h1.64c-.29,1.06-1.11,1.75-2.54,1.75-1.75,0-2.81-1.15-2.81-2.79s1.04-2.79,2.72-2.79c1.8,0,2.72,1.31,2.72,3.22h-3.79c0,.74.55,1.13,1.13,1.13s.83-.27.94-.52ZM87.47,52.58h2.14c0-.73-.44-1.1-1.07-1.1s-1.07.37-1.07,1.1Z"/>
    <path class="cls-1" d="M95.62,50.47v1.44h-.02c-.84-.15-1.74.31-1.74,1.43v2.44h-1.65v-5.25h1.65v.86h.02c.26-.58.71-.95,1.29-.95.14,0,.27,0,.45.04Z"/>
    <path class="cls-1" d="M101.18,54.22c0,1.11-.84,1.71-2.31,1.71-1.88,0-2.61-.84-2.66-1.91h1.54c.05.52.4.78,1.05.78.46,0,.72-.15.72-.45,0-.45-.49-.51-1.33-.7-.9-.19-1.88-.52-1.88-1.62,0-.95.82-1.68,2.31-1.68,1.69,0,2.35.85,2.4,1.77h-1.54c-.05-.42-.28-.65-.81-.65-.46,0-.7.16-.7.42,0,.37.33.38,1.14.55,1.04.23,2.07.57,2.07,1.76Z"/>
    <path class="cls-1" d="M106.16,54.25l-.47,1.53h-1.85l2.67-7.33h1.85l2.66,7.33h-1.85l-.47-1.53h-2.52ZM108.27,52.84l-.83-2.71h-.02l-.83,2.71h1.69Z"/>
    <path class="cls-1" d="M117.29,53.15c0,1.72-.9,2.79-2.3,2.79-.76,0-1.32-.41-1.52-.69h-.02v2.34h-1.65v-7.06h1.65v.52h.02c.21-.28.76-.69,1.52-.69,1.4,0,2.3,1.07,2.3,2.79ZM115.64,53.15c0-1.03-.41-1.56-1.08-1.56s-1.08.53-1.08,1.56.41,1.56,1.08,1.56,1.08-.53,1.08-1.56Z"/>
    <path class="cls-1" d="M123.77,53.15c0,1.72-.9,2.79-2.3,2.79-.76,0-1.32-.41-1.52-.69h-.02v2.34h-1.65v-7.06h1.65v.52h.02c.21-.28.76-.69,1.52-.69,1.4,0,2.3,1.07,2.3,2.79ZM122.12,53.15c0-1.03-.41-1.56-1.08-1.56s-1.08.53-1.08,1.56.41,1.56,1.08,1.56,1.08-.53,1.08-1.56Z"/>
    <path class="cls-1" d="M126.42,48.44v7.33h-1.65v-7.33h1.65Z"/>
    <path class="cls-1" d="M127.56,49.17c0-.47.36-.73.82-.73s.82.26.82.73-.36.73-.82.73-.82-.25-.82-.73ZM129.21,50.52v5.25h-1.65v-5.25h1.65Z"/>
    <path class="cls-1" d="M135.68,50.52v7.06h-1.65v-2.34h-.02c-.21.28-.76.69-1.52.69-1.4,0-2.3-1.07-2.3-2.79s.9-2.79,2.3-2.79c.76,0,1.32.41,1.52.69h.02v-.52h1.65ZM134.01,53.15c0-1.03-.41-1.56-1.08-1.56s-1.08.53-1.08,1.56.41,1.56,1.08,1.56,1.08-.53,1.08-1.56Z"/>
    <path class="cls-1" d="M141.94,50.52v5.25h-1.65v-.76h-.02c-.28.48-.79.92-1.73.92-1.02,0-1.71-.67-1.71-1.87v-3.55h1.65v3.02c0,.79.28,1.06.82,1.06.63,0,.99-.32.99-1.05v-3.03h1.65Z"/>
    <path class="cls-1" d="M146.6,54.18h1.64c-.29,1.06-1.11,1.75-2.54,1.75-1.75,0-2.81-1.15-2.81-2.79s1.04-2.79,2.72-2.79c1.8,0,2.72,1.31,2.72,3.22h-3.79c0,.74.55,1.13,1.13,1.13s.83-.27.94-.52ZM144.53,52.58h2.14c0-.73-.44-1.1-1.07-1.1s-1.07.37-1.07,1.1ZM146.2,49.83h-1.24l.44-1.44h1.85l-1.06,1.44Z"/>
    <path class="cls-1" d="M153.91,54.22c0,1.11-.84,1.71-2.31,1.71-1.88,0-2.61-.84-2.66-1.91h1.54c.05.52.4.78,1.05.78.46,0,.72-.15.72-.45,0-.45-.49-.51-1.33-.7-.9-.19-1.88-.52-1.88-1.62,0-.95.82-1.68,2.31-1.68,1.69,0,2.35.85,2.4,1.77h-1.54c-.05-.42-.28-.65-.81-.65-.46,0-.7.16-.7.42,0,.37.33.38,1.14.55,1.04.23,2.07.57,2.07,1.76Z"/>
    <path class="cls-1" d="M157.08,48.44h3.57c1.53,0,2.49.8,2.49,2.34s-.96,2.34-2.49,2.34h-1.72v2.66h-1.85v-7.33ZM158.93,51.61h1.33c.64,0,1.03-.22,1.03-.83s-.39-.83-1.03-.83h-1.33v1.66Z"/>
    <path class="cls-1" d="M167.48,50.47v1.44h-.02c-.84-.15-1.74.31-1.74,1.43v2.44h-1.65v-5.25h1.65v.86h.02c.26-.58.71-.95,1.29-.95.14,0,.27,0,.45.04Z"/>
    <path class="cls-1" d="M168.4,49.17c0-.47.36-.73.82-.73s.82.26.82.73-.36.73-.82.73-.82-.25-.82-.73ZM170.04,50.52v5.25h-1.65v-5.25h1.65Z"/>
    <path class="cls-1" d="M172.44,50.52l1.07,3.42h.02l1.07-3.42h1.65l-1.82,5.25h-1.81l-1.82-5.25h1.65Z"/>
    <path class="cls-1" d="M180.28,54.18h1.64c-.29,1.06-1.11,1.75-2.54,1.75-1.75,0-2.81-1.15-2.81-2.79s1.04-2.79,2.72-2.79c1.8,0,2.72,1.31,2.72,3.22h-3.79c0,.74.55,1.13,1.13,1.13s.83-.27.94-.52ZM178.21,52.58h2.14c0-.73-.44-1.1-1.07-1.1s-1.07.37-1.07,1.1ZM179.88,49.83h-1.24l.44-1.44h1.85l-1.06,1.44Z"/>
  </g>
  <g>
    <path class="cls-2" d="M5.58,69.5l1.23-.83c-.07.23-.14.91-.21,2.03,0,1.47.76,2.26,2.28,2.38,2.35-.13,3.16-1.57,2.4-4.33-.21-.9-.45-1.56-.73-1.97l2.86-.77c.14.64.21,1.49.21,2.55h.08c.46-1.08,1.19-2.13,2.19-3.13,1.11-1.02,2.24-1.55,3.36-1.6,1.63.1,2.63.83,2.99,2.18.36,1.42.22,3.09-.42,5.02-3.48.33-6.23.33-8.26,0-.36,2.98-1.93,4.46-4.7,4.46-1.13,0-2.13-.41-3.01-1.22-.91-.84-1.23-1.77-.96-2.8.35-1.04.57-1.7.67-1.97ZM14.82,68.67c2.62.22,4.41.2,5.37-.06,0-1.53-.63-2.3-1.88-2.3-1.49,0-2.65.79-3.49,2.36Z"/>
    <path class="cls-2" d="M28.32,71.05h-.52l-3.65-.02c.15-3.18-.15-6.84-.92-10.98l3.03-.87c.31,3.09.44,6.21.4,9.35h1.66v2.51Z"/>
    <path class="cls-2" d="M33.68,70.07c-.24.18-.45.32-.64.41-.65.32-1.27.51-1.84.57-.13.01-.6.01-1.39,0h-1.72v-2.51h1.68c1.11.01,1.82-.04,2.13-.14.2-.08.54-.26,1.02-.54.47-.28.72-.44.74-.48-.72-.52-1.1-.78-1.13-.79-.79-.4-1.35-.64-1.68-.72-.32-.08-.62-.07-.89,0-.23.08-.46.25-.68.51l-.76.24c.02-1.12.16-1.87.43-2.25.27-.4.61-.67,1-.82.72-.28,1.64-.07,2.76.63.24.15.74.49,1.52,1.03.61.43,1.12.75,1.53.97.39.2.73.33,1.03.41l.21.05-.61,1.43c-.42.06-.8.23-1.15.48h2.12v2.51c-1.71,0-2.94-.33-3.69-.98ZM30.72,59.38l1.55,1.43c-.36.53-.88,1-1.55,1.43l-1.53-1.43c.65-.42,1.16-.9,1.53-1.43Z"/>
    <path class="cls-2" d="M41.07,71.05h-3.99v-2.51h1.63c-.03-1.46-.37-4.28-1.02-8.46l3.03-.87.52,1.6-.4,1.14c.14,2.04.22,4.24.23,6.61v2.49Z"/>
    <path class="cls-2" d="M43.3,71.03c.15-3.18-.15-6.84-.92-10.98l3.03-.87c.39,3.92.52,7.87.38,11.86l-2.49-.02Z"/>
    <path class="cls-2" d="M53.61,69.25l-1.46,1.24-2.42-.97c-.54-.21-.65-1.06-.33-2.55.11-.45.58-.93,1.4-1.45l2.38-1.55c-.04-.22-.08-.44-.1-.68l2.65-.91c.13,1.92.19,3.97.21,6.14h1.19v2.51h-3.51v-1.8ZM51.83,58.68l1.55,1.39c-.36.55-.88,1.03-1.55,1.43l-1.55-1.43c.67-.4,1.18-.86,1.55-1.39ZM53.36,65.52c-1.6.93-2.49,1.54-2.65,1.84,1.02.8,1.95.75,2.8-.14-.03-.54-.08-1.11-.15-1.7ZM54.13,58.68l1.55,1.39c-.36.55-.88,1.03-1.55,1.43l-1.5-1.43c.64-.4,1.14-.86,1.5-1.39Z"/>
    <path class="cls-2" d="M60.15,68.53c-.07-.9-.47-2.1-1.19-3.59l3.03-.87c.21,1.57.32,3.06.33,4.46h1.36v2.51h-.75c-.22-.19-.44-.42-.65-.68,0,.05-.02.28-.06.68h-5.33v-2.51h3.26ZM58.52,72.09l1.5,1.39c-.36.55-.86,1.03-1.5,1.43l-1.55-1.43c.65-.4,1.17-.86,1.55-1.39ZM60.94,72.09l1.55,1.39c-.38.55-.89,1.03-1.55,1.43l-1.53-1.43c.65-.4,1.16-.86,1.53-1.39Z"/>
    <path class="cls-2" d="M64.85,68.53c-1.06-1.13-1.08-2.42-.06-3.86.6-.89,1.3-1.37,2.11-1.43,1.11-.06,2.02.45,2.72,1.55.63.95.64,2.2.04,3.75h1.34v2.51h-1.02c-1.04,0-1.89-.15-2.55-.46-.64.3-1.83.45-3.55.46h-.42v-2.51h1.4ZM65.35,59.26l1.55,1.39c-.36.55-.88,1.03-1.55,1.43l-1.55-1.43c.67-.4,1.18-.86,1.55-1.39ZM65.98,67.03c.22.37.78.68,1.67.93.88-.68.93-1.38.17-2.11-.32-.28-.61-.42-.88-.41-.21.01-.44.15-.69.41-.39.44-.48.83-.27,1.18ZM67.65,59.26l1.55,1.39c-.36.55-.88,1.03-1.55,1.43l-1.5-1.43c.64-.4,1.14-.86,1.5-1.39Z"/>
    <path class="cls-2" d="M74.03,68.53c-.07-.9-.47-2.1-1.19-3.59l3.03-.87c.21,1.57.32,3.06.33,4.46h1.36v2.51h-.75c-.22-.19-.44-.42-.65-.68,0,.05-.02.28-.06.68h-5.33v-2.51h3.26ZM72.4,72.09l1.5,1.39c-.36.55-.86,1.03-1.5,1.43l-1.55-1.43c.65-.4,1.17-.86,1.55-1.39ZM74.82,72.09l1.55,1.39c-.38.55-.89,1.03-1.55,1.43l-1.53-1.43c.65-.4,1.16-.86,1.53-1.39Z"/>
    <path class="cls-2" d="M79.86,68.53c-.07-.9-.47-2.1-1.19-3.59l3.03-.87c.21,1.57.32,3.06.33,4.46h1.15v2.51h-.54c-.22-.19-.44-.42-.65-.68,0,.05-.02.27-.06.66l-4.6.02v-2.51h2.53ZM79.84,72.09l1.55,1.41c-.38.54-.89,1.01-1.55,1.41l-1.53-1.41c.65-.41,1.16-.88,1.53-1.41Z"/>
    <path class="cls-2" d="M93.04,71.05c-.25-.18-.48-.41-.69-.68-.05.32-.11.54-.19.68-3.13.06-5.84.06-8.11,0h-1.11v-2.51h1.11c.03-.06.06-.15.1-.25.04-.09.08-.17.1-.23-.07-2.14-.16-3.52-.27-4.14l-.5-3.61,2.49-1.1.52,1.64-.4,1.1-.13,3.3-.08.58c.13-.14.42-.4.9-.77,1.18-.9,2.45-1.26,3.78-1.06,1.02.19,1.69.88,2.01,2.07.14.7.17,1.52.08,2.47h.9v2.51h-.52ZM90.54,68.71c0-1.58-.62-2.38-1.86-2.38-1.34,0-2.4.79-3.2,2.38,1.88.04,3.57.04,5.06,0Z"/>
    <path class="cls-2" d="M96.14,68.53c-.07-.9-.47-2.1-1.19-3.59l3.03-.87c.21,1.57.32,3.06.33,4.46h1.36v2.51h-.75c-.22-.19-.44-.42-.65-.68,0,.05-.02.28-.06.68h-4.87v-2.51h2.8ZM95.17,60.23l1.5,1.39c-.36.55-.86,1.03-1.5,1.43l-1.55-1.43c.67-.4,1.18-.86,1.55-1.39ZM97.6,60.23l1.55,1.39c-.36.55-.88,1.03-1.55,1.43l-1.5-1.43c.64-.4,1.14-.86,1.5-1.39Z"/>
    <path class="cls-2" d="M103.43,71.05h-3.99v-2.51h1.63c-.03-1.46-.37-4.28-1.02-8.46l3.03-.87.52,1.6-.4,1.14c.14,2.04.22,4.24.23,6.61v2.49Z"/>
    <path class="cls-2" d="M105.66,71.03c.15-3.18-.15-6.84-.92-10.98l3.03-.87c.39,3.92.52,7.87.38,11.86l-2.49-.02Z"/>
    <path class="cls-2" d="M120.34,70.35c-.15.94-.6,1.81-1.34,2.61-.93.81-2.04,1.24-3.32,1.29-.86,0-1.69-.26-2.47-.77-1.3-.89-1.78-1.96-1.46-3.21.35-1.04.57-1.71.67-1.99l1.21-.79c-.07.27-.14.93-.21,1.99,0,.88.3,1.52.9,1.93.38.26.85.41,1.42.44,1.94-.1,2.86-.66,2.76-1.68-.14-1.46-.44-2.76-.9-3.92l2.61-.73c.21.98.3,1.98.27,3.01h1.04v2.51h-.54c-.22-.19-.44-.43-.65-.7ZM115.58,63.52l1.53,1.43c-.36.53-.87,1-1.53,1.43l-1.55-1.43c.65-.42,1.17-.9,1.55-1.43Z"/>
    <path class="cls-2" d="M129.47,71.05c-.21-.17-.4-.38-.56-.64-.26.62-.43.99-.5,1.1-2.02.04-3.55-.23-4.6-.81-.56.22-1.11.33-1.67.35h-.84v-2.51h.65c-.28-.4-.43-.76-.46-1.08-.08-.89.3-1.66,1.15-2.3.84-.64,1.69-.84,2.55-.58-.14-.17-.29-.33-.46-.5l1.27-1.6c2.08,2,3.13,3.99,3.16,5.99v.08h.79v2.51h-.48ZM123.2,67.1c-.03.1.32.52,1.04,1.24.31-.18.5-.47.59-.87.08-.43,0-.75-.27-.99-.79-.04-1.25.17-1.36.62ZM126.31,66.97c-.03.4-.13.77-.31,1.1-.14.23-.31.46-.5.68.21.13.52.23.94.31.47.09.73.08.77-.04.08-.39-.22-1.07-.9-2.05Z"/>
    <path class="cls-2" d="M136.51,70.37c-.21.39-.45.69-.73.91-1.34-.13-2.57-.46-3.7-.99-.45.5-.99.75-1.63.75h-.73v-2.51h.71c.35-.01.67-.3.96-.87,1.1-2.14,2.13-3.2,3.09-3.19.64,0,1.25.39,1.82,1.16.57.76.81,1.73.73,2.9h.69v2.51h-.52c-.25-.18-.48-.41-.69-.68ZM132.92,68.03c.31.21.67.42,1.09.64.81.44,1.18.24,1.13-.6-.06-.85-.39-1.28-1-1.28-.35,0-.75.41-1.21,1.24Z"/>
    <path class="cls-2" d="M141.49,71.05h-3.99v-2.51h1.63c-.03-1.46-.37-4.28-1.02-8.46l3.03-.87.52,1.6-.4,1.14c.14,2.04.22,4.24.23,6.61v2.49Z"/>
    <path class="cls-2" d="M143.72,71.03c.15-3.18-.15-6.84-.92-10.98l3.03-.87c.39,3.92.52,7.87.38,11.86l-2.49-.02Z"/>
    <path class="cls-2" d="M156.4,71.05c-.26-.18-.49-.41-.69-.7l-.08.31c0,.06-.02.19-.06.39-1.88.05-3.92.05-6.12,0v-2.51c1.52.26,2.92.26,4.2,0-.36-1.52-.88-2.87-1.57-4.04l2.59-1.04c.75,1.71,1.14,3.41,1.17,5.08h1.04v2.51h-.48Z"/>
    <path class="cls-2" d="M164.93,71.05c-.21-.17-.4-.38-.56-.64-.26.62-.43.99-.5,1.1-2.02.04-3.55-.23-4.6-.81-.56.22-1.11.33-1.67.35h-.84v-2.51h.65c-.28-.4-.43-.76-.46-1.08-.08-.89.3-1.66,1.15-2.3.84-.64,1.69-.84,2.55-.58-.14-.17-.29-.33-.46-.5l1.27-1.6c2.08,2,3.13,3.99,3.16,5.99v.08h.79v2.51h-.48ZM158.66,67.1c-.03.1.32.52,1.04,1.24.31-.18.5-.47.59-.87.08-.43,0-.75-.27-.99-.79-.04-1.25.17-1.36.62ZM161.77,66.97c-.03.4-.13.77-.31,1.1-.14.23-.31.46-.5.68.21.13.52.23.94.31.47.09.73.08.77-.04.08-.39-.22-1.07-.9-2.05Z"/>
    <path class="cls-2" d="M167.89,68.3c.6-.98-.2-1.72-2.38-2.22l1.44-2.57c.18-.04.39-.08.63-.12,3.46-.64,5.48-.27,6.06,1.12.5,1.2-.04,2.54-1.61,4.02h2.15v2.51c-2.65.03-4.23-.28-4.74-.91-.96.58-1.96.88-2.99.91h-1.27v-2.51h1.23c.86,0,1.36-.08,1.48-.23ZM169.98,67.36c1.39-1.08,1.91-1.73,1.55-1.93-.25-.15-1.4-.12-3.45.12.96.26,1.6.86,1.9,1.82Z"/>
    <path class="cls-2" d="M180.64,65.64c.61.8.85,1.8.71,3.01-.14,1.17-.55,2.05-1.23,2.63-1.41-.13-2.65-.45-3.74-.97-.43.49-.97.73-1.61.73h-.71v-2.51h.69c.36,0,.68-.29.96-.87,1.1-2.14,2.12-3.2,3.07-3.19.65,0,1.27.39,1.86,1.16ZM177.21,68.05c.32.21.69.41,1.11.62.82.44,1.2.24,1.13-.6-.06-.85-.39-1.28-1-1.28-.35,0-.76.42-1.23,1.26Z"/>
  </g>
  <g>
    <path class="cls-1" d="M7.41,48.44v7.33h-1.85v-7.33h1.85Z"/>
    <path class="cls-1" d="M13.81,52.23v3.55h-1.65v-3.02c0-.79-.28-1.06-.82-1.06-.63,0-.99.32-.99,1.05v3.03h-1.65v-5.25h1.65v.76h.02c.28-.48.79-.92,1.73-.92,1.02,0,1.71.67,1.71,1.87Z"/>
    <path class="cls-1" d="M19.6,54.22c0,1.11-.84,1.71-2.31,1.71-1.88,0-2.61-.84-2.66-1.91h1.54c.05.52.4.78,1.05.78.46,0,.72-.15.72-.45,0-.45-.49-.51-1.33-.7-.9-.19-1.88-.52-1.88-1.62,0-.95.82-1.68,2.31-1.68,1.69,0,2.35.85,2.4,1.77h-1.54c-.05-.42-.28-.65-.81-.65-.46,0-.7.16-.7.42,0,.37.33.38,1.14.55,1.04.23,2.07.57,2.07,1.76Z"/>
    <path class="cls-1" d="M22.46,51.75v2.17c0,.59.22.59.92.59v1.23c-.3.06-.56.11-1.02.11-1.2,0-1.54-.64-1.54-1.81v-2.3h-.73v-1.23h.73v-1.47h1.65v1.47h.92v1.23h-.92Z"/>
    <path class="cls-1" d="M24.36,49.17c0-.47.36-.73.82-.73s.82.26.82.73-.36.73-.82.73-.82-.25-.82-.73ZM26.01,50.52v5.25h-1.65v-5.25h1.65Z"/>
    <path class="cls-1" d="M29.29,51.75v2.17c0,.59.22.59.92.59v1.23c-.3.06-.56.11-1.02.11-1.2,0-1.54-.64-1.54-1.81v-2.3h-.73v-1.23h.73v-1.47h1.65v1.47h.92v1.23h-.92Z"/>
    <path class="cls-1" d="M36.26,50.52v5.25h-1.65v-.76h-.02c-.28.48-.79.92-1.73.92-1.02,0-1.71-.67-1.71-1.87v-3.55h1.65v3.02c0,.79.28,1.06.82,1.06.63,0,.99-.32.99-1.05v-3.03h1.65Z"/>
    <path class="cls-1" d="M39.53,51.75v2.17c0,.59.22.59.92.59v1.23c-.3.06-.56.11-1.02.11-1.2,0-1.54-.64-1.54-1.81v-2.3h-.73v-1.23h.73v-1.47h1.65v1.47h.92v1.23h-.92Z"/>
    <path class="cls-1" d="M48.82,48.44v7.33h-1.65v-.52h-.02c-.21.28-.76.69-1.52.69-1.4,0-2.3-1.07-2.3-2.79s.9-2.79,2.3-2.79c.76,0,1.32.41,1.52.69h.02v-2.6h1.65ZM47.15,53.15c0-1.03-.41-1.56-1.08-1.56s-1.08.53-1.08,1.56.41,1.56,1.08,1.56,1.08-.53,1.08-1.56Z"/>
    <path class="cls-1" d="M53.49,54.18h1.64c-.29,1.06-1.11,1.75-2.54,1.75-1.75,0-2.81-1.15-2.81-2.79s1.04-2.79,2.72-2.79c1.8,0,2.72,1.31,2.72,3.22h-3.79c0,.74.55,1.13,1.13,1.13s.83-.27.94-.52ZM51.42,52.58h2.14c0-.73-.44-1.1-1.07-1.1s-1.07.37-1.07,1.1Z"/>
    <path class="cls-1" d="M60.8,54.22c0,1.11-.84,1.71-2.31,1.71-1.88,0-2.61-.84-2.66-1.91h1.54c.05.52.4.78,1.05.78.46,0,.72-.15.72-.45,0-.45-.49-.51-1.33-.7-.9-.19-1.88-.52-1.88-1.62,0-.95.82-1.68,2.31-1.68,1.69,0,2.35.85,2.4,1.77h-1.54c-.05-.42-.28-.65-.81-.65-.46,0-.7.16-.7.42,0,.37.33.38,1.14.55,1.04.23,2.07.57,2.07,1.76Z"/>
    <path class="cls-1" d="M63.96,48.44h2.27l1.51,4.68h.02l1.51-4.68h2.27v7.33h-1.75v-4.56h-.02l-1.37,4.56h-1.3l-1.37-4.56h-.02v4.56h-1.75v-7.33Z"/>
    <path class="cls-1" d="M76.42,54.18h1.64c-.29,1.06-1.11,1.75-2.54,1.75-1.75,0-2.81-1.15-2.81-2.79s1.04-2.79,2.72-2.79c1.8,0,2.72,1.31,2.72,3.22h-3.79c0,.74.55,1.13,1.13,1.13s.83-.27.94-.52ZM74.35,52.58h2.14c0-.73-.44-1.1-1.07-1.1s-1.07.37-1.07,1.1ZM76.01,49.83h-1.24l.44-1.44h1.85l-1.06,1.44Z"/>
    <path class="cls-1" d="M81.07,51.75v2.17c0,.59.22.59.92.59v1.23c-.3.06-.56.11-1.02.11-1.2,0-1.54-.64-1.54-1.81v-2.3h-.73v-1.23h.73v-1.47h1.65v1.47h.92v1.23h-.92Z"/>
    <path class="cls-1" d="M82.98,49.17c0-.47.36-.73.82-.73s.82.26.82.73-.36.73-.82.73-.82-.25-.82-.73ZM84.62,50.52v5.25h-1.65v-5.25h1.65Z"/>
    <path class="cls-1" d="M89.29,54.18h1.64c-.29,1.06-1.11,1.75-2.54,1.75-1.75,0-2.81-1.15-2.81-2.79s1.04-2.79,2.72-2.79c1.8,0,2.72,1.31,2.72,3.22h-3.79c0,.74.55,1.13,1.13,1.13s.83-.27.94-.52ZM87.22,52.58h2.14c0-.73-.44-1.1-1.07-1.1s-1.07.37-1.07,1.1Z"/>
    <path class="cls-1" d="M95.37,50.47v1.44h-.02c-.84-.15-1.74.31-1.74,1.43v2.44h-1.65v-5.25h1.65v.86h.02c.26-.58.71-.95,1.29-.95.14,0,.27,0,.45.04Z"/>
    <path class="cls-1" d="M100.93,54.22c0,1.11-.84,1.71-2.31,1.71-1.88,0-2.61-.84-2.66-1.91h1.54c.05.52.4.78,1.05.78.46,0,.72-.15.72-.45,0-.45-.49-.51-1.33-.7-.9-.19-1.88-.52-1.88-1.62,0-.95.82-1.68,2.31-1.68,1.69,0,2.35.85,2.4,1.77h-1.54c-.05-.42-.28-.65-.81-.65-.46,0-.7.16-.7.42,0,.37.33.38,1.14.55,1.04.23,2.07.57,2.07,1.76Z"/>
    <path class="cls-1" d="M105.9,54.25l-.47,1.53h-1.85l2.67-7.33h1.85l2.66,7.33h-1.85l-.47-1.53h-2.52ZM108.01,52.84l-.83-2.71h-.02l-.83,2.71h1.69Z"/>
    <path class="cls-1" d="M117.04,53.15c0,1.72-.9,2.79-2.3,2.79-.76,0-1.32-.41-1.52-.69h-.02v2.34h-1.65v-7.06h1.65v.52h.02c.21-.28.76-.69,1.52-.69,1.4,0,2.3,1.07,2.3,2.79ZM115.39,53.15c0-1.03-.41-1.56-1.08-1.56s-1.08.53-1.08,1.56.41,1.56,1.08,1.56,1.08-.53,1.08-1.56Z"/>
    <path class="cls-1" d="M123.51,53.15c0,1.72-.9,2.79-2.3,2.79-.76,0-1.32-.41-1.52-.69h-.02v2.34h-1.65v-7.06h1.65v.52h.02c.21-.28.76-.69,1.52-.69,1.4,0,2.3,1.07,2.3,2.79ZM121.87,53.15c0-1.03-.41-1.56-1.08-1.56s-1.08.53-1.08,1.56.41,1.56,1.08,1.56,1.08-.53,1.08-1.56Z"/>
    <path class="cls-1" d="M126.16,48.44v7.33h-1.65v-7.33h1.65Z"/>
    <path class="cls-1" d="M127.3,49.17c0-.47.36-.73.82-.73s.82.26.82.73-.36.73-.82.73-.82-.25-.82-.73ZM128.95,50.52v5.25h-1.65v-5.25h1.65Z"/>
    <path class="cls-1" d="M135.43,50.52v7.06h-1.65v-2.34h-.02c-.21.28-.76.69-1.52.69-1.4,0-2.3-1.07-2.3-2.79s.9-2.79,2.3-2.79c.76,0,1.32.41,1.52.69h.02v-.52h1.65ZM133.75,53.15c0-1.03-.41-1.56-1.08-1.56s-1.08.53-1.08,1.56.41,1.56,1.08,1.56,1.08-.53,1.08-1.56Z"/>
    <path class="cls-1" d="M141.68,50.52v5.25h-1.65v-.76h-.02c-.28.48-.79.92-1.73.92-1.02,0-1.71-.67-1.71-1.87v-3.55h1.65v3.02c0,.79.28,1.06.82,1.06.63,0,.99-.32.99-1.05v-3.03h1.65Z"/>
    <path class="cls-1" d="M146.35,54.18h1.64c-.29,1.06-1.11,1.75-2.54,1.75-1.75,0-2.81-1.15-2.81-2.79s1.04-2.79,2.72-2.79c1.8,0,2.72,1.31,2.72,3.22h-3.79c0,.74.55,1.13,1.13,1.13s.83-.27.94-.52ZM144.28,52.58h2.14c0-.73-.44-1.1-1.07-1.1s-1.07.37-1.07,1.1ZM145.95,49.83h-1.24l.44-1.44h1.85l-1.06,1.44Z"/>
    <path class="cls-1" d="M153.66,54.22c0,1.11-.84,1.71-2.31,1.71-1.88,0-2.61-.84-2.66-1.91h1.54c.05.52.4.78,1.05.78.46,0,.72-.15.72-.45,0-.45-.49-.51-1.33-.7-.9-.19-1.88-.52-1.88-1.62,0-.95.82-1.68,2.31-1.68,1.69,0,2.35.85,2.4,1.77h-1.54c-.05-.42-.28-.65-.81-.65-.46,0-.7.16-.7.42,0,.37.33.38,1.14.55,1.04.23,2.07.57,2.07,1.76Z"/>
    <path class="cls-1" d="M156.82,48.44h3.57c1.53,0,2.49.8,2.49,2.34s-.96,2.34-2.49,2.34h-1.72v2.66h-1.85v-7.33ZM158.68,51.61h1.33c.64,0,1.03-.22,1.03-.83s-.39-.83-1.03-.83h-1.33v1.66Z"/>
    <path class="cls-1" d="M167.22,50.47v1.44h-.02c-.84-.15-1.74.31-1.74,1.43v2.44h-1.65v-5.25h1.65v.86h.02c.26-.58.71-.95,1.29-.95.14,0,.27,0,.45.04Z"/>
    <path class="cls-1" d="M168.14,49.17c0-.47.36-.73.82-.73s.82.26.82.73-.36.73-.82.73-.82-.25-.82-.73ZM169.79,50.52v5.25h-1.65v-5.25h1.65Z"/>
    <path class="cls-1" d="M172.19,50.52l1.07,3.42h.02l1.07-3.42h1.65l-1.82,5.25h-1.81l-1.82-5.25h1.65Z"/>
    <path class="cls-1" d="M180.03,54.18h1.64c-.29,1.06-1.11,1.75-2.54,1.75-1.75,0-2.81-1.15-2.81-2.79s1.04-2.79,2.72-2.79c1.8,0,2.72,1.31,2.72,3.22h-3.79c0,.74.55,1.13,1.13,1.13s.83-.27.94-.52ZM177.96,52.58h2.14c0-.73-.44-1.1-1.07-1.1s-1.07.37-1.07,1.1ZM179.62,49.83h-1.24l.44-1.44h1.85l-1.06,1.44Z"/>
  </g>
  <path class="cls-1" d="M159.13,29.15v14.24h-8.33V2.98h15.76c3.03,0,5.7.55,8.01,1.67,2.3,1.11,4.07,2.69,5.31,4.73,1.24,2.04,1.86,4.37,1.86,6.98,0,3.96-1.36,7.08-4.07,9.37-2.71,2.29-6.46,3.43-11.25,3.43h-7.3ZM159.13,22.41h7.44c2.2,0,3.88-.52,5.04-1.55,1.16-1.04,1.73-2.52,1.73-4.44s-.58-3.58-1.75-4.8c-1.17-1.22-2.78-1.85-4.83-1.89h-7.63v12.68Z"/>
  <path class="cls-1" d="M140.25,26.72l-.06-.16-9.35-23.66h-8.17l-16.35,40.64h8.87l.21-.07.97-2.56.97-2.49.97-2.56.55-1.18,1.18-.07h14.4l.21.41.69,1.73.97,2.56.9,2.28.69,1.87.21.07h8.79l-6.65-16.82ZM131.32,26.37l-.14.07h-4.01l-5.19-.07.07-.35.9-2.49.69-1.73,1.04-2.7.76-1.94.76-1.87.42-1.11.21.28.41,1.18.76,1.87.69,1.8.83,2.15.55,1.38.69,1.8.55,1.52v.21Z"/>
  <polygon class="cls-1" points="76.4 23.07 75.73 22.01 75.51 21.64 76.4 23.07"/>
  <polygon class="cls-1" points="77.87 25.43 77.53 24.91 76.85 23.8 77.87 25.43"/>
  <polygon class="cls-1" points="81.34 31.01 81.06 30.59 80.16 29.14 79.12 27.48 78.68 26.74 81.34 31.01"/>
  <polygon class="cls-1" points="83.5 34.47 83.49 34.47 83.07 33.85 82.3 32.55 83.5 34.47"/>
  <polygon class="cls-1" points="91.24 22.75 91.1 22.97 90.2 24.43 89.23 25.95 88.19 27.61 87.29 29.07 86.25 30.73 85.49 31.91 84.73 33.15 83.97 34.33 83.9 34.4 91.24 22.75"/>
  <rect class="cls-1" x="52.68" y="2.97" width="8.65" height="40.5"/>
  <g>
    <path class="cls-1" d="M16.13,20.05c1.25-1.14,2.51-2.26,3.75-3.41,2.13-1.97,4.32-3.87,6.61-5.66.56-.44.69-.98.18-1.59-.47-.56-.87-.52-1.42-.04-1.35,1.15-2.8,2.17-4.12,3.33-2.22,1.95-4.39,3.98-6.57,5.98-2.16,1.98-2.78,4.43-2.04,7.22.16.59.35,1.17,1.08,1.5.86.38,1.36,1.34,1.08,2.18-.55,1.61.4,2.76.89,4.05.58,1.56,1.24,3.13,1.38,4.77.15,1.73-.26,3.44-1.71,4.68-.79.68-1.71.3-2.58.29-.29,0-.59-.23-.93-.23-1.18.02-1.35-.74-.92-1.55,1.26-2.41,1.48-4.98,1.37-7.62-.04-.89-.23-1.53-1.09-2.08-1.51-.95-1.87-2.05-1.14-3.59.4-.85.32-1.64.15-2.39-.33-1.5-.33-2.99-.01-4.46.16-.74-.08-.82-.66-.81-1.38.01-2.75-.03-4.13.02-.67.02-1.15-.25-1.34-.82-.16-.51-.03-.94.52-1.39,4.57-3.75,9.21-7.41,13.9-11.02,1.47-1.14,2.96-2.27,4.34-3.51.85-.76,1.81-.91,2.82-.92,7.4-.02,14.8-.01,22.19-.01.6,0,1.24-.13,1.48.7.2.68-.19,1.05-.6,1.39-2.16,1.78-4.32,3.55-6.51,5.29-3.35,2.66-6.79,5.21-10.07,7.95-1.61,1.35-3.16,2.22-5.39,2.08-3.4-.2-6.83-.05-10.24-.05-.09-.1-.18-.2-.26-.3Z"/>
    <path class="cls-1" d="M22.48,22.91c2.04-.21,4.53.25,7.03-.24,1.84-.36,2.9-1.79,4.25-2.78,2.92-2.15,5.7-4.49,8.52-6.76.56-.45.93-.42,1.16.31.66,2.06,1.45,4.09,1.97,6.19.37,1.5-.42,2.82-1.35,3.95-2.06,2.5-4.77,4.19-7.64,5.54-3.12,1.48-6.41,2.61-9.86,3.09-2.53.35-5.09.47-7.6-.2-.82-.22-1.26-.72-1.11-1.66.3-1.79-.38-3.36-1.97-4.11-1.23-.58-1.2-1.71-1.39-2.68-.13-.68.63-.65,1.15-.65,2.13,0,4.26,0,6.84,0Z"/>
  </g>
  <polygon class="cls-1" points="94.77 43.47 94.23 43.47 94.23 22.17 94.28 43.4 94.77 43.47"/>
  <polygon class="cls-1" points="75.51 21.64 74.98 20.79 75.18 21.11 75.51 21.64"/>
  <polygon class="cls-1" points="78.68 26.74 77.87 25.43 78.29 26.09 78.68 26.74"/>
  <polygon class="cls-1" points="82.3 32.55 81.34 31.01 81.75 31.63 82.3 32.55"/>
  <polygon class="cls-1" points="102.87 2.97 102.87 43.4 102.8 43.47 94.77 43.47 94.28 43.4 94.23 22.17 94.22 18.06 94.15 18.13 91.24 22.75 83.9 34.4 83.68 34.76 83.5 34.47 82.3 32.55 81.75 31.63 81.34 31.01 78.68 26.74 78.29 26.09 77.87 25.43 76.85 23.8 76.4 23.07 75.51 21.64 75.18 21.11 74.98 20.79 73.24 18 73.24 43.4 73.1 43.47 64.79 43.47 64.72 43.4 64.72 3.04 64.79 2.97 73.75 2.97 77.58 9.3 77.6 9.34 83.83 19.65 86.12 15.78 86.86 14.51 87.09 14.11 87.49 13.45 93.08 3.96 93.66 2.97 102.87 2.97"/>
  <g>
    <path class="cls-2" d="M5.33,69.5l1.23-.83c-.07.23-.14.91-.21,2.03,0,1.47.76,2.26,2.28,2.38,2.35-.13,3.16-1.57,2.4-4.33-.21-.9-.45-1.56-.73-1.97l2.86-.77c.14.64.21,1.49.21,2.55h.08c.46-1.08,1.19-2.13,2.19-3.13,1.11-1.02,2.24-1.55,3.36-1.6,1.63.1,2.63.83,2.99,2.18.36,1.42.22,3.09-.42,5.02-3.48.33-6.23.33-8.26,0-.36,2.98-1.93,4.46-4.7,4.46-1.13,0-2.13-.41-3.01-1.22-.91-.84-1.23-1.77-.96-2.8.35-1.04.57-1.7.67-1.97ZM14.57,68.67c2.62.22,4.41.2,5.37-.06,0-1.53-.63-2.3-1.88-2.3-1.49,0-2.65.79-3.49,2.36Z"/>
    <path class="cls-2" d="M28.06,71.05h-.52l-3.65-.02c.15-3.18-.15-6.84-.92-10.98l3.03-.87c.31,3.09.44,6.21.4,9.35h1.66v2.51Z"/>
    <path class="cls-2" d="M33.43,70.07c-.24.18-.45.32-.64.41-.65.32-1.27.51-1.84.57-.13.01-.6.01-1.39,0h-1.72v-2.51h1.68c1.11.01,1.82-.04,2.13-.14.2-.08.54-.26,1.02-.54.47-.28.72-.44.74-.48-.72-.52-1.1-.78-1.13-.79-.79-.4-1.35-.64-1.68-.72-.32-.08-.62-.07-.89,0-.23.08-.46.25-.68.51l-.76.24c.02-1.12.16-1.87.43-2.25.27-.4.61-.67,1-.82.72-.28,1.64-.07,2.76.63.24.15.74.49,1.52,1.03.61.43,1.12.75,1.53.97.39.2.73.33,1.03.41l.21.05-.61,1.43c-.42.06-.8.23-1.15.48h2.12v2.51c-1.71,0-2.94-.33-3.69-.98ZM30.47,59.38l1.55,1.43c-.36.53-.88,1-1.55,1.43l-1.53-1.43c.65-.42,1.16-.9,1.53-1.43Z"/>
    <path class="cls-2" d="M40.81,71.05h-3.99v-2.51h1.63c-.03-1.46-.37-4.28-1.02-8.46l3.03-.87.52,1.6-.4,1.14c.14,2.04.22,4.24.23,6.61v2.49Z"/>
    <path class="cls-2" d="M43.05,71.03c.15-3.18-.15-6.84-.92-10.98l3.03-.87c.39,3.92.52,7.87.38,11.86l-2.49-.02Z"/>
    <path class="cls-2" d="M53.35,69.25l-1.46,1.24-2.42-.97c-.54-.21-.65-1.06-.33-2.55.11-.45.58-.93,1.4-1.45l2.38-1.55c-.04-.22-.08-.44-.1-.68l2.65-.91c.13,1.92.19,3.97.21,6.14h1.19v2.51h-3.51v-1.8ZM51.58,58.68l1.55,1.39c-.36.55-.88,1.03-1.55,1.43l-1.55-1.43c.67-.4,1.18-.86,1.55-1.39ZM53.1,65.52c-1.6.93-2.49,1.54-2.65,1.84,1.02.8,1.95.75,2.8-.14-.03-.54-.08-1.11-.15-1.7ZM53.88,58.68l1.55,1.39c-.36.55-.88,1.03-1.55,1.43l-1.5-1.43c.64-.4,1.14-.86,1.5-1.39Z"/>
    <path class="cls-2" d="M59.89,68.53c-.07-.9-.47-2.1-1.19-3.59l3.03-.87c.21,1.57.32,3.06.33,4.46h1.36v2.51h-.75c-.22-.19-.44-.42-.65-.68,0,.05-.02.28-.06.68h-5.33v-2.51h3.26ZM58.26,72.09l1.5,1.39c-.36.55-.86,1.03-1.5,1.43l-1.55-1.43c.65-.4,1.17-.86,1.55-1.39ZM60.69,72.09l1.55,1.39c-.38.55-.89,1.03-1.55,1.43l-1.53-1.43c.65-.4,1.16-.86,1.53-1.39Z"/>
    <path class="cls-2" d="M64.6,68.53c-1.06-1.13-1.08-2.42-.06-3.86.6-.89,1.3-1.37,2.11-1.43,1.11-.06,2.02.45,2.72,1.55.63.95.64,2.2.04,3.75h1.34v2.51h-1.02c-1.04,0-1.89-.15-2.55-.46-.64.3-1.83.45-3.55.46h-.42v-2.51h1.4ZM65.1,59.26l1.55,1.39c-.36.55-.88,1.03-1.55,1.43l-1.55-1.43c.67-.4,1.18-.86,1.55-1.39ZM65.73,67.03c.22.37.78.68,1.67.93.88-.68.93-1.38.17-2.11-.32-.28-.61-.42-.88-.41-.21.01-.44.15-.69.41-.39.44-.48.83-.27,1.18ZM67.4,59.26l1.55,1.39c-.36.55-.88,1.03-1.55,1.43l-1.5-1.43c.64-.4,1.14-.86,1.5-1.39Z"/>
    <path class="cls-2" d="M73.77,68.53c-.07-.9-.47-2.1-1.19-3.59l3.03-.87c.21,1.57.32,3.06.33,4.46h1.36v2.51h-.75c-.22-.19-.44-.42-.65-.68,0,.05-.02.28-.06.68h-5.33v-2.51h3.26ZM72.14,72.09l1.5,1.39c-.36.55-.86,1.03-1.5,1.43l-1.55-1.43c.65-.4,1.17-.86,1.55-1.39ZM74.57,72.09l1.55,1.39c-.38.55-.89,1.03-1.55,1.43l-1.53-1.43c.65-.4,1.16-.86,1.53-1.39Z"/>
    <path class="cls-2" d="M79.6,68.53c-.07-.9-.47-2.1-1.19-3.59l3.03-.87c.21,1.57.32,3.06.33,4.46h1.15v2.51h-.54c-.22-.19-.44-.42-.65-.68,0,.05-.02.27-.06.66l-4.6.02v-2.51h2.53ZM79.58,72.09l1.55,1.41c-.38.54-.89,1.01-1.55,1.41l-1.53-1.41c.65-.41,1.16-.88,1.53-1.41Z"/>
    <path class="cls-2" d="M92.79,71.05c-.25-.18-.48-.41-.69-.68-.05.32-.11.54-.19.68-3.13.06-5.84.06-8.11,0h-1.11v-2.51h1.11c.03-.06.06-.15.1-.25.04-.09.08-.17.1-.23-.07-2.14-.16-3.52-.27-4.14l-.5-3.61,2.49-1.1.52,1.64-.4,1.1-.13,3.3-.08.58c.13-.14.42-.4.9-.77,1.18-.9,2.45-1.26,3.78-1.06,1.02.19,1.69.88,2.01,2.07.14.7.17,1.52.08,2.47h.9v2.51h-.52ZM90.28,68.71c0-1.58-.62-2.38-1.86-2.38-1.34,0-2.4.79-3.2,2.38,1.88.04,3.57.04,5.06,0Z"/>
    <path class="cls-2" d="M95.88,68.53c-.07-.9-.47-2.1-1.19-3.59l3.03-.87c.21,1.57.32,3.06.33,4.46h1.36v2.51h-.75c-.22-.19-.44-.42-.65-.68,0,.05-.02.28-.06.68h-4.87v-2.51h2.8ZM94.92,60.23l1.5,1.39c-.36.55-.86,1.03-1.5,1.43l-1.55-1.43c.67-.4,1.18-.86,1.55-1.39ZM97.35,60.23l1.55,1.39c-.36.55-.88,1.03-1.55,1.43l-1.5-1.43c.64-.4,1.14-.86,1.5-1.39Z"/>
    <path class="cls-2" d="M103.18,71.05h-3.99v-2.51h1.63c-.03-1.46-.37-4.28-1.02-8.46l3.03-.87.52,1.6-.4,1.14c.14,2.04.22,4.24.23,6.61v2.49Z"/>
    <path class="cls-2" d="M105.41,71.03c.15-3.18-.15-6.84-.92-10.98l3.03-.87c.39,3.92.52,7.87.38,11.86l-2.49-.02Z"/>
    <path class="cls-2" d="M120.08,70.35c-.15.94-.6,1.81-1.34,2.61-.93.81-2.04,1.24-3.32,1.29-.86,0-1.69-.26-2.47-.77-1.3-.89-1.78-1.96-1.46-3.21.35-1.04.57-1.71.67-1.99l1.21-.79c-.07.27-.14.93-.21,1.99,0,.88.3,1.52.9,1.93.38.26.85.41,1.42.44,1.94-.1,2.86-.66,2.76-1.68-.14-1.46-.44-2.76-.9-3.92l2.61-.73c.21.98.3,1.98.27,3.01h1.04v2.51h-.54c-.22-.19-.44-.43-.65-.7ZM115.33,63.52l1.53,1.43c-.36.53-.87,1-1.53,1.43l-1.55-1.43c.65-.42,1.17-.9,1.55-1.43Z"/>
    <path class="cls-2" d="M129.22,71.05c-.21-.17-.4-.38-.56-.64-.26.62-.43.99-.5,1.1-2.02.04-3.55-.23-4.6-.81-.56.22-1.11.33-1.67.35h-.84v-2.51h.65c-.28-.4-.43-.76-.46-1.08-.08-.89.3-1.66,1.15-2.3.84-.64,1.69-.84,2.55-.58-.14-.17-.29-.33-.46-.5l1.27-1.6c2.08,2,3.13,3.99,3.16,5.99v.08h.79v2.51h-.48ZM122.95,67.1c-.03.1.32.52,1.04,1.24.31-.18.5-.47.59-.87.08-.43,0-.75-.27-.99-.79-.04-1.25.17-1.36.62ZM126.06,66.97c-.03.4-.13.77-.31,1.1-.14.23-.31.46-.5.68.21.13.52.23.94.31.47.09.73.08.77-.04.08-.39-.22-1.07-.9-2.05Z"/>
    <path class="cls-2" d="M136.26,70.37c-.21.39-.45.69-.73.91-1.34-.13-2.57-.46-3.7-.99-.45.5-.99.75-1.63.75h-.73v-2.51h.71c.35-.01.67-.3.96-.87,1.1-2.14,2.13-3.2,3.09-3.19.64,0,1.25.39,1.82,1.16.57.76.81,1.73.73,2.9h.69v2.51h-.52c-.25-.18-.48-.41-.69-.68ZM132.66,68.03c.31.21.67.42,1.09.64.81.44,1.18.24,1.13-.6-.06-.85-.39-1.28-1-1.28-.35,0-.75.41-1.21,1.24Z"/>
    <path class="cls-2" d="M141.23,71.05h-3.99v-2.51h1.63c-.03-1.46-.37-4.28-1.02-8.46l3.03-.87.52,1.6-.4,1.14c.14,2.04.22,4.24.23,6.61v2.49Z"/>
    <path class="cls-2" d="M143.47,71.03c.15-3.18-.15-6.84-.92-10.98l3.03-.87c.39,3.92.52,7.87.38,11.86l-2.49-.02Z"/>
    <path class="cls-2" d="M156.15,71.05c-.26-.18-.49-.41-.69-.7l-.08.31c0,.06-.02.19-.06.39-1.88.05-3.92.05-6.12,0v-2.51c1.52.26,2.92.26,4.2,0-.36-1.52-.88-2.87-1.57-4.04l2.59-1.04c.75,1.71,1.14,3.41,1.17,5.08h1.04v2.51h-.48Z"/>
    <path class="cls-2" d="M164.67,71.05c-.21-.17-.4-.38-.56-.64-.26.62-.43.99-.5,1.1-2.02.04-3.55-.23-4.6-.81-.56.22-1.11.33-1.67.35h-.84v-2.51h.65c-.28-.4-.43-.76-.46-1.08-.08-.89.3-1.66,1.15-2.3.84-.64,1.69-.84,2.55-.58-.14-.17-.29-.33-.46-.5l1.27-1.6c2.08,2,3.13,3.99,3.16,5.99v.08h.79v2.51h-.48ZM158.4,67.1c-.03.1.32.52,1.04,1.24.31-.18.5-.47.59-.87.08-.43,0-.75-.27-.99-.79-.04-1.25.17-1.36.62ZM161.52,66.97c-.03.4-.13.77-.31,1.1-.14.23-.31.46-.5.68.21.13.52.23.94.31.47.09.73.08.77-.04.08-.39-.22-1.07-.9-2.05Z"/>
    <path class="cls-2" d="M167.64,68.3c.6-.98-.2-1.72-2.38-2.22l1.44-2.57c.18-.04.39-.08.63-.12,3.46-.64,5.48-.27,6.06,1.12.5,1.2-.04,2.54-1.61,4.02h2.15v2.51c-2.65.03-4.23-.28-4.74-.91-.96.58-1.96.88-2.99.91h-1.27v-2.51h1.23c.86,0,1.36-.08,1.48-.23ZM169.73,67.36c1.39-1.08,1.91-1.73,1.55-1.93-.25-.15-1.4-.12-3.45.12.96.26,1.6.86,1.9,1.82Z"/>
    <path class="cls-2" d="M180.39,65.64c.61.8.85,1.8.71,3.01-.14,1.17-.55,2.05-1.23,2.63-1.41-.13-2.65-.45-3.74-.97-.43.49-.97.73-1.61.73h-.71v-2.51h.69c.36,0,.68-.29.96-.87,1.1-2.14,2.12-3.2,3.07-3.19.65,0,1.27.39,1.86,1.16ZM176.96,68.05c.32.21.69.41,1.11.62.82.44,1.2.24,1.13-.6-.06-.85-.39-1.28-1-1.28-.35,0-.76.42-1.23,1.26Z"/>
  </g>
</svg>