<?xml version="1.0" encoding="UTF-8"?>
<svg id="Calque_1" data-name="Calque 1" xmlns="http://www.w3.org/2000/svg" viewBox="0 0 1952.12 343.32">
  <defs>
    <style>
      .cls-1 {
        fill: #fff;
        stroke-width: 0px;
      }
    </style>
  </defs>
  <path class="cls-1" d="M498.97,15.26v185.28c0,46.46-15.82,75.55-70.43,75.55s-74.02-31.13-74.02-77.08V15.26h-58.18v83.19h44.62v145.67h-40.05c10.89,43.12,41.05,70.2,87.25,79.69,12.33,2.54,25.82,3.83,40.38,3.83s27.54-1.29,39.56-3.83c57.78-12.2,88.55-53.27,88.55-119.18V15.26h-57.68Z"/>
  <path class="cls-1" d="M588.07,15.26v54.61h96.2v257.43h59.29V69.87h96.21V15.26h-251.71Z"/>
  <path class="cls-1" d="M933.56,274.16V14.67h-59.4v312.63h200.6v-53.15h-141.2Z"/>
  <path class="cls-1" d="M1275.11,19.41c-.37-.09-.75-.17-1.13-.24-.39-.09-.78-.17-1.18-.24-11.75-2.42-24.31-3.66-37.61-3.66s-25.87,1.25-37.61,3.66c-.4.08-.79.16-1.18.24-.38.08-.76.16-1.13.24-69.3,15.25-109.89,71.53-109.89,151.17s38.39,137.53,108.8,153.07c12.65,2.79,26.34,4.24,41.02,4.24s28.25-1.45,40.86-4.24c70.21-15.54,108.96-72.64,108.96-153.07s-40.6-135.91-109.9-151.17ZM1234.68,278.45c-64.42,0-92.89-42.45-92.89-107.87s28.97-105.38,93.39-105.38,92.89,41.95,92.89,105.38-27.96,107.87-93.39,107.87Z"/>
  <rect class="cls-1" x="243.32" y="59.67" width="44.65" height="44.64"/>
  <g>
    <rect class="cls-1" x="243.32" y="238.25" width="44.65" height="44.4"/>
    <rect class="cls-1" x="109.38" y="282.65" width="133.94" height="44.65"/>
    <rect class="cls-1" x="64.98" y="238.25" width="44.4" height="44.4"/>
    <rect class="cls-1" x="20.34" y="193.61" width="44.64" height="44.64"/>
    <rect class="cls-1" x="64.98" y="148.96" width="44.4" height="44.65"/>
    <rect class="cls-1" x="20.34" y="104.31" width="44.64" height="44.65"/>
    <rect class="cls-1" x="64.98" y="59.67" width="44.4" height="44.64"/>
    <rect class="cls-1" x="109.38" y="15.26" width="133.94" height="44.41"/>
    <rect class="cls-1" x="287.97" y="104.31" width="44.65" height="133.94"/>
  </g>
  <g>
    <path class="cls-1" d="M1847.38,57.86v.46h2.14v-.46h-2.14ZM1670.56,326.38v.5h178.95v-.5h-178.95Z"/>
    <rect class="cls-1" x="1715.35" y="103.12" width="44.55" height="44.8"/>
    <polygon class="cls-1" points="1849.51 15.17 1849.51 57.86 1847.38 57.86 1847.38 58.32 1715.35 58.32 1715.35 103.12 1670.56 103.12 1670.56 15.17 1849.51 15.17"/>
    <rect class="cls-1" x="1849.51" y="58.32" width="44.79" height="44.8"/>
    <rect class="cls-1" x="1894.3" y="103.12" width="44.8" height="134.4"/>
    <polygon class="cls-1" points="1849.51 282.07 1849.51 326.38 1670.56 326.38 1670.56 147.92 1715.35 147.92 1715.35 282.07 1849.51 282.07"/>
    <rect class="cls-1" x="1849.51" y="237.52" width="44.79" height="44.55"/>
  </g>
  <path class="cls-1" d="M1680.79,107.51v37.37h-18.55v134c-17.57,27.74-47.38,44.24-88.41,48.42-6.9.71-14.12,1.06-21.65,1.06s-15.01-.35-22.05-1.06c-70.81-7.04-110.65-49.26-110.65-122.42V15.17h58.41v184.07c0,46.11,16.91,77.37,74.29,77.37s70.71-29.21,70.71-75.83V15.17h39.35v92.34h18.55Z"/>
</svg>