<?xml version="1.0" encoding="UTF-8"?>
<svg id="Layer_1" data-name="Layer 1" xmlns="http://www.w3.org/2000/svg" viewBox="0 0 428 40">
  <defs>
    <style>
      .cls-1 {
        fill: none;
        stroke: #1b1f2a;
        stroke-miterlimit: 10;
        stroke-width: .25px;
      }

      .cls-2 {
        opacity: .8;
      }

      .cls-3 {
        fill: #1e539e;
      }

      .cls-3, .cls-4 {
        stroke-width: 0px;
      }

      .cls-4 {
        fill: #ee5a2a;
      }
    </style>
  </defs>
  <g class="cls-2">
    <line class="cls-1" x1="178.75" y1="1.73" x2="178.75" y2="38.72"/>
  </g>
  <g>
    <g>
      <path class="cls-3" d="M197.47,3.21v9.62h-2.43V3.21h2.43Z"/>
      <path class="cls-3" d="M205.87,8.18v4.65h-2.16v-3.97c0-1.04-.36-1.39-1.08-1.39-.82,0-1.3.42-1.3,1.37v3.98h-2.16v-6.89h2.16v1h.03c.36-.63,1.04-1.21,2.27-1.21,1.34,0,2.24.87,2.24,2.45Z"/>
      <path class="cls-3" d="M213.46,10.8c0,1.45-1.11,2.25-3.03,2.25-2.47,0-3.42-1.1-3.49-2.5h2.03c.07.69.53,1.02,1.38,1.02.61,0,.95-.2.95-.59,0-.59-.65-.67-1.74-.91-1.18-.26-2.47-.69-2.47-2.13,0-1.25,1.08-2.21,3.03-2.21,2.22,0,3.08,1.12,3.15,2.33h-2.03c-.07-.55-.36-.85-1.07-.85-.61,0-.92.22-.92.55,0,.48.43.5,1.5.73,1.36.3,2.72.75,2.72,2.31Z"/>
      <path class="cls-3" d="M217.22,7.56v2.85c0,.78.28.78,1.2.78v1.61c-.39.08-.73.15-1.34.15-1.58,0-2.03-.83-2.03-2.38v-3.01h-.96v-1.61h.96v-1.92h2.16v1.92h1.2v1.61h-1.2Z"/>
      <path class="cls-3" d="M219.72,4.17c0-.62.47-.96,1.08-.96s1.08.34,1.08.96-.47.96-1.08.96-1.08-.32-1.08-.96ZM221.88,5.95v6.89h-2.16v-6.89h2.16Z"/>
      <path class="cls-3" d="M226.18,7.56v2.85c0,.78.28.78,1.2.78v1.61c-.39.08-.73.15-1.34.15-1.58,0-2.03-.83-2.03-2.38v-3.01h-.96v-1.61h.96v-1.92h2.16v1.92h1.2v1.61h-1.2Z"/>
      <path class="cls-3" d="M235.33,5.95v6.89h-2.16v-1h-.03c-.36.63-1.04,1.21-2.27,1.21-1.34,0-2.24-.87-2.24-2.45v-4.65h2.16v3.97c0,1.04.36,1.39,1.08,1.39.82,0,1.3-.42,1.3-1.37v-3.98h2.16Z"/>
      <path class="cls-3" d="M239.63,7.56v2.85c0,.78.28.78,1.2.78v1.61c-.39.08-.73.15-1.34.15-1.58,0-2.03-.83-2.03-2.38v-3.01h-.96v-1.61h.96v-1.92h2.16v1.92h1.2v1.61h-1.2Z"/>
      <path class="cls-3" d="M251.82,3.21v9.62h-2.16v-.69h-.03c-.27.36-1,.9-2,.9-1.84,0-3.01-1.4-3.01-3.66s1.18-3.66,3.01-3.66c1,0,1.73.54,2,.9h.03v-3.42h2.16ZM249.61,9.39c0-1.35-.54-2.04-1.42-2.04s-1.42.7-1.42,2.04.54,2.04,1.42,2.04,1.42-.7,1.42-2.04Z"/>
      <path class="cls-3" d="M257.94,10.75h2.15c-.38,1.39-1.46,2.3-3.34,2.3-2.3,0-3.69-1.51-3.69-3.66s1.36-3.66,3.57-3.66c2.36,0,3.57,1.72,3.57,4.22h-4.97c0,.97.72,1.48,1.49,1.48s1.09-.35,1.23-.69ZM255.22,8.65h2.81c0-.96-.58-1.44-1.41-1.44s-1.41.48-1.41,1.44Z"/>
      <path class="cls-3" d="M267.54,10.8c0,1.45-1.11,2.25-3.03,2.25-2.47,0-3.42-1.1-3.49-2.5h2.03c.07.69.53,1.02,1.38,1.02.61,0,.95-.2.95-.59,0-.59-.65-.67-1.74-.91-1.18-.26-2.47-.69-2.47-2.13,0-1.25,1.08-2.21,3.03-2.21,2.22,0,3.08,1.12,3.15,2.33h-2.03c-.07-.55-.36-.85-1.07-.85-.61,0-.92.22-.92.55,0,.48.43.5,1.5.73,1.36.3,2.72.75,2.72,2.31Z"/>
      <path class="cls-3" d="M271.68,3.21h2.97l1.99,6.13h.03l1.99-6.13h2.97v9.62h-2.3v-5.99h-.03l-1.8,5.99h-1.7l-1.8-5.99h-.03v5.99h-2.3V3.21Z"/>
      <path class="cls-3" d="M288.02,10.75h2.15c-.38,1.39-1.46,2.3-3.34,2.3-2.3,0-3.69-1.51-3.69-3.66s1.37-3.66,3.57-3.66c2.37,0,3.57,1.72,3.57,4.22h-4.97c0,.97.72,1.48,1.49,1.48s1.09-.35,1.23-.69ZM285.31,8.65h2.81c0-.96-.58-1.44-1.41-1.44s-1.41.48-1.41,1.44ZM287.5,5.03h-1.62l.58-1.88h2.43l-1.39,1.88Z"/>
      <path class="cls-3" d="M294.13,7.56v2.85c0,.78.28.78,1.2.78v1.61c-.39.08-.73.15-1.34.15-1.58,0-2.03-.83-2.03-2.38v-3.01h-.96v-1.61h.96v-1.92h2.16v1.92h1.2v1.61h-1.2Z"/>
      <path class="cls-3" d="M296.63,4.17c0-.62.47-.96,1.08-.96s1.08.34,1.08.96-.47.96-1.08.96-1.08-.32-1.08-.96ZM298.8,5.95v6.89h-2.16v-6.89h2.16Z"/>
      <path class="cls-3" d="M304.92,10.75h2.15c-.38,1.39-1.46,2.3-3.34,2.3-2.3,0-3.69-1.51-3.69-3.66s1.37-3.66,3.57-3.66c2.37,0,3.57,1.72,3.57,4.22h-4.97c0,.97.72,1.48,1.49,1.48s1.09-.35,1.23-.69ZM302.2,8.65h2.81c0-.96-.58-1.44-1.41-1.44s-1.41.48-1.41,1.44Z"/>
      <path class="cls-3" d="M312.89,5.88v1.88h-.03c-1.11-.2-2.28.4-2.28,1.87v3.2h-2.16v-6.89h2.16v1.13h.03c.34-.77.93-1.25,1.69-1.25.19,0,.35,0,.59.05Z"/>
      <path class="cls-3" d="M320.19,10.8c0,1.45-1.11,2.25-3.03,2.25-2.47,0-3.42-1.1-3.49-2.5h2.03c.07.69.53,1.02,1.38,1.02.61,0,.95-.2.95-.59,0-.59-.65-.67-1.74-.91-1.18-.26-2.47-.69-2.47-2.13,0-1.25,1.08-2.21,3.03-2.21,2.22,0,3.08,1.12,3.15,2.33h-2.03c-.07-.55-.36-.85-1.07-.85-.61,0-.92.22-.92.55,0,.48.43.5,1.5.73,1.36.3,2.72.75,2.72,2.31Z"/>
      <path class="cls-3" d="M326.72,10.83l-.62,2h-2.43l3.5-9.62h2.43l3.49,9.62h-2.43l-.62-2h-3.31ZM329.49,8.99l-1.09-3.55h-.03l-1.09,3.55h2.22Z"/>
      <path class="cls-3" d="M341.33,9.39c0,2.26-1.18,3.66-3.01,3.66-1,0-1.73-.54-2-.9h-.03v3.07h-2.16V5.95h2.16v.69h.03c.27-.36,1-.9,2-.9,1.84,0,3.01,1.4,3.01,3.66ZM339.16,9.39c0-1.35-.54-2.04-1.42-2.04s-1.42.7-1.42,2.04.54,2.04,1.42,2.04,1.42-.7,1.42-2.04Z"/>
      <path class="cls-3" d="M349.83,9.39c0,2.26-1.18,3.66-3.01,3.66-1,0-1.73-.54-2-.9h-.03v3.07h-2.16V5.95h2.16v.69h.03c.27-.36,1-.9,2-.9,1.84,0,3.01,1.4,3.01,3.66ZM347.67,9.39c0-1.35-.54-2.04-1.42-2.04s-1.42.7-1.42,2.04.54,2.04,1.42,2.04,1.42-.7,1.42-2.04Z"/>
      <path class="cls-3" d="M353.3,3.21v9.62h-2.16V3.21h2.16Z"/>
      <path class="cls-3" d="M354.8,4.17c0-.62.47-.96,1.08-.96s1.08.34,1.08.96-.47.96-1.08.96-1.08-.32-1.08-.96ZM356.96,5.95v6.89h-2.16v-6.89h2.16Z"/>
      <path class="cls-3" d="M365.46,5.95v9.27h-2.16v-3.07h-.03c-.27.36-1,.9-2,.9-1.84,0-3.01-1.4-3.01-3.66s1.18-3.66,3.01-3.66c1,0,1.73.54,2,.9h.03v-.69h2.16ZM363.26,9.39c0-1.35-.54-2.04-1.42-2.04s-1.42.7-1.42,2.04.54,2.04,1.42,2.04,1.42-.7,1.42-2.04Z"/>
      <path class="cls-3" d="M373.67,5.95v6.89h-2.16v-1h-.03c-.36.63-1.04,1.21-2.27,1.21-1.34,0-2.24-.87-2.24-2.45v-4.65h2.16v3.97c0,1.04.36,1.39,1.08,1.39.82,0,1.3-.42,1.3-1.37v-3.98h2.16Z"/>
      <path class="cls-3" d="M379.79,10.75h2.15c-.38,1.39-1.46,2.3-3.34,2.3-2.3,0-3.69-1.51-3.69-3.66s1.36-3.66,3.57-3.66c2.37,0,3.57,1.72,3.57,4.22h-4.97c0,.97.72,1.48,1.49,1.48s1.09-.35,1.23-.69ZM377.07,8.65h2.81c0-.96-.58-1.44-1.41-1.44s-1.41.48-1.41,1.44ZM379.26,5.03h-1.62l.58-1.88h2.43l-1.39,1.88Z"/>
      <path class="cls-3" d="M389.39,10.8c0,1.45-1.11,2.25-3.03,2.25-2.47,0-3.42-1.1-3.49-2.5h2.03c.07.69.53,1.02,1.38,1.02.61,0,.95-.2.95-.59,0-.59-.65-.67-1.74-.91-1.18-.26-2.47-.69-2.47-2.13,0-1.25,1.08-2.21,3.03-2.21,2.22,0,3.08,1.12,3.15,2.33h-2.03c-.07-.55-.36-.85-1.07-.85-.61,0-.92.22-.92.55,0,.48.43.5,1.5.73,1.36.3,2.72.75,2.72,2.31Z"/>
      <path class="cls-3" d="M393.54,3.21h4.69c2.01,0,3.27,1.05,3.27,3.07s-1.26,3.07-3.27,3.07h-2.26v3.48h-2.43V3.21ZM395.97,7.37h1.74c.84,0,1.35-.28,1.35-1.09s-.51-1.09-1.35-1.09h-1.74v2.18Z"/>
      <path class="cls-3" d="M407.19,5.88v1.88h-.03c-1.11-.2-2.28.4-2.28,1.87v3.2h-2.16v-6.89h2.16v1.13h.03c.34-.77.93-1.25,1.69-1.25.19,0,.35,0,.59.05Z"/>
      <path class="cls-3" d="M408.39,4.17c0-.62.47-.96,1.08-.96s1.08.34,1.08.96-.47.96-1.08.96-1.08-.32-1.08-.96ZM410.55,5.95v6.89h-2.16v-6.89h2.16Z"/>
      <path class="cls-3" d="M413.7,5.95l1.41,4.49h.03l1.41-4.49h2.16l-2.39,6.89h-2.38l-2.39-6.89h2.16Z"/>
      <path class="cls-3" d="M423.98,10.75h2.15c-.38,1.39-1.46,2.3-3.34,2.3-2.3,0-3.69-1.51-3.69-3.66s1.36-3.66,3.57-3.66c2.37,0,3.57,1.72,3.57,4.22h-4.97c0,.97.72,1.48,1.49,1.48s1.09-.35,1.23-.69ZM421.27,8.65h2.81c0-.96-.58-1.44-1.41-1.44s-1.41.48-1.41,1.44ZM423.46,5.03h-1.62l.58-1.88h2.43l-1.39,1.88Z"/>
    </g>
    <g>
      <path class="cls-4" d="M196.42,30.78l1.61-1.09c-.09.3-.18,1.19-.27,2.65,0,1.92.99,2.96,2.98,3.11,3.08-.17,4.13-2.06,3.14-5.66-.27-1.18-.59-2.04-.96-2.58l3.74-1.01c.18.84.27,1.95.27,3.34h.11c.6-1.42,1.56-2.78,2.87-4.09,1.46-1.33,2.92-2.03,4.4-2.1,2.13.13,3.43,1.09,3.91,2.86.47,1.85.29,4.04-.55,6.57-4.56.44-8.15.44-10.8,0-.47,3.89-2.52,5.84-6.15,5.84-1.48,0-2.79-.53-3.94-1.59-1.18-1.1-1.6-2.32-1.26-3.66.46-1.36.75-2.22.87-2.58ZM208.5,29.69c3.43.29,5.77.26,7.02-.08,0-2-.82-3.01-2.46-3.01-1.95,0-3.47,1.03-4.56,3.08Z"/>
      <path class="cls-4" d="M226.16,32.8h-.68l-4.77-.03c.2-4.16-.2-8.95-1.2-14.35l3.96-1.14c.4,4.04.57,8.12.52,12.23h2.17v3.29Z"/>
      <path class="cls-4" d="M233.17,31.52c-.31.24-.59.41-.83.53-.86.42-1.66.67-2.41.75-.17.02-.78.02-1.82,0h-2.25v-3.29h2.2c1.45.02,2.38-.05,2.79-.19.26-.1.71-.34,1.34-.71.62-.37.94-.58.97-.63-.95-.67-1.44-1.02-1.48-1.04-1.03-.52-1.76-.84-2.2-.95-.42-.1-.81-.1-1.16.01-.3.1-.6.32-.89.67l-1,.32c.03-1.47.21-2.45.56-2.94.36-.52.79-.88,1.31-1.07.95-.37,2.15-.1,3.61.82.31.19.97.64,1.98,1.35.8.56,1.47.99,2,1.26.51.26.96.44,1.35.53l.27.06-.79,1.87c-.55.08-1.05.29-1.5.63h2.77v3.29c-2.23,0-3.84-.43-4.82-1.28ZM229.3,17.53l2.02,1.87c-.47.69-1.15,1.31-2.02,1.87l-2-1.87c.86-.56,1.52-1.18,2-1.87Z"/>
      <path class="cls-4" d="M242.83,32.8h-5.22v-3.29h2.13c-.04-1.9-.48-5.59-1.34-11.07l3.96-1.14.68,2.1-.52,1.49c.18,2.66.28,5.54.3,8.64v3.26Z"/>
      <path class="cls-4" d="M245.75,32.77c.2-4.16-.2-8.95-1.2-14.35l3.96-1.14c.51,5.12.67,10.29.49,15.52l-3.25-.03Z"/>
      <path class="cls-4" d="M259.23,30.45l-1.91,1.62-3.17-1.26c-.71-.27-.86-1.38-.44-3.34.15-.59.76-1.22,1.83-1.9l3.12-2.02c-.05-.29-.1-.58-.14-.88l3.47-1.19c.16,2.51.25,5.19.27,8.04h1.56v3.29h-4.59v-2.35ZM256.91,16.62l2.02,1.82c-.47.72-1.15,1.35-2.02,1.87l-2.02-1.87c.87-.52,1.55-1.13,2.02-1.82ZM258.9,25.57c-2.1,1.21-3.25,2.01-3.47,2.4,1.33,1.04,2.55.99,3.66-.18-.04-.71-.1-1.45-.19-2.22ZM259.91,16.62l2.02,1.82c-.47.72-1.15,1.35-2.02,1.87l-1.97-1.87c.84-.52,1.49-1.13,1.97-1.82Z"/>
      <path class="cls-4" d="M267.78,29.51c-.09-1.18-.61-2.75-1.56-4.7l3.96-1.14c.27,2.06.42,4,.44,5.84h1.78v3.29h-.98c-.29-.25-.57-.55-.85-.88,0,.07-.03.36-.08.88h-6.97v-3.29h4.26ZM265.65,34.16l1.97,1.82c-.47.72-1.13,1.35-1.97,1.87l-2.02-1.87c.86-.52,1.53-1.13,2.02-1.82ZM268.82,34.16l2.02,1.82c-.49.72-1.17,1.35-2.02,1.87l-2-1.87c.86-.52,1.52-1.13,2-1.82Z"/>
      <path class="cls-4" d="M273.93,29.51c-1.38-1.48-1.41-3.17-.08-5.05.78-1.16,1.7-1.79,2.76-1.87,1.46-.08,2.64.59,3.55,2.02.82,1.25.84,2.88.05,4.9h1.75v3.29h-1.34c-1.37,0-2.48-.2-3.33-.61-.84.39-2.39.59-4.65.61h-.55v-3.29h1.83ZM274.59,17.38l2.02,1.82c-.47.72-1.15,1.35-2.02,1.87l-2.02-1.87c.87-.52,1.55-1.13,2.02-1.82ZM275.41,27.54c.29.49,1.02.89,2.19,1.21,1.15-.89,1.22-1.81.22-2.75-.42-.37-.8-.55-1.15-.53-.27.02-.57.19-.9.53-.51.57-.63,1.09-.36,1.54ZM277.6,17.38l2.02,1.82c-.47.72-1.15,1.35-2.02,1.87l-1.97-1.87c.84-.52,1.49-1.13,1.97-1.82Z"/>
      <path class="cls-4" d="M285.93,29.51c-.09-1.18-.61-2.75-1.56-4.7l3.96-1.14c.27,2.06.42,4,.44,5.84h1.78v3.29h-.98c-.29-.25-.57-.55-.85-.88,0,.07-.03.36-.08.88h-6.97v-3.29h4.26ZM283.8,34.16l1.97,1.82c-.47.72-1.13,1.35-1.97,1.87l-2.02-1.87c.86-.52,1.53-1.13,2.02-1.82ZM286.97,34.16l2.02,1.82c-.49.72-1.17,1.35-2.02,1.87l-2-1.87c.86-.52,1.52-1.13,2-1.82Z"/>
      <path class="cls-4" d="M293.56,29.51c-.09-1.18-.61-2.75-1.56-4.7l3.96-1.14c.27,2.06.42,4,.44,5.84h1.5v3.29h-.71c-.29-.25-.57-.55-.85-.88,0,.07-.03.35-.08.86l-6.01.03v-3.29h3.31ZM293.53,34.16l2.02,1.84c-.49.71-1.17,1.32-2.02,1.84l-2-1.84c.86-.54,1.52-1.15,2-1.84Z"/>
      <path class="cls-4" d="M310.8,32.8c-.33-.24-.63-.53-.9-.88-.06.41-.15.71-.25.88-4.1.08-7.63.08-10.6,0h-1.45v-3.29h1.45c.04-.08.08-.19.14-.33.05-.12.1-.22.14-.3-.09-2.8-.21-4.6-.36-5.41l-.66-4.73,3.25-1.44.68,2.15-.52,1.44-.16,4.32-.11.76c.16-.19.56-.52,1.18-1.01,1.55-1.18,3.2-1.64,4.95-1.39,1.33.25,2.2,1.15,2.62,2.7.18.91.22,1.99.11,3.23h1.18v3.29h-.68ZM307.53,29.74c0-2.07-.81-3.11-2.43-3.11-1.75,0-3.14,1.04-4.18,3.11,2.46.05,4.66.05,6.61,0Z"/>
      <path class="cls-4" d="M314.85,29.51c-.09-1.18-.61-2.75-1.56-4.7l3.96-1.14c.27,2.06.42,4,.44,5.84h1.78v3.29h-.98c-.29-.25-.57-.55-.85-.88,0,.07-.03.36-.08.88h-6.37v-3.29h3.66ZM313.59,18.65l1.97,1.82c-.47.72-1.13,1.35-1.97,1.87l-2.02-1.87c.87-.52,1.55-1.13,2.02-1.82ZM316.76,18.65l2.02,1.82c-.47.72-1.15,1.35-2.02,1.87l-1.97-1.87c.84-.52,1.49-1.13,1.97-1.82Z"/>
      <path class="cls-4" d="M324.39,32.8h-5.22v-3.29h2.13c-.04-1.9-.48-5.59-1.34-11.07l3.96-1.14.68,2.1-.52,1.49c.18,2.66.28,5.54.3,8.64v3.26Z"/>
      <path class="cls-4" d="M327.31,32.77c.2-4.16-.2-8.95-1.2-14.35l3.96-1.14c.51,5.12.67,10.29.49,15.52l-3.25-.03Z"/>
      <path class="cls-4" d="M346.5,31.89c-.2,1.23-.78,2.37-1.75,3.41-1.22,1.06-2.67,1.63-4.35,1.69-1.13,0-2.21-.34-3.23-1.01-1.69-1.16-2.33-2.56-1.91-4.2.46-1.36.75-2.23.87-2.6l1.59-1.04c-.09.35-.18,1.22-.27,2.6,0,1.15.39,1.99,1.18,2.53.49.34,1.11.53,1.86.58,2.53-.13,3.74-.87,3.61-2.2-.18-1.9-.57-3.61-1.18-5.13l3.42-.96c.27,1.28.39,2.59.36,3.94h1.37v3.29h-.71c-.29-.25-.57-.56-.85-.91ZM340.28,22.95l2,1.87c-.47.69-1.14,1.31-2,1.87l-2.02-1.87c.86-.56,1.53-1.18,2.02-1.87Z"/>
      <path class="cls-4" d="M358.45,32.8c-.27-.22-.52-.5-.74-.83-.35.81-.56,1.29-.66,1.44-2.64.05-4.65-.3-6.01-1.06-.73.29-1.46.44-2.19.45h-1.09v-3.29h.85c-.36-.52-.56-.99-.6-1.42-.11-1.16.39-2.16,1.5-3.01,1.09-.84,2.2-1.09,3.33-.76-.18-.22-.38-.44-.6-.66l1.67-2.1c2.71,2.61,4.09,5.22,4.13,7.83v.1h1.04v3.29h-.63ZM350.25,27.64c-.04.13.42.67,1.37,1.62.4-.24.66-.61.77-1.14.11-.56,0-.99-.36-1.29-1.04-.05-1.63.22-1.78.81ZM354.32,27.47c-.04.52-.17,1-.41,1.44-.18.3-.4.6-.66.88.27.17.68.3,1.23.4.62.12.96.1,1.01-.05.11-.51-.28-1.4-1.18-2.68Z"/>
      <path class="cls-4" d="M367.66,31.91c-.27.51-.59.9-.96,1.19-1.75-.17-3.36-.6-4.84-1.29-.58.66-1.29.99-2.13.99h-.96v-3.29h.93c.46-.02.87-.4,1.26-1.14,1.44-2.8,2.79-4.19,4.04-4.17.84,0,1.63.51,2.38,1.52.75.99,1.07,2.26.96,3.79h.9v3.29h-.68c-.33-.24-.63-.53-.9-.88ZM362.96,28.86c.4.27.87.55,1.42.83,1.06.57,1.55.31,1.48-.78-.07-1.11-.51-1.67-1.31-1.67-.46,0-.98.54-1.59,1.62Z"/>
      <path class="cls-4" d="M374.16,32.8h-5.22v-3.29h2.13c-.04-1.9-.48-5.59-1.34-11.07l3.96-1.14.68,2.1-.52,1.49c.18,2.66.28,5.54.3,8.64v3.26Z"/>
      <path class="cls-4" d="M377.08,32.77c.2-4.16-.2-8.95-1.2-14.35l3.96-1.14c.51,5.12.67,10.29.49,15.52l-3.25-.03Z"/>
      <path class="cls-4" d="M393.66,32.8c-.35-.24-.65-.54-.9-.91l-.11.4c0,.08-.03.25-.08.51-2.46.07-5.13.07-8.01,0v-3.29c1.99.34,3.82.34,5.49,0-.47-1.99-1.16-3.75-2.05-5.28l3.39-1.36c.98,2.24,1.49,4.46,1.53,6.65h1.37v3.29h-.63Z"/>
      <path class="cls-4" d="M404.82,32.8c-.27-.22-.52-.5-.74-.83-.35.81-.56,1.29-.66,1.44-2.64.05-4.65-.3-6.01-1.06-.73.29-1.46.44-2.19.45h-1.09v-3.29h.85c-.36-.52-.56-.99-.6-1.42-.11-1.16.39-2.16,1.5-3.01,1.09-.84,2.2-1.09,3.33-.76-.18-.22-.38-.44-.6-.66l1.67-2.1c2.71,2.61,4.09,5.22,4.13,7.83v.1h1.04v3.29h-.63ZM396.62,27.64c-.04.13.42.67,1.37,1.62.4-.24.66-.61.77-1.14.11-.56,0-.99-.36-1.29-1.04-.05-1.63.22-1.78.81ZM400.69,27.47c-.04.52-.17,1-.41,1.44-.18.3-.4.6-.66.88.27.17.68.3,1.23.4.62.12.96.1,1.01-.05.11-.51-.28-1.4-1.18-2.68Z"/>
      <path class="cls-4" d="M408.7,29.21c.78-1.28-.26-2.25-3.12-2.91l1.89-3.36c.24-.05.51-.1.82-.15,4.52-.84,7.16-.35,7.93,1.47.66,1.57-.05,3.32-2.1,5.26h2.82v3.29c-3.46.03-5.53-.36-6.2-1.19-1.26.76-2.56,1.15-3.91,1.19h-1.67v-3.29h1.61c1.13,0,1.78-.1,1.94-.3ZM411.43,27.97c1.82-1.42,2.5-2.26,2.02-2.53-.33-.2-1.83-.15-4.51.15,1.26.34,2.09,1.13,2.49,2.38Z"/>
      <path class="cls-4" d="M425.37,25.72c.8,1.04,1.11,2.36.93,3.94-.18,1.53-.72,2.68-1.61,3.44-1.84-.17-3.47-.59-4.89-1.26-.57.64-1.27.96-2.1.96h-.93v-3.29h.9c.47,0,.89-.38,1.26-1.14,1.44-2.8,2.78-4.19,4.02-4.17.86,0,1.67.51,2.43,1.52ZM420.89,28.88c.42.27.9.54,1.45.81,1.07.57,1.57.31,1.48-.78-.07-1.11-.51-1.67-1.31-1.67-.46,0-.99.55-1.61,1.64Z"/>
    </g>
  </g>
  <g>
    <path class="cls-3" d="M162.77,7.21c-1.14-1.87-2.76-3.32-4.87-4.33-2.11-1.02-4.55-1.52-7.33-1.52h-14.43v36.99h7.62v-13.03h6.68c4.39,0,7.82-1.05,10.3-3.14,2.48-2.09,3.72-4.95,3.72-8.57,0-2.39-.57-4.52-1.7-6.39ZM155.18,17.71c-1.06.95-2.6,1.42-4.61,1.42h-6.81V7.52h6.99c1.88.03,3.35.61,4.42,1.73,1.07,1.12,1.6,2.58,1.6,4.4s-.53,3.12-1.59,4.07Z"/>
    <path class="cls-3" d="M126.42,22.93L117.86,1.28h-7.48l-14.97,37.2h8.28l.03-.07.89-2.34.89-2.28.89-2.34.51-1.08,1.08-.06h13.18l.19.38.64,1.58.89,2.35.83,2.09.63,1.71.04.07h8.2l-6.09-15.4-.06-.15ZM118.31,22.76l-.13.06h-3.68l-4.75-.06.07-.32.82-2.28.63-1.58.95-2.47.7-1.77.7-1.71.38-1.01.19.25.38,1.08.7,1.71.63,1.65.76,1.97.51,1.27.64,1.65.51,1.4v.19Z"/>
    <rect class="cls-3" x="46.31" y="1.34" width="7.92" height="37.08"/>
    <path class="cls-3" d="M41.79,1.35c-6.77,0-13.55-.01-20.32.01-.93,0-1.81.15-2.58.84-1.27,1.13-2.63,2.18-3.98,3.22-4.29,3.3-8.53,6.66-12.72,10.09-.51.41-.63.81-.48,1.28.17.52.61.77,1.22.75,1.26-.04,2.52,0,3.78-.01.53,0,.76.07.61.74-.29,1.34-.3,2.7.01,4.08.15.69.23,1.41-.13,2.19-.67,1.41-.34,2.41,1.04,3.29.78.5.96,1.09.99,1.9.1,2.42-.1,4.77-1.25,6.98-.39.74-.23,1.43.85,1.41.32,0,.59.2.85.21.79.01,1.63.36,2.36-.27,1.32-1.14,1.7-2.7,1.56-4.29-.13-1.5-.73-2.94-1.26-4.37-.44-1.18-1.31-2.24-.81-3.71.26-.76-.2-1.64-.99-1.99-.67-.3-.84-.83-.98-1.37-.67-2.56-.1-4.8,1.87-6.61,2-1.83,3.98-3.69,6.01-5.47,1.21-1.07,2.54-2,3.78-3.05.51-.43.87-.47,1.3.04.46.55.35,1.05-.17,1.45-2.09,1.64-4.1,3.38-6.05,5.18-1.14,1.05-2.29,2.08-3.44,3.12.08.09.16.18.24.28,3.13,0,6.26-.14,9.37.05,2.04.12,3.46-.68,4.93-1.91,3.01-2.51,6.15-4.85,9.22-7.28,2.01-1.59,3.98-3.22,5.96-4.84.38-.31.74-.66.55-1.28-.23-.77-.81-.64-1.36-.64Z"/>
    <path class="cls-3" d="M37.86,10.92c-.21-.66-.56-.69-1.06-.28-2.59,2.08-5.13,4.22-7.8,6.19-1.23.91-2.2,2.22-3.89,2.55-2.28.45-4.56.02-6.43.22-2.35,0-4.31,0-6.26,0-.48,0-1.18-.03-1.05.59.17.89.14,1.93,1.27,2.46,1.46.68,2.08,2.12,1.81,3.76-.14.86.26,1.31,1.01,1.52,2.3.62,4.64.51,6.96.19,3.16-.44,6.17-1.47,9.03-2.83,2.62-1.24,5.1-2.79,6.99-5.08.85-1.03,1.58-2.25,1.24-3.62-.47-1.92-1.19-3.78-1.8-5.66Z"/>
    <polygon class="cls-3" points="83.3 2.24 78.18 10.93 77.81 11.54 77.61 11.91 76.93 13.07 74.83 16.61 69.13 7.17 69.11 7.13 65.61 1.34 57.4 1.34 57.34 1.4 57.34 38.35 57.4 38.42 65.01 38.42 65.14 38.35 65.14 15.1 66.73 17.66 67.21 18.44 67.42 18.77 68.03 19.75 68.44 20.41 69.07 21.43 69.37 21.91 70.12 23.11 70.52 23.78 71.47 25.3 72.3 26.63 72.55 27.01 73.43 28.42 74.14 29.61 74.52 30.18 74.53 30.18 74.69 30.44 74.9 30.11 74.96 30.05 75.66 28.97 76.36 27.83 77.05 26.76 78 25.23 78.83 23.9 79.78 22.38 80.67 20.99 81.49 19.66 81.62 19.45 84.28 15.22 84.34 15.16 84.35 18.92 84.35 38.42 84.85 38.42 92.2 38.42 92.26 38.35 92.26 1.34 83.83 1.34 83.3 2.24"/>
  </g>
</svg>