<?xml version="1.0" encoding="UTF-8"?>
<svg id="Layer_1" data-name="Layer 1" xmlns="http://www.w3.org/2000/svg" viewBox="0 0 716.34 188.1">
  <defs>
    <style>
      .cls-1 {
        fill: #1e539e;
        stroke-width: 0px;
      }
    </style>
  </defs>
  <path class="cls-1" d="M619.4,117.2v56.03h-32.77V14.21h62.04c11.94,0,22.45,2.18,31.51,6.55,9.07,4.37,16.04,10.58,20.92,18.62,4.88,8.05,7.32,17.2,7.32,27.47,0,15.58-5.33,27.87-16,36.86-10.67,8.99-25.43,13.49-44.29,13.49h-28.73ZM619.4,90.66h29.27c8.66,0,15.27-2.04,19.82-6.12,4.55-4.08,6.83-9.9,6.83-17.48s-2.29-14.09-6.88-18.9c-4.59-4.81-10.92-7.28-19-7.43h-30.04v49.91Z"/>
  <path class="cls-1" d="M545.11,107.62l-.25-.63-36.8-93.1h-32.15l-64.35,159.94h34.92l.82-.28,3.81-10.08,3.82-9.81,3.81-10.08,2.18-4.63,4.64-.27h56.67l.81,1.63,2.73,6.81,3.81,10.09,3.55,8.99,2.72,7.35.82.28h34.6l-26.16-66.21ZM509.97,106.26l-.55.27h-15.8l-20.44-.27.28-1.37,3.54-9.81,2.72-6.81,4.09-10.62,3-7.63,2.99-7.36,1.64-4.36.82,1.09,1.63,4.63,3,7.36,2.72,7.08,3.27,8.45,2.18,5.45,2.73,7.08,2.18,6v.82Z"/>
  <polygon class="cls-1" points="293.83 93.29 291.2 89.09 290.32 87.66 293.83 93.29"/>
  <polygon class="cls-1" points="299.61 102.58 298.29 100.53 295.61 96.16 299.61 102.58"/>
  <polygon class="cls-1" points="313.28 124.52 312.18 122.87 308.64 117.15 304.55 110.61 302.82 107.73 313.28 124.52"/>
  <polygon class="cls-1" points="321.77 138.14 321.72 138.13 320.08 135.68 317.05 130.57 321.77 138.14"/>
  <polygon class="cls-1" points="352.24 92 351.69 92.9 348.15 98.62 344.33 104.62 340.25 111.16 336.7 116.88 332.62 123.42 329.62 128.05 326.62 132.95 323.63 137.59 323.36 137.86 352.24 92"/>
  <rect class="cls-1" x="200.47" y="14.16" width="34.06" height="159.39"/>
  <g>
    <path class="cls-1" d="M56.66,81.38c4.93-4.47,9.89-8.91,14.77-13.42,8.39-7.75,17-15.23,26-22.27,2.2-1.72,2.71-3.87.71-6.25-1.85-2.21-3.42-2.03-5.6-.17-5.3,4.51-11.01,8.53-16.23,13.12-8.75,7.69-17.27,15.65-25.85,23.54-8.49,7.81-10.93,17.43-8.05,28.43.61,2.33,1.36,4.61,4.23,5.88,3.39,1.5,5.37,5.29,4.25,8.56-2.17,6.33,1.59,10.86,3.48,15.95,2.29,6.15,4.87,12.33,5.43,18.79.59,6.82-1.03,13.54-6.71,18.42-3.11,2.67-6.74,1.19-10.14,1.15-1.13-.02-2.3-.91-3.67-.89-4.63.07-5.3-2.9-3.64-6.08,4.95-9.5,5.84-19.58,5.39-30-.15-3.49-.9-6.04-4.27-8.17-5.94-3.75-7.34-8.08-4.48-14.13,1.58-3.35,1.24-6.44.58-9.42-1.31-5.91-1.31-11.76-.04-17.54.64-2.9-.33-3.21-2.62-3.19-5.41.04-10.83-.11-16.24.06-2.63.08-4.54-1-5.26-3.21-.65-2-.13-3.71,2.04-5.49,18-14.74,36.26-29.15,54.68-43.36,5.8-4.47,11.63-8.95,17.09-13.83,3.33-2.97,7.13-3.6,11.11-3.61,29.11-.09,58.23-.05,87.34-.05,2.37,0,4.86-.52,5.84,2.77.79,2.67-.75,4.14-2.38,5.49-8.5,7-17,13.98-25.63,20.82-13.19,10.46-26.71,20.52-39.63,31.3-6.34,5.3-12.45,8.72-21.21,8.2-13.39-.8-26.86-.21-40.3-.21-.35-.4-.69-.79-1.04-1.19Z"/>
    <path class="cls-1" d="M81.65,92.66c8.04-.83,17.84.98,27.65-.93,7.24-1.41,11.4-7.04,16.71-10.95,11.49-8.46,22.42-17.67,33.54-26.62,2.19-1.76,3.66-1.64,4.58,1.2,2.62,8.11,5.71,16.09,7.75,24.34,1.46,5.89-1.66,11.11-5.33,15.55-8.12,9.83-18.77,16.47-30.05,21.82-12.3,5.83-25.23,10.29-38.8,12.17-9.96,1.38-20.01,1.86-29.9-.81-3.23-.87-4.96-2.84-4.35-6.52,1.16-7.06-1.5-13.23-7.77-16.17-4.86-2.28-4.71-6.73-5.45-10.56-.52-2.67,2.49-2.54,4.53-2.54,8.39,0,16.78,0,26.9,0Z"/>
  </g>
  <polygon class="cls-1" points="366.13 173.55 363.99 173.55 363.99 89.75 364.22 173.28 366.13 173.55"/>
  <polygon class="cls-1" points="248.15 14.16 247.88 14.43 247.88 14.16 248.15 14.16"/>
  <polygon class="cls-1" points="290.32 87.66 288.23 84.3 289.02 85.55 290.32 87.66"/>
  <polygon class="cls-1" points="302.82 107.73 299.61 102.58 301.28 105.16 302.82 107.73"/>
  <polygon class="cls-1" points="317.05 130.57 313.28 124.52 314.91 126.96 317.05 130.57"/>
  <polygon class="cls-1" points="398.01 14.16 398.01 173.28 397.73 173.55 366.13 173.55 364.22 173.28 363.99 89.75 363.95 73.56 363.68 73.83 352.24 92 323.36 137.86 322.47 139.27 321.77 138.14 317.05 130.57 314.91 126.96 313.28 124.52 302.82 107.73 301.28 105.16 299.61 102.58 295.61 96.16 293.83 93.29 290.32 87.66 289.02 85.55 288.23 84.3 281.39 73.33 281.39 173.28 280.85 173.55 248.15 173.55 247.88 173.28 247.88 14.43 248.15 14.16 283.42 14.16 298.47 39.07 298.56 39.23 323.08 79.82 332.07 64.57 335 59.59 335.89 58.03 337.47 55.4 359.47 18.05 361.76 14.16 398.01 14.16"/>
</svg>